<svg width="407" height="1725" viewBox="0 0 407 1725" fill="none" xmlns="http://www.w3.org/2000/svg">
<rect y="386" width="407" height="1339" fill="#455F2D"/>
<path d="M1.18898e-05 628.917L2.43923e-06 737.018L0 1114L407 1114L407 629.045C374.019 642.386 297.896 666.123 252.971 644.936C196.815 618.452 92.5243 597.136 1.18898e-05 628.917Z" fill="#B0B27D"/>
<path fill-rule="evenodd" clip-rule="evenodd" d="M407 76.1387C349.129 28.8281 272.301 0 188 0C117.986 0 53.125 19.8848 0 53.728V389.801H407V76.1387Z" fill="#455F2D"/>
<path d="M189.829 101.347C189.332 101.619 188.889 101.907 188.165 102.086C187.041 102.363 188.494 102.808 187.737 103.16C186.848 103.415 187.889 102.404 186.744 102.769C186.048 102.251 185.364 102.641 184.678 102.775C184.618 102.775 184.554 102.775 184.494 102.779C183.64 102.665 183.659 102.22 182.947 102.015C182.425 102.024 183.07 102.48 182.39 102.409C181.409 102.304 181.393 102.634 181.143 102.879C180.833 103.184 180.561 103.473 179.615 103.143C179.387 103.064 178.735 103.156 178.365 103.243C177.555 103.432 178.435 103.493 178.574 103.601C178.666 103.673 178.669 103.707 178.555 103.769C178.169 103.982 177.925 103.48 177.46 103.744C176.979 104.015 178.447 104.122 177.716 104.271C176.973 104.422 176.134 104.185 175.426 104.04C174.375 103.824 175.638 103.631 175.612 103.414C174.745 103.335 173.559 103.814 173.211 103.09C173.071 103.104 172.897 103.109 172.894 103.123C172.698 104.103 171.167 103.647 170.103 103.62C168.854 103.589 167.822 103.91 167.753 104.466C167.724 104.68 167.873 104.93 167.287 104.989C166.56 105.064 166.914 104.743 166.727 104.617C166.351 104.36 165.984 104.615 165.67 104.667C165.041 104.773 164.538 104.861 164.487 104.432C164.487 104.408 164.487 104.381 164.462 104.363C163.654 103.748 164.088 103.279 165.765 102.957C164.775 102.971 164.367 102.758 163.842 102.638C163.304 102.514 163.373 102.338 163.639 102.179C164.019 101.949 164.212 102.214 164.503 102.265C164.835 102.323 164.813 102.681 165.417 102.487C165.816 102.359 165.765 102.101 165.633 101.995C164.816 101.34 165.873 101.103 166.794 100.815C166.908 100.856 167.05 100.886 167.047 100.91C166.993 101.192 167.237 101.413 167.753 101.561C168.091 101.658 168.426 101.489 168.471 101.423C168.689 101.107 169.822 100.894 169.208 100.505C168.582 100.109 168.638 99.8917 169.496 99.5645C169.939 99.3953 169.876 98.9611 170.047 98.6382C170.477 98.6142 170.281 98.9737 170.762 98.8962C171.205 98.8243 170.936 98.6452 170.901 98.5324C170.758 98.108 172.325 97.8218 171.366 97.3424C171.363 97.341 171.417 97.3043 171.448 97.3029C173.147 97.176 173.075 96.4357 173.821 95.9747C174.54 95.5305 174.679 95.4741 173.964 95.0849C173.796 94.9947 173.644 94.8706 173.35 94.9284C172.992 94.9989 172.575 94.9665 172.594 94.8326C172.641 94.5139 173.439 94.7903 173.783 94.6041C173.891 94.5463 174.555 94.5195 174.609 94.7649C174.644 94.9242 173.964 95.171 174.967 95.1794C175.622 95.1851 176.166 94.9905 176.058 94.7931C175.786 94.2798 177.362 94.1106 177.001 93.62C176.989 93.603 177.052 93.5579 177.062 93.5593C178.587 93.7412 178.349 92.8938 179.365 92.7768C179.593 93.2209 180.283 92.9742 180.697 92.9121C182.27 92.6781 182.757 92.0718 183.115 91.4161C182.089 91.2808 181.526 91.3386 181.178 91.8715C180.934 92.2466 180.824 92.8557 179.314 92.8007C179.672 92.389 178.647 92.554 178.311 92.334C179.33 92.1169 180.612 91.9942 180.365 91.3174C181.596 91.2808 181.836 90.7999 182.409 90.4489C182.95 90.1147 182.684 89.7791 182.517 89.4745C182.371 89.2095 181.637 89.459 181.583 89.8736C181.564 90.0103 181.583 90.1471 181.583 90.2938C181.026 90.2599 181.51 89.9582 181.055 89.9455C180.39 89.9243 180.982 90.2035 180.798 90.2218C179.799 90.3177 180.552 91.0932 179.156 91.0425C178.957 91.0354 178.995 91.2399 179.194 91.3357C179.599 91.5289 178.827 91.6022 178.979 91.7672C177.834 91.4514 176.685 92.3453 175.552 91.7672C175.353 91.6657 175.081 91.7136 175.005 91.7376C173.575 92.1733 173.242 91.5501 172.761 91.2314C172.309 90.9311 171.999 90.8831 171.458 91.1313C171.116 91.2892 170.863 91.4373 170.423 91.1383C170.233 91.0072 169.733 91.0763 169.578 91.2779C169.251 91.7019 168.676 91.8025 167.854 91.5797C167.768 91.5571 167.658 91.543 167.559 91.543C167.461 91.543 167.363 91.567 167.167 91.5938C167.297 91.8589 167.847 91.9533 168.259 92.155C167.673 92.3453 167.306 92.9206 166.36 92.2917C165.911 92.5075 164.832 92.3749 164.835 92.8304C164.835 92.9671 164.826 93.0419 164.468 93.0658C162.639 93.1857 161.253 93.7158 159.681 94.0824C157.51 94.5872 155.248 95.0159 153.017 95.4713C152.897 95.4953 152.72 95.4699 152.568 95.4614C152.258 95.4445 152.824 94.8001 151.862 95.2598C151.41 95.4755 150.242 95.546 150.976 96.0367L151.005 96.0198C150.188 96.0043 148.894 96.3201 149.353 95.4939C147.837 95.5418 148.71 96.7008 146.806 96.44C146.742 96.722 147.464 96.667 147.527 96.8573C147.549 96.9236 147.556 97.0054 147.483 97.0547C147.435 97.0857 147.154 97.097 147.106 97.0702C146.815 96.9067 146.258 96.956 146.049 96.8813C144.252 96.2285 144.35 96.8334 144.331 97.3692C144.322 97.6046 143.85 97.5736 143.569 97.6526L143.581 97.6653C143.088 97.4918 143.053 97.0449 141.917 97.2479C141.354 97.3494 140.86 96.7925 140.952 96.7417C141.55 96.4202 141.06 96.0043 141.708 95.6349C142.35 95.2683 142.202 94.559 141.468 94.1431C140.617 93.6623 140.977 93.5339 142.404 93.3803C141.167 93.3535 140.357 93.3253 140.889 92.7458C141.145 92.4666 140.686 92.1324 140.42 91.8405C140.303 91.7094 139.914 91.5698 139.781 91.7827C139.547 92.1592 138.212 91.9463 138.212 92.4482C138.212 92.6118 137.601 92.5441 137.285 92.4454C136.908 92.3298 136.87 92.1662 137.152 92.0238C137.348 91.9237 137.658 91.8673 137.927 91.7968C139.42 91.4034 139.648 90.728 138.794 90.016C138.142 89.4731 138.671 88.7865 138.022 88.214C137.927 88.1308 138.073 88.0039 138.323 88.0265C139.525 88.1322 138.519 87.7064 138.848 87.6063C138.228 87.2876 137.275 86.9436 139.186 86.835C139.307 86.828 139.398 86.663 139.145 86.608C138.174 86.3937 138.278 85.9721 138.291 85.5505C137.616 85.7582 136.852 85.7098 136 85.4053C136.905 85.2065 136.918 85.1853 137.902 85.3108C138.462 85.3827 139.019 85.4715 139.449 85.2713C139.958 85.0344 139.538 84.8074 139.231 84.5903C139.104 84.5015 139.322 84.352 138.87 84.2561C138.835 84.9456 137.5 84.5296 136.829 84.744C136.652 84.8004 136.402 84.6326 136.421 84.5057C136.433 84.4211 136.563 84.2632 136.608 84.266C138.449 84.3604 136.886 83.9812 136.867 83.85C136.851 83.7429 136.617 83.6216 136.854 83.5328C137.202 83.4016 137.452 83.5539 137.611 83.654C138.031 83.9205 138.291 84.1475 139.152 83.8134C139.509 83.6752 140.003 83.9233 139.841 84.2392C139.705 84.5029 139.797 84.5156 140.329 84.3971C140.686 84.3167 140.794 84.4028 140.838 84.5353C140.923 84.7722 141.227 84.8102 141.594 84.6707C141.952 84.5339 141.686 84.4394 141.395 84.3506C141.139 84.2716 140.794 84.1828 140.715 84.0686C140.566 83.8543 139.427 83.7457 140.193 83.4693C140.696 83.2888 141.518 83.2226 142.173 83.4693C142.271 83.506 142.29 83.6075 142.48 83.5328C142.591 83.4891 142.778 83.4073 142.749 83.3805C142.581 83.2198 142.414 83.0491 142.148 82.9222C141.477 82.6008 141.24 82.2779 141.987 81.8619C142.249 82.1721 142.857 82.2877 143.622 82.5049C143.42 82.1157 143.727 81.8633 144.227 81.6969C145.17 81.3825 145.587 81.0949 144.189 80.772C144.755 80.5901 145.926 80.6888 145.379 80.1502C145.287 80.0613 145.578 79.933 145.973 79.9062C146.98 79.8386 147.565 79.455 147.483 79.0038C147.378 78.4286 148.723 78.4102 149.464 77.99C147.47 78.4793 148.182 77.5981 147.556 77.3852C147.47 77.3555 147.685 77.0143 147.948 77.1017C148.533 77.2963 149.777 76.9255 149.755 77.4105C149.736 77.7729 150.251 78.0577 150.112 78.3989C150.046 78.5639 150.096 78.7007 150.53 78.6697C150.815 78.6499 151.068 78.5653 151.027 78.375C150.995 78.2283 150.71 77.9661 151.318 77.959C151.799 77.9534 152.302 78.0295 152.109 78.4018C151.935 78.7359 152.678 78.8671 153.264 79.001C153.612 78.4638 153.7 77.9717 152.786 77.5262C152.444 77.3598 152.425 77.1032 152.571 76.8973C152.625 76.8226 153.153 76.7563 153.431 76.7789C155.403 76.9368 156.719 76.7196 157.586 76.04C157.747 75.9145 158.168 75.7876 157.896 75.61C157.314 75.2321 158.149 75.1207 158.551 75.0643C158.943 75.0093 159.7 74.8753 159.864 75.2983C159.959 75.5437 160.649 75.8102 159.5 75.9117C159.155 75.9427 158.807 76.0485 158.969 76.2642C159.212 76.5956 159.776 76.6449 160.45 76.5913C160.529 76.7901 160.234 76.8338 159.915 76.9311C159.472 77.0679 159.257 77.364 159.848 77.505C160.956 77.7673 160.25 78.1184 159.937 78.2932C159.715 78.4159 159.434 78.5188 159.589 78.6429C159.671 78.7091 160.165 78.6598 160.456 78.6922C161.13 78.767 161.168 78.3877 161.703 78.3623V78.7106L161.731 78.6922C161.491 78.9799 160.355 79.0123 160.703 79.4847C160.978 79.8541 160.491 80.129 159.801 80.3292C159.399 80.5337 158.795 80.6606 158.602 80.9454C157.27 81.5672 158.19 82.1425 158.94 82.7291C157.899 82.5726 157.01 82.4231 156.706 81.931C156.105 82.1623 156.551 82.4316 156.257 82.6261C155.624 82.7037 155.121 82.3611 154.46 82.5077C154.257 82.5105 153.935 82.3399 153.887 82.5232C153.846 82.6825 154.279 82.5683 154.479 82.6078C154.485 82.9039 155.222 83.2677 154.083 83.4595C154.204 83.5779 153.783 83.7048 154.169 83.8317C154.58 83.9671 154.735 84.2646 154.605 84.3985C153.751 85.277 155.045 85.3404 156.403 85.4109C157.058 85.4447 157.532 85.9876 157.298 86.2696C157.121 86.4839 156.868 86.7984 157.931 86.7617C158.358 86.7476 158.814 86.8153 159.238 86.8731C159.554 86.9168 159.554 87.0479 159.437 87.1635C159.345 87.2524 159.171 87.3186 158.966 87.2214C157.88 86.7025 158.238 87.5964 157.589 87.4991C157.608 87.8544 158.247 87.6993 158.633 87.7515C159.317 87.8446 160.709 87.5005 160.307 88.293C160.285 88.3338 161.285 88.4058 161.285 88.3127C161.285 87.4611 162.525 88.0829 163.209 87.9715C163.177 87.7219 161.608 87.7698 162.547 87.2749C162.895 87.0916 162.155 86.9661 161.68 87.1212C161.26 87.258 160.95 87.2933 160.706 87.0451C160.389 86.7222 160.864 86.7687 161.31 86.7687C161.586 86.7687 161.788 86.6954 161.832 86.5544C161.978 86.0919 161.981 86.0933 162.914 86.3542C163.49 86.1145 161.956 85.7733 163.051 85.6027C163.582 85.5195 164.237 85.8226 165.098 85.597C164.936 85.989 163.959 85.927 164.041 86.2259C164.247 86.3274 164.497 86.3175 164.75 86.2738C165.626 86.1187 165.708 86.2809 165.256 86.5572C164.949 86.7462 165.256 86.9704 164.949 87.141C165.364 87.148 165.734 87.0592 166.094 87.0225C166.794 86.9534 167.996 86.546 168.085 87.368C168.126 87.729 168.92 87.6669 169.632 87.6951C168.259 86.694 170.471 86.3542 171.151 85.652C171.423 85.9848 171.451 86.3147 172.331 86.1385C172.815 86.0412 173.296 85.9129 172.951 85.6196C172.565 85.2925 172.097 85.4292 171.524 85.7564C171.603 85.3207 171.66 84.94 172.47 85.2149C173.458 85.5491 173.369 84.9216 174.024 84.9809C174.692 85.0401 174.714 84.9935 174.891 84.4084C175.65 84.8892 176.251 85.3728 177.593 85.4659C177.96 85.4913 177.808 85.7014 177.843 85.8297C177.919 86.1117 178.229 86.1723 178.821 86.0962C179.577 85.9989 179.34 85.841 179.064 85.6379C178.805 85.4447 178.409 85.1472 179.112 85.0683C179.476 85.0274 180.172 84.5015 180.605 85.0908C180.729 85.2572 181.134 85.0415 181.238 85.0781C181.64 85.2206 182.653 84.94 182.532 85.4744C182.485 85.6901 183.156 85.8071 183.409 85.6083C183.795 85.308 184.798 85.3855 185.019 85.0048C185.051 84.9498 185.614 84.5649 186.231 85.0217C186.719 85.3813 188.18 85.1134 189.06 85.4053C189.152 85.4363 189.68 85.2121 189.13 85.0683C188.506 84.9047 188.63 84.6566 188.668 84.4267C189.123 84.273 189.256 84.7792 189.683 84.5C189.87 84.3774 190.104 84.1898 189.81 84.0531C189.449 83.8867 189.171 84.0136 188.769 84.1207C188.19 84.2744 187.431 84.3055 186.734 84.3464C186.554 84.3562 186.105 84.555 186.041 84.2801C186.01 84.1306 185.861 83.9346 186.412 83.8867C188.342 83.7217 188.703 83.1041 188.674 82.3568C188.668 82.1933 188.26 81.9564 188.854 81.8732C189.326 81.8069 189.345 82.1355 189.769 82.1806C189.987 82.2031 190.104 82.2849 190.085 82.3921L190.126 82.3709C189.867 82.4725 189.206 82.5824 189.339 82.629C190.139 82.9067 189.579 83.4778 190.557 83.6893C190.826 83.3777 192.107 83.5173 192.009 83.0477C191.962 82.825 192.528 82.6924 192.617 82.7333C193.221 83.0153 194.268 82.7488 194.676 83.0336C194.939 83.2169 194.433 83.3706 193.854 83.3918C193.503 83.4059 192.987 83.4919 193.3 83.7513C193.74 84.1137 193.797 83.6428 193.901 83.6794C195.186 84.1377 195.312 82.8842 196.559 83.3283C196.591 83.2437 196.708 83.1366 196.635 83.0773C196.524 82.9857 196.584 82.753 196.113 82.8489C195.708 82.9307 195.524 82.9081 195.54 82.7051C195.55 82.5965 195.907 82.5162 195.926 82.5359C196.344 83.0012 197.103 82.1157 197.426 82.6106C197.515 82.7474 197.591 82.7277 197.812 82.7164C198.059 82.7037 198.394 82.7333 198.328 82.5655C198.157 82.1411 199.027 81.9804 199.306 81.6716C199.306 82.6247 200.559 82.9279 202.41 82.9476C202.609 82.949 203.033 82.8771 202.748 83.0985C202.653 83.1732 202.555 83.286 202.41 83.3058C201.691 83.4045 201.682 83.3988 201.815 83.7626C200.951 83.7936 201.21 84.3337 200.325 84.3548C201.166 84.4169 201.979 84.7426 202.742 84.297C202.422 84.1363 201.381 84.1856 201.837 83.7725C202.277 84.1687 202.808 83.9685 203.001 83.7429C203.258 83.4439 203.527 83.1408 203.549 82.7939C203.587 82.1862 204.353 81.9888 205.694 82.1749C205.912 82.0072 205.352 81.9818 205.463 81.7999C206.745 82.0325 208.07 82.1369 209.108 81.5588C209.083 81.5503 208.96 81.5165 208.849 81.477C208.33 81.288 207.482 81.1344 207.811 80.7692C208.181 80.3574 209.036 80.576 209.58 80.6874C210.304 80.8354 210.529 80.5971 210.887 80.4576C211.206 80.3321 211.507 80.2531 211.785 80.4435C212.079 80.6465 211.674 80.8016 211.367 80.7945C210.637 80.779 210.63 81.3867 209.678 81.1626C210.336 81.4417 210.934 81.7562 211.665 81.9916C212.329 82.206 212.972 82.2765 213.231 81.7322C213.367 81.4488 213.101 80.8312 214.658 81.0385C214.915 81.0723 215.127 80.9088 215.047 80.7903C214.794 80.4209 214.285 80.9496 213.893 80.6902C214.402 80.5266 213.605 80.0303 214.595 80.0049C215.956 79.9697 215.418 80.5182 215.519 81.0032C215.987 80.6028 216.281 80.3433 216.592 80.0853C216.737 79.9641 217.016 79.9373 217.272 79.9753C217.731 80.0444 217.351 80.1304 217.285 80.2221C217.085 80.4956 217.392 80.3546 217.664 80.3194C218.351 80.2263 219.17 80.0994 218.674 80.6803C218.598 80.7706 218.522 80.8876 218.781 80.9158C220.126 81.0582 221.145 81.7012 222.695 81.4812C223.48 81.3698 223.695 81.5588 224.012 81.8873C224.129 81.2725 224.322 81.1752 225.508 81.5038C226.454 81.7646 227.926 81.7477 229.128 81.6955C230.216 81.649 231.112 81.9705 231.229 82.1834C231.432 82.5571 233.08 82.9674 231.47 83.4214C231.444 83.4284 230.438 83.7767 231.7 83.6935C231.887 83.6808 231.625 83.9233 231.438 83.9318C231.15 83.9445 230.666 84.0418 230.59 83.8035C230.539 83.647 230.555 83.4679 230.675 83.3213C231.001 82.9279 230.656 82.4823 230.052 82.4175C229.524 82.3597 228.796 82.7883 228.625 83.114C228.403 83.5384 228.647 83.9995 229.182 84.3464C229.441 84.5156 230.258 84.6566 230.894 84.376C231.735 84.0037 232.289 84.383 232.245 84.6255C232.166 85.0767 232.223 85.3757 233.406 85.3376C234.627 85.2967 234.118 84.8229 234.254 84.5381C234.748 84.4662 234.865 84.5945 234.988 84.7313C235.32 85.1106 235.678 84.978 236.07 84.7454C236.757 84.3393 237.469 83.9417 238.168 83.5398C238.731 84.0827 239.997 84.0305 241 84.2025L240.965 84.1828C240.753 84.5621 239.51 84.6833 239.731 85.1698C239.725 85.3094 239.719 85.4504 239.709 85.59C239.823 86.2569 239.383 86.4191 237.931 86.2019C237.431 86.1272 236.975 85.9481 236.589 86.2456C236.314 86.4571 235.899 86.6418 236.633 86.8999C237.064 87.0507 236.763 87.4061 236.788 87.6528C237.361 87.736 237.38 87.423 237.741 87.4413C238.627 87.485 238.893 87.3863 238.462 86.9929C238.291 86.8378 238.295 86.6108 238.715 86.4881C238.848 86.4501 239.219 86.4642 239.282 86.5107C239.494 86.663 239.731 86.8223 239.677 87.0225C239.617 87.2425 236.788 88.5045 236.545 88.4029C235.804 88.097 234.289 88.3536 234.083 87.7261C233.976 87.3962 233.514 87.3215 232.982 87.4399C232.254 87.6021 231.897 87.4836 231.406 87.2467C230.764 86.9379 229.973 87.2129 229.343 87.3158C228.96 87.3779 229.071 87.7698 228.454 87.8601C229.755 88.0533 228.859 88.4072 228.758 88.7004C228.71 88.8358 228.644 89.0205 228.226 88.9599C228.043 88.9331 227.973 88.754 227.755 88.5552C227.483 89.2842 225.821 89.2532 225.005 89.7241C224.619 89.9469 222.819 89.6325 221.638 89.703C220.832 89.7509 220.075 89.8426 219.449 90.0823C219.164 90.1908 219.275 90.2218 219.607 90.2952C220.104 90.4066 219.55 90.5884 219.461 90.5602C218.246 90.164 217.303 90.6829 216.275 90.7689C215.057 90.8704 213.472 90.9057 212.709 91.2229C211.14 91.8758 209.118 91.6403 207.403 92.0252C205.4 92.475 203.191 92.9291 200.736 92.9333C199.834 92.9347 198.379 92.561 198.008 93.3591C197.11 93.1772 196.341 93.486 195.524 93.4888C194.629 93.4916 193.882 93.6453 193.373 93.885C192.857 94.129 192.572 93.933 192.174 93.8879C192.408 94.3673 190.604 95.2147 189.101 95.2217C188.329 95.226 187.877 95.2527 187.484 95.5587C187.19 95.7857 186.573 95.773 186.051 95.7364C185.557 95.7011 185.13 95.7265 185.19 95.9831C185.241 96.1989 185.586 96.3681 186.168 96.3117C186.658 96.2637 187.247 96.2496 187.601 96.1171C190 95.2217 193.063 95.0525 195.822 94.552C196.556 94.418 196.126 94.8622 196.683 94.7846C196.812 94.7663 196.493 94.9566 196.344 94.9877C195.487 95.1681 194.268 95.1583 194.496 95.8379C194.537 95.9606 194.164 96.1692 193.639 96.1848C193.414 96.1904 192.971 96.2186 193.126 96.3666C193.775 96.9856 192.756 96.9701 191.905 97.0815C191.044 97.1943 190.253 97.4368 189.386 97.5073C188.392 97.5877 188.915 97.9896 188.497 98.2095C188.168 98.3815 189.06 98.249 189.383 98.2998C189.927 98.3844 190.098 98.6311 190.636 98.7806C190.756 98.5761 190.87 98.3928 190.968 98.2081C191.101 97.9529 191.781 97.8147 192.066 98.0107C192.572 98.3576 193.49 98.249 194.12 98.4506C194.297 98.507 194.784 98.4718 194.968 98.3999C195.208 98.3054 194.73 98.1461 194.737 98.1404C195.167 97.8683 194.385 97.5567 194.869 97.3001C195.211 97.1182 195.534 97.0251 195.749 97.3649C195.806 97.4552 196.17 97.5073 196.395 97.5764C196.433 97.4636 196.471 97.3508 196.534 97.1562C196.907 97.7781 197.527 97.5637 198.024 97.3057C198.442 97.0872 198.853 96.949 199.486 97.0604C199.859 97.1266 200.198 97.3494 199.704 97.4016C198.056 97.575 200.021 97.9346 199.072 98.1644C200.211 98.1348 200.388 97.606 201.631 97.8316C202.872 98.0572 202.112 97.2972 202.6 97.0604L202.577 97.0801C203.141 96.9842 204.131 97.1774 204.027 96.6303C203.992 96.44 204.359 96.5542 204.565 96.5401C205.28 96.495 204.922 96.8023 205.191 96.901C205.403 96.9913 205.808 97.0956 205.185 97.1647C204.672 97.2211 204.28 97.2042 204.906 97.5003C205.302 97.6864 205.359 97.991 206.134 97.7485C207.491 97.3226 207.767 97.3804 208.39 98.1588C208.485 98.2786 208.779 98.3674 208.979 98.469C208.396 98.1997 209.801 97.6427 208.324 97.5229C209.02 97.1901 208.751 96.9532 207.849 97.0251C206.881 97.1013 206.049 96.9532 205.153 96.9137C205.387 96.6219 207.659 96.5951 205.729 96.0099C205.457 95.9267 205.697 95.7392 206.014 95.6743C206.416 95.5911 206.621 95.735 206.697 95.8661C206.881 96.1777 207.067 96.4794 207.994 96.7741C207.412 96.2947 207.444 95.8943 207.305 95.5051C207.264 95.3923 207.074 95.2697 207.377 95.2034C207.738 95.1258 208.004 95.2415 208.099 95.3811C208.317 95.7054 208.574 96.0339 208.621 96.3652C208.643 96.5316 208.681 96.7488 208.861 96.8052C209.247 96.9236 209.146 97.3128 209.63 97.2211C210.368 97.0801 209.808 96.8108 209.548 96.643C208.941 96.2553 209.365 96.0832 210.064 95.8379C210.928 95.5347 211.026 95.6701 211.383 96.0423C211.709 96.385 212.345 96.1636 212.795 95.9817C213.19 96.1946 212.266 96.5133 213.079 96.6924C212.861 96.7727 213.045 97.0054 212.377 96.9292C211.728 96.8545 212.076 97.1196 212.124 97.2564C211.472 97.1055 211.393 96.6698 210.529 96.619C210.051 96.8954 210.763 97.1704 210.488 97.4495C211.061 97.3819 211.592 97.3184 212.124 97.255C212.937 97.1703 213.715 97.0294 214.601 97.1506C215.313 97.2479 215.737 97.1013 215.459 96.7107C216.237 96.8178 215.968 97.2902 216.68 97.2634C217.303 97.2394 216.911 96.8714 217.354 96.7163C217.247 96.9419 218.5 97.0181 217.522 97.3635C217.009 97.544 217.772 97.6963 218.155 97.7597C218.335 97.7893 218.585 98.2434 218.939 97.7555C219.11 97.52 220.17 97.7527 220.135 97.8246C219.939 98.2448 220.737 98.4817 220.879 98.8215C220.926 98.9385 220.756 99.0739 220.686 99.2022C220.126 98.7425 219.686 99.7774 219.003 99.2191C218.677 98.9526 218.196 98.7411 218.468 98.414C218.591 98.2687 218.503 98.1912 218.18 98.1672C218.028 98.1559 217.826 98.1447 217.718 98.1785C217.329 98.3026 217.8 98.3632 217.886 98.4182C218.297 98.6875 217.256 99.1204 218.689 99.3178C216.987 99.3798 215.715 99.7041 214.253 99.7309C213.377 99.7464 213.212 99.7492 212.674 99.3079C211.928 98.6946 212.412 98.5155 213.266 98.1616C212.431 98.3139 212.086 97.5623 211.124 98.0361C210.605 98.2927 209.991 98.469 209.982 98.8793C209.972 99.3065 209.026 99.3009 208.45 99.2811C208.089 99.2684 206.928 99.3488 207.365 98.8412C207.517 98.6664 207.219 98.7073 207.093 98.7101C206.84 98.7185 206.492 98.6325 206.419 98.8652C206.374 99.0034 206.298 99.1824 205.935 99.2586C205.482 99.1965 205.53 99.016 205.628 98.9089C206.311 98.1616 204.754 98.0685 203.963 97.7569C203.884 97.7259 203.609 97.7273 203.574 97.7527C203.372 97.9092 203.134 98.0657 203.498 98.2532C203.77 98.3942 203.606 98.5761 203.596 98.7411C203.258 98.696 202.922 98.6494 202.581 98.6043C202.432 98.7538 202.862 98.7933 202.878 98.8468C202.948 99.1091 204.261 99.04 203.717 99.3051C203.289 99.5138 202.277 99.5984 201.809 99.1359C200.9 99.6632 201.748 100.384 200.647 100.843C201.584 100.935 201.641 100.948 201.502 101.079C201.28 101.285 200.91 101.227 200.454 101.245C199.284 101.295 198.328 101.712 197.107 101.784C196.531 101.818 196.047 102.341 195.385 101.839C193.683 102.504 193.18 101.134 191.664 101.403C191.209 101.484 191.06 101.269 191.069 101.093C191.079 100.944 191.133 100.804 190.636 100.828C190.243 100.846 190.104 100.952 190.126 101.116L189.842 101.351L189.829 101.347ZM192.689 84.9019C193.05 85.0358 193.243 84.8243 193.49 84.8272C193.702 84.83 193.79 85.2107 194.18 84.9061C194.408 84.7271 193.971 84.6284 193.68 84.5311C193.278 84.3971 192.617 84.4408 192.389 84.211C192.208 84.0277 192.468 83.8246 191.563 83.9896C190.762 84.1348 191.528 84.4493 190.94 84.5071C191.155 84.7567 191.633 84.799 192.041 84.6833C192.895 84.4422 192.49 84.8582 192.737 84.9216C191.199 84.8201 192.117 85.3404 192.006 85.5561C191.848 85.8649 192.702 85.9834 192.952 85.8677C193.3 85.7056 194.107 85.8269 194.037 85.5477C194.002 85.4081 193.48 85.3517 193.018 85.3728C192.484 85.3968 192.477 85.3616 192.693 84.9019H192.689ZM175.078 91.175C176.6 91.5458 176.884 90.6166 178.118 90.5941C178.523 90.587 178.185 90.2726 177.938 90.1358C177.713 90.0103 177.33 89.7058 177.147 89.8426C176.511 90.3064 175.011 90.5123 175.081 91.1764L175.078 91.175ZM215.152 97.8232C214.354 98.1531 214.503 98.7129 213.38 98.8638C213.101 98.9018 213.117 99.1486 213.307 99.2402C213.715 99.4362 213.763 99.0992 213.902 99.1119C214.797 99.1937 215.079 98.7904 215.721 98.6819C216.054 98.6255 216.085 98.4633 215.759 98.452C214.693 98.4154 215.519 98.053 215.149 97.8218L215.152 97.8232ZM185.89 96.9081C187.753 97.6046 188.614 96.6529 189.959 96.4682C188.37 96.1946 187.44 97.0801 185.89 96.9081ZM203.644 87.6373C203.701 87.3891 203.77 87.1635 203.799 86.9379C203.818 86.7828 203.897 86.6108 203.365 86.5615C202.805 86.5093 202.764 86.6926 202.694 86.8407C202.571 87.1114 201.907 87.1635 201.552 87.4272C202.35 87.368 202.9 87.5654 203.641 87.6359L203.644 87.6373ZM197.005 84.5959C197.448 84.4295 197.094 83.812 198.303 84.2279C198.334 84.2378 198.581 84.163 198.629 84.1095C198.666 84.07 198.518 83.9501 198.502 83.9515C197.546 84.0615 197.141 83.4961 196.271 83.5596C195.828 84.0094 196.227 84.3182 197.005 84.5959ZM197.686 86.0341C197.85 86.4952 198.679 86.6954 199.154 86.9986C199.306 87.0973 199.749 87.1382 199.79 87.0211C199.866 86.7983 200.388 86.6179 200.113 86.3627C200.018 86.2766 199.828 86.1497 199.698 86.2301C198.704 86.8421 198.524 86.0285 197.689 86.0327L197.686 86.0341ZM192.243 89.1122C192.848 89.0868 192.493 88.8809 192.547 88.7893C192.724 88.4692 192.49 88.0349 193.809 88.2535C194.002 88.2859 194.186 88.2055 194.18 88.0857C194.173 87.9785 194.075 87.9179 193.835 87.8897C193.284 87.8234 192.67 87.8319 192.436 88.0603C192.139 88.3508 192.069 88.6878 191.936 89.0078C191.924 89.036 192.158 89.084 192.243 89.1108V89.1122ZM151.96 79.4973C151.865 79.4071 151.837 79.3211 151.732 79.2943C151.495 79.2337 151.356 79.3944 151.318 79.3944C150.704 79.3845 150.799 79.8795 150.001 79.7469C149.691 79.6962 149.843 79.2421 149.236 79.5453C148.799 79.7638 149.483 79.847 149.748 79.9542C149.979 80.0472 150.096 80.3307 150.539 80.1756C151.08 79.9866 151.495 79.7258 151.963 79.4973H151.96ZM141.911 85.2008C141.344 85.4363 140.673 85.6478 141.069 86.0609C141.208 86.2061 141.499 86.161 141.702 86.0736C142.29 85.8198 142.55 85.542 141.911 85.2008ZM148.435 81.1682C148.049 80.7522 147.578 80.6521 146.926 80.8594C146.16 81.1033 146.072 81.4192 146.562 81.8126C146.742 81.3529 146.818 80.8608 148.432 81.1682H148.435ZM195.113 100.216C194.101 100.016 193.205 99.6379 192.246 100.16C193.117 100.571 194.078 100.25 195.113 100.216ZM141.787 96.0226C142.316 96.3906 142.075 96.7854 142.882 96.9292C143.176 96.9814 143.183 96.7586 143.227 96.6726C143.433 96.2947 142.885 96.1453 141.784 96.0226H141.787ZM191.645 87.9983C191.066 87.9306 191.101 88.1223 190.857 88.1646C190.326 88.2591 189.475 88.4029 189.864 88.668C190.275 88.9486 190.848 88.5002 191.471 88.4805C192.012 88.4636 191.205 88.1576 191.645 87.9983Z" fill="#547436"/>
<path d="M19.6278 73.1712C22.7812 73.2839 25.5013 74.5488 27.8695 76.5151C32.4041 80.2823 35.2037 85.0369 35.8343 90.9748C36.0259 92.776 35.7656 94.5106 35.2375 96.2138C35.0243 96.9007 34.7247 97.586 33.8285 97.6428C32.912 97.702 32.616 97.0623 32.3357 96.3624C30.3814 91.4924 27.1673 87.8153 22.3184 85.5971C18.5881 83.8885 16.5244 80.8568 15.8111 76.8702C15.3573 74.3262 16.166 73.3143 18.7648 73.1566C19.051 73.1393 19.3392 73.1653 19.6278 73.1712ZM21.6824 74.7912C25.7315 76.5841 29.0436 79.2724 31.7393 82.7431C29.506 78.6797 26.1322 76.045 21.6824 74.7912Z" fill="#3C5623"/>
<path d="M11.3886 82.1467C11.3756 80.7898 11.6504 79.4819 12.1063 78.2122C12.2898 77.7003 12.5504 77.2389 13.2193 77.2841C13.7988 77.3218 14.0568 77.7015 14.1766 78.1993C15.3101 82.9664 18.4521 85.9305 22.7589 87.9706C27.1172 90.0348 29.4921 93.8073 31.0262 98.1849C31.6186 99.8704 30.8017 101.147 29.0152 101.396C27.1159 101.66 25.299 101.272 23.5321 100.557C16.7049 97.7943 11.2254 89.4972 11.3886 82.1467ZM15.6272 91.6977C17.9169 95.9725 21.3935 98.8052 26.0993 100.107C21.8701 98.2215 18.3368 95.4798 15.6272 91.6977Z" fill="#3C5623"/>
<path d="M278.002 50.1519C275.733 50.9121 273.465 50.7392 271.261 49.9746C267.038 48.509 263.784 45.8802 261.754 41.8336C261.138 40.6061 260.861 39.3056 260.782 37.956C260.75 37.4116 260.78 36.8453 261.401 36.5663C262.036 36.28 262.416 36.6552 262.802 37.0772C265.487 40.0132 268.748 41.7667 272.781 42.0491C275.884 42.2679 278.156 43.8698 279.725 46.5094C280.725 48.1941 280.42 49.1279 278.618 49.9323C278.419 50.0208 278.208 50.0791 278.002 50.1519ZM276.111 49.5495C272.76 49.3559 269.692 48.3304 266.854 46.5852C269.522 48.8742 272.619 49.8453 276.111 49.5495Z" fill="#324D18" fill-opacity="0.5"/>
<path d="M281.457 41.5855C281.828 42.5452 281.982 43.5468 281.996 44.5695C282.003 44.9817 281.941 45.3786 281.454 45.5248C281.032 45.6525 280.748 45.4517 280.53 45.1303C278.456 42.0487 275.436 40.782 271.835 40.4816C268.191 40.1778 265.501 38.133 263.245 35.4346C262.376 34.3961 262.615 33.2721 263.817 32.6193C265.095 31.9258 266.488 31.7172 267.932 31.7543C273.514 31.8957 279.615 36.3248 281.457 41.5855ZM275.904 35.9358C273.14 33.5117 269.917 32.4275 266.23 32.7572C269.734 32.9689 272.973 33.9733 275.904 35.9358Z" fill="#324D18" fill-opacity="0.5"/>
<path d="M371.652 191.878C373.474 193.428 374.497 195.459 374.98 197.743C375.904 202.115 375.333 206.259 372.915 210.087C372.182 211.248 371.211 212.157 370.096 212.921C369.646 213.23 369.146 213.496 368.586 213.108C368.013 212.713 368.138 212.193 368.301 211.645C369.429 207.83 369.247 204.132 367.407 200.532C365.993 197.761 366.192 194.988 367.643 192.282C368.569 190.556 369.526 190.335 371.146 191.463C371.324 191.588 371.483 191.739 371.652 191.878ZM372.112 193.807C373.676 196.778 374.381 199.934 374.352 203.266C374.935 199.799 374.168 196.646 372.112 193.807Z" fill="#324D18" fill-opacity="0.5"/>
<path d="M362.53 193.339C363.161 192.526 363.939 191.878 364.808 191.337C365.157 191.119 365.529 190.968 365.906 191.309C366.233 191.604 366.208 191.951 366.045 192.304C364.477 195.671 364.951 198.912 366.552 202.15C368.173 205.428 367.811 208.788 366.664 212.113C366.223 213.393 365.137 213.768 363.958 213.076C362.704 212.34 361.806 211.255 361.092 209.998C358.332 205.144 358.976 197.633 362.53 193.339ZM360.558 201.012C359.909 204.631 360.644 207.951 362.83 210.938C361.202 207.828 360.391 204.536 360.558 201.012Z" fill="#324D18" fill-opacity="0.5"/>
<path d="M33.2868 393.892C35.1089 395.443 36.1314 397.474 36.6147 399.757C37.5393 404.13 36.9677 408.274 34.5498 412.102C33.8165 413.263 32.8459 414.172 31.7308 414.936C31.2809 415.244 30.7804 415.511 30.2208 415.123C29.648 414.727 29.7729 414.208 29.9354 413.66C31.0639 409.845 30.8822 406.146 29.0422 402.547C27.6277 399.776 27.8266 397.003 29.2775 394.297C30.2042 392.571 31.161 392.349 32.7805 393.478C32.9588 393.602 33.1179 393.753 33.2868 393.892ZM33.7466 395.822C35.311 398.793 36.016 401.949 35.9865 405.281C36.5697 401.814 35.8028 398.661 33.7466 395.822Z" fill="#324D18" fill-opacity="0.5"/>
<path d="M24.165 395.354C24.7955 394.541 25.574 393.893 26.4423 393.352C26.7922 393.134 27.1642 392.982 27.5406 393.324C27.8676 393.619 27.8424 393.966 27.6795 394.318C26.1113 397.686 26.5854 400.926 28.1868 404.165C29.8075 407.442 29.4453 410.803 28.2985 414.127C27.858 415.408 26.7717 415.783 25.5923 415.091C24.3387 414.355 23.441 413.269 22.7269 412.013C19.9664 407.159 20.6107 399.648 24.165 395.354ZM22.1931 403.027C21.544 406.646 22.2789 409.965 24.4647 412.953C22.8369 409.842 22.0254 406.55 22.1931 403.027Z" fill="#324D18" fill-opacity="0.5"/>
<path d="M112.435 25.578C112.632 23.766 113.474 22.2519 114.706 20.9699C117.066 18.5152 119.922 17.1013 123.369 16.9866C124.415 16.9516 125.404 17.1741 126.363 17.5497C126.749 17.7012 127.132 17.9026 127.127 18.4212C127.123 18.9516 126.742 19.0954 126.327 19.2276C123.439 20.1496 121.187 21.8474 119.706 24.548C118.565 26.6255 116.732 27.6874 114.406 27.9315C112.921 28.0865 112.372 27.5782 112.39 26.0745C112.392 25.9089 112.419 25.744 112.435 25.578ZM113.454 24.4621C114.656 22.2045 116.344 20.4089 118.456 19.0012C116.021 20.1177 114.362 21.9511 113.454 24.4621Z" fill="#324D18" fill-opacity="0.5"/>
<path d="M117.261 30.7004C116.479 30.6511 115.737 30.4381 115.025 30.1223C114.737 29.9951 114.482 29.8257 114.537 29.4423C114.582 29.11 114.812 28.9772 115.104 28.929C117.898 28.4755 119.737 26.7896 121.092 24.3938C122.464 21.9694 124.736 20.7591 127.323 20.0586C128.318 19.7878 129.02 20.3119 129.088 21.3515C129.161 22.4567 128.861 23.4871 128.375 24.4751C126.498 28.2926 121.489 31.102 117.261 30.7004ZM122.941 28.6583C125.499 27.5182 127.277 25.6339 128.224 22.9774C126.96 25.3348 125.233 27.2556 122.941 28.6583Z" fill="#324D18" fill-opacity="0.5"/>
</svg>
