<svg width="414" height="1725" viewBox="0 0 414 1725" fill="none" xmlns="http://www.w3.org/2000/svg">
<rect x="7" y="386" width="407" height="1339" fill="#455F2D"/>
<path d="M260.351 567.442C204.332 551.319 100.299 538.342 8.00253 557.69L8.00253 853L414 853L414 557.768C381.101 565.889 305.165 580.341 260.351 567.442Z" fill="#B0B27D"/>
<path fill-rule="evenodd" clip-rule="evenodd" d="M414 76.1387C356.129 28.8281 279.301 0 195 0C124.986 0 60.125 19.8848 7 53.728V389.801H414V76.1387Z" fill="#455F2D"/>
<path d="M196.829 101.347C196.332 101.619 195.889 101.907 195.165 102.086C194.041 102.363 195.494 102.808 194.737 103.16C193.848 103.415 194.889 102.404 193.744 102.769C193.048 102.251 192.364 102.641 191.678 102.775C191.618 102.775 191.554 102.775 191.494 102.779C190.64 102.665 190.659 102.22 189.947 102.015C189.425 102.024 190.07 102.48 189.39 102.409C188.409 102.304 188.393 102.634 188.143 102.879C187.833 103.184 187.561 103.473 186.615 103.143C186.387 103.064 185.735 103.156 185.365 103.243C184.555 103.432 185.435 103.493 185.574 103.601C185.666 103.673 185.669 103.707 185.555 103.769C185.169 103.982 184.925 103.48 184.46 103.744C183.979 104.015 185.447 104.122 184.716 104.271C183.973 104.422 183.134 104.185 182.426 104.04C181.375 103.824 182.638 103.631 182.612 103.414C181.745 103.335 180.559 103.814 180.211 103.09C180.071 103.104 179.897 103.109 179.894 103.123C179.698 104.103 178.167 103.647 177.103 103.62C175.854 103.589 174.822 103.91 174.753 104.466C174.724 104.68 174.873 104.93 174.287 104.989C173.56 105.064 173.914 104.743 173.727 104.617C173.351 104.36 172.984 104.615 172.67 104.667C172.041 104.773 171.538 104.861 171.487 104.432C171.487 104.408 171.487 104.381 171.462 104.363C170.654 103.748 171.088 103.279 172.765 102.957C171.775 102.971 171.367 102.758 170.842 102.638C170.304 102.514 170.373 102.338 170.639 102.179C171.019 101.949 171.212 102.214 171.503 102.265C171.835 102.323 171.813 102.681 172.417 102.487C172.816 102.359 172.765 102.101 172.633 101.995C171.816 101.34 172.873 101.103 173.794 100.815C173.908 100.856 174.05 100.886 174.047 100.91C173.993 101.192 174.237 101.413 174.753 101.561C175.091 101.658 175.426 101.489 175.471 101.423C175.689 101.107 176.822 100.894 176.208 100.505C175.582 100.109 175.638 99.8917 176.496 99.5645C176.939 99.3953 176.876 98.9611 177.047 98.6382C177.477 98.6142 177.281 98.9737 177.762 98.8962C178.205 98.8243 177.936 98.6452 177.901 98.5324C177.758 98.108 179.325 97.8218 178.366 97.3424C178.363 97.341 178.417 97.3043 178.448 97.3029C180.147 97.176 180.075 96.4357 180.821 95.9747C181.54 95.5305 181.679 95.4741 180.964 95.0849C180.796 94.9947 180.644 94.8706 180.35 94.9284C179.992 94.9989 179.575 94.9665 179.594 94.8326C179.641 94.5139 180.439 94.7903 180.783 94.6041C180.891 94.5463 181.555 94.5195 181.609 94.7649C181.644 94.9242 180.964 95.171 181.967 95.1794C182.622 95.1851 183.166 94.9905 183.058 94.7931C182.786 94.2798 184.362 94.1106 184.001 93.62C183.989 93.603 184.052 93.5579 184.062 93.5593C185.587 93.7412 185.349 92.8938 186.365 92.7768C186.593 93.2209 187.283 92.9742 187.697 92.9121C189.27 92.6781 189.757 92.0718 190.115 91.4161C189.089 91.2808 188.526 91.3386 188.178 91.8715C187.934 92.2466 187.824 92.8557 186.314 92.8007C186.672 92.389 185.647 92.554 185.311 92.334C186.33 92.1169 187.612 91.9942 187.365 91.3174C188.596 91.2808 188.836 90.7999 189.409 90.4489C189.95 90.1147 189.684 89.7791 189.517 89.4745C189.371 89.2095 188.637 89.459 188.583 89.8736C188.564 90.0103 188.583 90.1471 188.583 90.2938C188.026 90.2599 188.51 89.9582 188.055 89.9455C187.39 89.9243 187.982 90.2035 187.798 90.2218C186.799 90.3177 187.552 91.0932 186.156 91.0425C185.957 91.0354 185.995 91.2399 186.194 91.3357C186.599 91.5289 185.827 91.6022 185.979 91.7672C184.834 91.4514 183.685 92.3453 182.552 91.7672C182.353 91.6657 182.081 91.7136 182.005 91.7376C180.575 92.1733 180.242 91.5501 179.761 91.2314C179.309 90.9311 178.999 90.8831 178.458 91.1313C178.116 91.2892 177.863 91.4373 177.423 91.1383C177.233 91.0072 176.733 91.0763 176.578 91.2779C176.251 91.7019 175.676 91.8025 174.854 91.5797C174.768 91.5571 174.658 91.543 174.559 91.543C174.461 91.543 174.363 91.567 174.167 91.5938C174.297 91.8589 174.847 91.9533 175.259 92.155C174.673 92.3453 174.306 92.9206 173.36 92.2917C172.911 92.5075 171.832 92.3749 171.835 92.8304C171.835 92.9671 171.826 93.0419 171.468 93.0658C169.639 93.1857 168.253 93.7158 166.681 94.0824C164.51 94.5872 162.248 95.0159 160.017 95.4713C159.897 95.4953 159.72 95.4699 159.568 95.4614C159.258 95.4445 159.824 94.8001 158.862 95.2598C158.41 95.4755 157.242 95.546 157.976 96.0367L158.005 96.0198C157.188 96.0043 155.894 96.3201 156.353 95.4939C154.837 95.5418 155.71 96.7008 153.806 96.44C153.742 96.722 154.464 96.667 154.527 96.8573C154.549 96.9236 154.556 97.0054 154.483 97.0547C154.435 97.0857 154.154 97.097 154.106 97.0702C153.815 96.9067 153.258 96.956 153.049 96.8813C151.252 96.2285 151.35 96.8334 151.331 97.3692C151.322 97.6046 150.85 97.5736 150.569 97.6526L150.581 97.6653C150.088 97.4918 150.053 97.0449 148.917 97.2479C148.354 97.3494 147.86 96.7925 147.952 96.7417C148.55 96.4202 148.06 96.0043 148.708 95.6349C149.35 95.2683 149.202 94.559 148.468 94.1431C147.617 93.6623 147.977 93.5339 149.404 93.3803C148.167 93.3535 147.357 93.3253 147.889 92.7458C148.145 92.4666 147.686 92.1324 147.42 91.8405C147.303 91.7094 146.914 91.5698 146.781 91.7827C146.547 92.1592 145.212 91.9463 145.212 92.4482C145.212 92.6118 144.601 92.5441 144.285 92.4454C143.908 92.3298 143.87 92.1662 144.152 92.0238C144.348 91.9237 144.658 91.8673 144.927 91.7968C146.42 91.4034 146.648 90.728 145.794 90.016C145.142 89.4731 145.671 88.7865 145.022 88.214C144.927 88.1308 145.073 88.0039 145.323 88.0265C146.525 88.1322 145.519 87.7064 145.848 87.6063C145.228 87.2876 144.275 86.9436 146.186 86.835C146.307 86.828 146.398 86.663 146.145 86.608C145.174 86.3937 145.278 85.9721 145.291 85.5505C144.616 85.7582 143.852 85.7098 143 85.4053C143.905 85.2065 143.918 85.1853 144.902 85.3108C145.462 85.3827 146.019 85.4715 146.449 85.2713C146.958 85.0344 146.538 84.8074 146.231 84.5903C146.104 84.5015 146.322 84.352 145.87 84.2561C145.835 84.9456 144.5 84.5296 143.829 84.744C143.652 84.8004 143.402 84.6326 143.421 84.5057C143.433 84.4211 143.563 84.2632 143.608 84.266C145.449 84.3604 143.886 83.9812 143.867 83.85C143.851 83.7429 143.617 83.6216 143.854 83.5328C144.202 83.4016 144.452 83.5539 144.611 83.654C145.031 83.9205 145.291 84.1475 146.152 83.8134C146.509 83.6752 147.003 83.9233 146.841 84.2392C146.705 84.5029 146.797 84.5156 147.329 84.3971C147.686 84.3167 147.794 84.4028 147.838 84.5353C147.923 84.7722 148.227 84.8102 148.594 84.6707C148.952 84.5339 148.686 84.4394 148.395 84.3506C148.139 84.2716 147.794 84.1828 147.715 84.0686C147.566 83.8543 146.427 83.7457 147.193 83.4693C147.696 83.2888 148.518 83.2226 149.173 83.4693C149.271 83.506 149.29 83.6075 149.48 83.5328C149.591 83.4891 149.778 83.4073 149.749 83.3805C149.581 83.2198 149.414 83.0491 149.148 82.9222C148.477 82.6008 148.24 82.2779 148.987 81.8619C149.249 82.1721 149.857 82.2877 150.622 82.5049C150.42 82.1157 150.727 81.8633 151.227 81.6969C152.17 81.3825 152.587 81.0949 151.189 80.772C151.755 80.5901 152.926 80.6888 152.379 80.1502C152.287 80.0613 152.578 79.933 152.973 79.9062C153.98 79.8386 154.565 79.455 154.483 79.0038C154.378 78.4286 155.723 78.4102 156.464 77.99C154.47 78.4793 155.182 77.5981 154.556 77.3852C154.47 77.3555 154.685 77.0143 154.948 77.1017C155.533 77.2963 156.777 76.9255 156.755 77.4105C156.736 77.7729 157.251 78.0577 157.112 78.3989C157.046 78.5639 157.096 78.7007 157.53 78.6697C157.815 78.6499 158.068 78.5653 158.027 78.375C157.995 78.2283 157.71 77.9661 158.318 77.959C158.799 77.9534 159.302 78.0295 159.109 78.4018C158.935 78.7359 159.678 78.8671 160.264 79.001C160.612 78.4638 160.7 77.9717 159.786 77.5262C159.444 77.3598 159.425 77.1032 159.571 76.8973C159.625 76.8226 160.153 76.7563 160.431 76.7789C162.403 76.9368 163.719 76.7196 164.586 76.04C164.747 75.9145 165.168 75.7876 164.896 75.61C164.314 75.2321 165.149 75.1207 165.551 75.0643C165.943 75.0093 166.7 74.8753 166.864 75.2983C166.959 75.5437 167.649 75.8102 166.5 75.9117C166.155 75.9427 165.807 76.0485 165.969 76.2642C166.212 76.5956 166.776 76.6449 167.45 76.5913C167.529 76.7901 167.234 76.8338 166.915 76.9311C166.472 77.0679 166.257 77.364 166.848 77.505C167.956 77.7673 167.25 78.1184 166.937 78.2932C166.715 78.4159 166.434 78.5188 166.589 78.6429C166.671 78.7091 167.165 78.6598 167.456 78.6922C168.13 78.767 168.168 78.3877 168.703 78.3623V78.7106L168.731 78.6922C168.491 78.9799 167.355 79.0123 167.703 79.4847C167.978 79.8541 167.491 80.129 166.801 80.3292C166.399 80.5337 165.795 80.6606 165.602 80.9454C164.27 81.5672 165.19 82.1425 165.94 82.7291C164.899 82.5726 164.01 82.4231 163.706 81.931C163.105 82.1623 163.551 82.4316 163.257 82.6261C162.624 82.7037 162.121 82.3611 161.46 82.5077C161.257 82.5105 160.935 82.3399 160.887 82.5232C160.846 82.6825 161.279 82.5683 161.479 82.6078C161.485 82.9039 162.222 83.2677 161.083 83.4595C161.204 83.5779 160.783 83.7048 161.169 83.8317C161.58 83.9671 161.735 84.2646 161.605 84.3985C160.751 85.277 162.045 85.3404 163.403 85.4109C164.058 85.4447 164.532 85.9876 164.298 86.2696C164.121 86.4839 163.868 86.7984 164.931 86.7617C165.358 86.7476 165.814 86.8153 166.238 86.8731C166.554 86.9168 166.554 87.0479 166.437 87.1635C166.345 87.2524 166.171 87.3186 165.966 87.2214C164.88 86.7025 165.238 87.5964 164.589 87.4991C164.608 87.8544 165.247 87.6993 165.633 87.7515C166.317 87.8446 167.709 87.5005 167.307 88.293C167.285 88.3338 168.285 88.4058 168.285 88.3127C168.285 87.4611 169.525 88.0829 170.209 87.9715C170.177 87.7219 168.608 87.7698 169.547 87.2749C169.895 87.0916 169.155 86.9661 168.68 87.1212C168.26 87.258 167.95 87.2933 167.706 87.0451C167.389 86.7222 167.864 86.7687 168.31 86.7687C168.586 86.7687 168.788 86.6954 168.832 86.5544C168.978 86.0919 168.981 86.0933 169.914 86.3542C170.49 86.1145 168.956 85.7733 170.051 85.6027C170.582 85.5195 171.237 85.8226 172.098 85.597C171.936 85.989 170.959 85.927 171.041 86.2259C171.247 86.3274 171.497 86.3175 171.75 86.2738C172.626 86.1187 172.708 86.2809 172.256 86.5572C171.949 86.7462 172.256 86.9704 171.949 87.141C172.364 87.148 172.734 87.0592 173.094 87.0225C173.794 86.9534 174.996 86.546 175.085 87.368C175.126 87.729 175.92 87.6669 176.632 87.6951C175.259 86.694 177.471 86.3542 178.151 85.652C178.423 85.9848 178.451 86.3147 179.331 86.1385C179.815 86.0412 180.296 85.9129 179.951 85.6196C179.565 85.2925 179.097 85.4292 178.524 85.7564C178.603 85.3207 178.66 84.94 179.47 85.2149C180.458 85.5491 180.369 84.9216 181.024 84.9809C181.692 85.0401 181.714 84.9935 181.891 84.4084C182.65 84.8892 183.251 85.3728 184.593 85.4659C184.96 85.4913 184.808 85.7014 184.843 85.8297C184.919 86.1117 185.229 86.1723 185.821 86.0962C186.577 85.9989 186.34 85.841 186.064 85.6379C185.805 85.4447 185.409 85.1472 186.112 85.0683C186.476 85.0274 187.172 84.5015 187.605 85.0908C187.729 85.2572 188.134 85.0415 188.238 85.0781C188.64 85.2206 189.653 84.94 189.532 85.4744C189.485 85.6901 190.156 85.8071 190.409 85.6083C190.795 85.308 191.798 85.3855 192.019 85.0048C192.051 84.9498 192.614 84.5649 193.231 85.0217C193.719 85.3813 195.18 85.1134 196.06 85.4053C196.152 85.4363 196.68 85.2121 196.13 85.0683C195.506 84.9047 195.63 84.6566 195.668 84.4267C196.123 84.273 196.256 84.7792 196.683 84.5C196.87 84.3774 197.104 84.1898 196.81 84.0531C196.449 83.8867 196.171 84.0136 195.769 84.1207C195.19 84.2744 194.431 84.3055 193.734 84.3464C193.554 84.3562 193.105 84.555 193.041 84.2801C193.01 84.1306 192.861 83.9346 193.412 83.8867C195.342 83.7217 195.703 83.1041 195.674 82.3568C195.668 82.1933 195.26 81.9564 195.854 81.8732C196.326 81.8069 196.345 82.1355 196.769 82.1806C196.987 82.2031 197.104 82.2849 197.085 82.3921L197.126 82.3709C196.867 82.4725 196.206 82.5824 196.339 82.629C197.139 82.9067 196.579 83.4778 197.557 83.6893C197.826 83.3777 199.107 83.5173 199.009 83.0477C198.962 82.825 199.528 82.6924 199.617 82.7333C200.221 83.0153 201.268 82.7488 201.676 83.0336C201.939 83.2169 201.433 83.3706 200.854 83.3918C200.503 83.4059 199.987 83.4919 200.3 83.7513C200.74 84.1137 200.797 83.6428 200.901 83.6794C202.186 84.1377 202.312 82.8842 203.559 83.3283C203.591 83.2437 203.708 83.1366 203.635 83.0773C203.524 82.9857 203.584 82.753 203.113 82.8489C202.708 82.9307 202.524 82.9081 202.54 82.7051C202.55 82.5965 202.907 82.5162 202.926 82.5359C203.344 83.0012 204.103 82.1157 204.426 82.6106C204.515 82.7474 204.591 82.7277 204.812 82.7164C205.059 82.7037 205.394 82.7333 205.328 82.5655C205.157 82.1411 206.027 81.9804 206.306 81.6716C206.306 82.6247 207.559 82.9279 209.41 82.9476C209.609 82.949 210.033 82.8771 209.748 83.0985C209.653 83.1732 209.555 83.286 209.41 83.3058C208.691 83.4045 208.682 83.3988 208.815 83.7626C207.951 83.7936 208.21 84.3337 207.325 84.3548C208.166 84.4169 208.979 84.7426 209.742 84.297C209.422 84.1363 208.381 84.1856 208.837 83.7725C209.277 84.1687 209.808 83.9685 210.001 83.7429C210.258 83.4439 210.527 83.1408 210.549 82.7939C210.587 82.1862 211.353 81.9888 212.694 82.1749C212.912 82.0072 212.352 81.9818 212.463 81.7999C213.745 82.0325 215.07 82.1369 216.108 81.5588C216.083 81.5503 215.96 81.5165 215.849 81.477C215.33 81.288 214.482 81.1344 214.811 80.7692C215.181 80.3574 216.036 80.576 216.58 80.6874C217.304 80.8354 217.529 80.5971 217.887 80.4576C218.206 80.3321 218.507 80.2531 218.785 80.4435C219.079 80.6465 218.674 80.8016 218.367 80.7945C217.637 80.779 217.63 81.3867 216.678 81.1626C217.336 81.4417 217.934 81.7562 218.665 81.9916C219.329 82.206 219.972 82.2765 220.231 81.7322C220.367 81.4488 220.101 80.8312 221.658 81.0385C221.915 81.0723 222.127 80.9088 222.047 80.7903C221.794 80.4209 221.285 80.9496 220.893 80.6902C221.402 80.5266 220.605 80.0303 221.595 80.0049C222.956 79.9697 222.418 80.5182 222.519 81.0032C222.987 80.6028 223.281 80.3433 223.592 80.0853C223.737 79.9641 224.016 79.9373 224.272 79.9753C224.731 80.0444 224.351 80.1304 224.285 80.2221C224.085 80.4956 224.392 80.3546 224.664 80.3194C225.351 80.2263 226.17 80.0994 225.674 80.6803C225.598 80.7706 225.522 80.8876 225.781 80.9158C227.126 81.0582 228.145 81.7012 229.695 81.4812C230.48 81.3698 230.695 81.5588 231.012 81.8873C231.129 81.2725 231.322 81.1752 232.508 81.5038C233.454 81.7646 234.926 81.7477 236.128 81.6955C237.216 81.649 238.112 81.9705 238.229 82.1834C238.432 82.5571 240.08 82.9674 238.47 83.4214C238.444 83.4284 237.438 83.7767 238.7 83.6935C238.887 83.6808 238.625 83.9233 238.438 83.9318C238.15 83.9445 237.666 84.0418 237.59 83.8035C237.539 83.647 237.555 83.4679 237.675 83.3213C238.001 82.9279 237.656 82.4823 237.052 82.4175C236.524 82.3597 235.796 82.7883 235.625 83.114C235.403 83.5384 235.647 83.9995 236.182 84.3464C236.441 84.5156 237.258 84.6566 237.894 84.376C238.735 84.0037 239.289 84.383 239.245 84.6255C239.166 85.0767 239.223 85.3757 240.406 85.3376C241.627 85.2967 241.118 84.8229 241.254 84.5381C241.748 84.4662 241.865 84.5945 241.988 84.7313C242.32 85.1106 242.678 84.978 243.07 84.7454C243.757 84.3393 244.469 83.9417 245.168 83.5398C245.731 84.0827 246.997 84.0305 248 84.2025L247.965 84.1828C247.753 84.5621 246.51 84.6833 246.731 85.1698C246.725 85.3094 246.719 85.4504 246.709 85.59C246.823 86.2569 246.383 86.4191 244.931 86.2019C244.431 86.1272 243.975 85.9481 243.589 86.2456C243.314 86.4571 242.899 86.6418 243.633 86.8999C244.064 87.0507 243.763 87.4061 243.788 87.6528C244.361 87.736 244.38 87.423 244.741 87.4413C245.627 87.485 245.893 87.3863 245.462 86.9929C245.291 86.8378 245.295 86.6108 245.715 86.4881C245.848 86.4501 246.219 86.4642 246.282 86.5107C246.494 86.663 246.731 86.8223 246.677 87.0225C246.617 87.2425 243.788 88.5045 243.545 88.4029C242.804 88.097 241.289 88.3536 241.083 87.7261C240.976 87.3962 240.514 87.3215 239.982 87.4399C239.254 87.6021 238.897 87.4836 238.406 87.2467C237.764 86.9379 236.973 87.2129 236.343 87.3158C235.96 87.3779 236.071 87.7698 235.454 87.8601C236.755 88.0533 235.859 88.4072 235.758 88.7004C235.71 88.8358 235.644 89.0205 235.226 88.9599C235.043 88.9331 234.973 88.754 234.755 88.5552C234.483 89.2842 232.821 89.2532 232.005 89.7241C231.619 89.9469 229.819 89.6325 228.638 89.703C227.832 89.7509 227.075 89.8426 226.449 90.0823C226.164 90.1908 226.275 90.2218 226.607 90.2952C227.104 90.4066 226.55 90.5884 226.461 90.5602C225.246 90.164 224.303 90.6829 223.275 90.7689C222.057 90.8704 220.472 90.9057 219.709 91.2229C218.14 91.8758 216.118 91.6403 214.403 92.0252C212.4 92.475 210.191 92.9291 207.736 92.9333C206.834 92.9347 205.379 92.561 205.008 93.3591C204.11 93.1772 203.341 93.486 202.524 93.4888C201.629 93.4916 200.882 93.6453 200.373 93.885C199.857 94.129 199.572 93.933 199.174 93.8879C199.408 94.3673 197.604 95.2147 196.101 95.2217C195.329 95.226 194.877 95.2527 194.484 95.5587C194.19 95.7857 193.573 95.773 193.051 95.7364C192.557 95.7011 192.13 95.7265 192.19 95.9831C192.241 96.1989 192.586 96.3681 193.168 96.3117C193.658 96.2637 194.247 96.2496 194.601 96.1171C197 95.2217 200.063 95.0525 202.822 94.552C203.556 94.418 203.126 94.8622 203.683 94.7846C203.812 94.7663 203.493 94.9566 203.344 94.9877C202.487 95.1681 201.268 95.1583 201.496 95.8379C201.537 95.9606 201.164 96.1692 200.639 96.1848C200.414 96.1904 199.971 96.2186 200.126 96.3666C200.775 96.9856 199.756 96.9701 198.905 97.0815C198.044 97.1943 197.253 97.4368 196.386 97.5073C195.392 97.5877 195.915 97.9896 195.497 98.2095C195.168 98.3815 196.06 98.249 196.383 98.2998C196.927 98.3844 197.098 98.6311 197.636 98.7806C197.756 98.5761 197.87 98.3928 197.968 98.2081C198.101 97.9529 198.781 97.8147 199.066 98.0107C199.572 98.3576 200.49 98.249 201.12 98.4506C201.297 98.507 201.784 98.4718 201.968 98.3999C202.208 98.3054 201.73 98.1461 201.737 98.1404C202.167 97.8683 201.385 97.5567 201.869 97.3001C202.211 97.1182 202.534 97.0251 202.749 97.3649C202.806 97.4552 203.17 97.5073 203.395 97.5764C203.433 97.4636 203.471 97.3508 203.534 97.1562C203.907 97.7781 204.527 97.5637 205.024 97.3057C205.442 97.0872 205.853 96.949 206.486 97.0604C206.859 97.1266 207.198 97.3494 206.704 97.4016C205.056 97.575 207.021 97.9346 206.072 98.1644C207.211 98.1348 207.388 97.606 208.631 97.8316C209.872 98.0572 209.112 97.2972 209.6 97.0604L209.577 97.0801C210.141 96.9842 211.131 97.1774 211.027 96.6303C210.992 96.44 211.359 96.5542 211.565 96.5401C212.28 96.495 211.922 96.8023 212.191 96.901C212.403 96.9913 212.808 97.0956 212.185 97.1647C211.672 97.2211 211.28 97.2042 211.906 97.5003C212.302 97.6864 212.359 97.991 213.134 97.7485C214.491 97.3226 214.767 97.3804 215.39 98.1588C215.485 98.2786 215.779 98.3674 215.979 98.469C215.396 98.1997 216.801 97.6427 215.324 97.5229C216.02 97.1901 215.751 96.9532 214.849 97.0251C213.881 97.1013 213.049 96.9532 212.153 96.9137C212.387 96.6219 214.659 96.5951 212.729 96.0099C212.457 95.9267 212.697 95.7392 213.014 95.6743C213.416 95.5911 213.621 95.735 213.697 95.8661C213.881 96.1777 214.067 96.4794 214.994 96.7741C214.412 96.2947 214.444 95.8943 214.305 95.5051C214.264 95.3923 214.074 95.2697 214.377 95.2034C214.738 95.1258 215.004 95.2415 215.099 95.3811C215.317 95.7054 215.574 96.0339 215.621 96.3652C215.643 96.5316 215.681 96.7488 215.861 96.8052C216.247 96.9236 216.146 97.3128 216.63 97.2211C217.368 97.0801 216.808 96.8108 216.548 96.643C215.941 96.2553 216.365 96.0832 217.064 95.8379C217.928 95.5347 218.026 95.6701 218.383 96.0423C218.709 96.385 219.345 96.1636 219.795 95.9817C220.19 96.1946 219.266 96.5133 220.079 96.6924C219.861 96.7727 220.045 97.0054 219.377 96.9292C218.728 96.8545 219.076 97.1196 219.124 97.2564C218.472 97.1055 218.393 96.6698 217.529 96.619C217.051 96.8954 217.763 97.1704 217.488 97.4495C218.061 97.3819 218.592 97.3184 219.124 97.255C219.937 97.1703 220.715 97.0294 221.601 97.1506C222.313 97.2479 222.737 97.1013 222.459 96.7107C223.237 96.8178 222.968 97.2902 223.68 97.2634C224.303 97.2394 223.911 96.8714 224.354 96.7163C224.247 96.9419 225.5 97.0181 224.522 97.3635C224.009 97.544 224.772 97.6963 225.155 97.7597C225.335 97.7893 225.585 98.2434 225.939 97.7555C226.11 97.52 227.17 97.7527 227.135 97.8246C226.939 98.2448 227.737 98.4817 227.879 98.8215C227.926 98.9385 227.756 99.0739 227.686 99.2022C227.126 98.7425 226.686 99.7774 226.003 99.2191C225.677 98.9526 225.196 98.7411 225.468 98.414C225.591 98.2687 225.503 98.1912 225.18 98.1672C225.028 98.1559 224.826 98.1447 224.718 98.1785C224.329 98.3026 224.8 98.3632 224.886 98.4182C225.297 98.6875 224.256 99.1204 225.689 99.3178C223.987 99.3798 222.715 99.7041 221.253 99.7309C220.377 99.7464 220.212 99.7492 219.674 99.3079C218.928 98.6946 219.412 98.5155 220.266 98.1616C219.431 98.3139 219.086 97.5623 218.124 98.0361C217.605 98.2927 216.991 98.469 216.982 98.8793C216.972 99.3065 216.026 99.3009 215.45 99.2811C215.089 99.2684 213.928 99.3488 214.365 98.8412C214.517 98.6664 214.219 98.7073 214.093 98.7101C213.84 98.7185 213.492 98.6325 213.419 98.8652C213.374 99.0034 213.298 99.1824 212.935 99.2586C212.482 99.1965 212.53 99.016 212.628 98.9089C213.311 98.1616 211.754 98.0685 210.963 97.7569C210.884 97.7259 210.609 97.7273 210.574 97.7527C210.372 97.9092 210.134 98.0657 210.498 98.2532C210.77 98.3942 210.606 98.5761 210.596 98.7411C210.258 98.696 209.922 98.6494 209.581 98.6043C209.432 98.7538 209.862 98.7933 209.878 98.8468C209.948 99.1091 211.261 99.04 210.717 99.3051C210.289 99.5138 209.277 99.5984 208.809 99.1359C207.9 99.6632 208.748 100.384 207.647 100.843C208.584 100.935 208.641 100.948 208.502 101.079C208.28 101.285 207.91 101.227 207.454 101.245C206.284 101.295 205.328 101.712 204.107 101.784C203.531 101.818 203.047 102.341 202.385 101.839C200.683 102.504 200.18 101.134 198.664 101.403C198.209 101.484 198.06 101.269 198.069 101.093C198.079 100.944 198.133 100.804 197.636 100.828C197.243 100.846 197.104 100.952 197.126 101.116L196.842 101.351L196.829 101.347ZM199.689 84.9019C200.05 85.0358 200.243 84.8243 200.49 84.8272C200.702 84.83 200.79 85.2107 201.18 84.9061C201.408 84.7271 200.971 84.6284 200.68 84.5311C200.278 84.3971 199.617 84.4408 199.389 84.211C199.208 84.0277 199.468 83.8246 198.563 83.9896C197.762 84.1348 198.528 84.4493 197.94 84.5071C198.155 84.7567 198.633 84.799 199.041 84.6833C199.895 84.4422 199.49 84.8582 199.737 84.9216C198.199 84.8201 199.117 85.3404 199.006 85.5561C198.848 85.8649 199.702 85.9834 199.952 85.8677C200.3 85.7056 201.107 85.8269 201.037 85.5477C201.002 85.4081 200.48 85.3517 200.018 85.3728C199.484 85.3968 199.477 85.3616 199.693 84.9019H199.689ZM182.078 91.175C183.6 91.5458 183.884 90.6166 185.118 90.5941C185.523 90.587 185.185 90.2726 184.938 90.1358C184.713 90.0103 184.33 89.7058 184.147 89.8426C183.511 90.3064 182.011 90.5123 182.081 91.1764L182.078 91.175ZM222.152 97.8232C221.354 98.1531 221.503 98.7129 220.38 98.8638C220.101 98.9018 220.117 99.1486 220.307 99.2402C220.715 99.4362 220.763 99.0992 220.902 99.1119C221.797 99.1937 222.079 98.7904 222.721 98.6819C223.054 98.6255 223.085 98.4633 222.759 98.452C221.693 98.4154 222.519 98.053 222.149 97.8218L222.152 97.8232ZM192.89 96.9081C194.753 97.6046 195.614 96.6529 196.959 96.4682C195.37 96.1946 194.44 97.0801 192.89 96.9081ZM210.644 87.6373C210.701 87.3891 210.77 87.1635 210.799 86.9379C210.818 86.7828 210.897 86.6108 210.365 86.5615C209.805 86.5093 209.764 86.6926 209.694 86.8407C209.571 87.1114 208.907 87.1635 208.552 87.4272C209.35 87.368 209.9 87.5654 210.641 87.6359L210.644 87.6373ZM204.005 84.5959C204.448 84.4295 204.094 83.812 205.303 84.2279C205.334 84.2378 205.581 84.163 205.629 84.1095C205.666 84.07 205.518 83.9501 205.502 83.9515C204.546 84.0615 204.141 83.4961 203.271 83.5596C202.828 84.0094 203.227 84.3182 204.005 84.5959ZM204.686 86.0341C204.85 86.4952 205.679 86.6954 206.154 86.9986C206.306 87.0973 206.749 87.1382 206.79 87.0211C206.866 86.7983 207.388 86.6179 207.113 86.3627C207.018 86.2766 206.828 86.1497 206.698 86.2301C205.704 86.8421 205.524 86.0285 204.689 86.0327L204.686 86.0341ZM199.243 89.1122C199.848 89.0868 199.493 88.8809 199.547 88.7893C199.724 88.4692 199.49 88.0349 200.809 88.2535C201.002 88.2859 201.186 88.2055 201.18 88.0857C201.173 87.9785 201.075 87.9179 200.835 87.8897C200.284 87.8234 199.67 87.8319 199.436 88.0603C199.139 88.3508 199.069 88.6878 198.936 89.0078C198.924 89.036 199.158 89.084 199.243 89.1108V89.1122ZM158.96 79.4973C158.865 79.4071 158.837 79.3211 158.732 79.2943C158.495 79.2337 158.356 79.3944 158.318 79.3944C157.704 79.3845 157.799 79.8795 157.001 79.7469C156.691 79.6962 156.843 79.2421 156.236 79.5453C155.799 79.7638 156.483 79.847 156.748 79.9542C156.979 80.0472 157.096 80.3307 157.539 80.1756C158.08 79.9866 158.495 79.7258 158.963 79.4973H158.96ZM148.911 85.2008C148.344 85.4363 147.673 85.6478 148.069 86.0609C148.208 86.2061 148.499 86.161 148.702 86.0736C149.29 85.8198 149.55 85.542 148.911 85.2008ZM155.435 81.1682C155.049 80.7522 154.578 80.6521 153.926 80.8594C153.16 81.1033 153.072 81.4192 153.562 81.8126C153.742 81.3529 153.818 80.8608 155.432 81.1682H155.435ZM202.113 100.216C201.101 100.016 200.205 99.6379 199.246 100.16C200.117 100.571 201.078 100.25 202.113 100.216ZM148.787 96.0226C149.316 96.3906 149.075 96.7854 149.882 96.9292C150.176 96.9814 150.183 96.7586 150.227 96.6726C150.433 96.2947 149.885 96.1453 148.784 96.0226H148.787ZM198.645 87.9983C198.066 87.9306 198.101 88.1223 197.857 88.1646C197.326 88.2591 196.475 88.4029 196.864 88.668C197.275 88.9486 197.848 88.5002 198.471 88.4805C199.012 88.4636 198.205 88.1576 198.645 87.9983Z" fill="#547436"/>
<path d="M26.6278 73.1712C29.7812 73.2839 32.5013 74.5488 34.8695 76.5151C39.4041 80.2823 42.2037 85.0369 42.8343 90.9748C43.0259 92.776 42.7656 94.5106 42.2375 96.2138C42.0243 96.9007 41.7247 97.586 40.8285 97.6428C39.912 97.702 39.616 97.0623 39.3357 96.3624C37.3814 91.4924 34.1673 87.8153 29.3184 85.5971C25.5881 83.8885 23.5244 80.8568 22.8111 76.8702C22.3573 74.3262 23.166 73.3143 25.7648 73.1566C26.051 73.1393 26.3392 73.1653 26.6278 73.1712ZM28.6824 74.7912C32.7315 76.5841 36.0436 79.2724 38.7393 82.7431C36.506 78.6797 33.1322 76.045 28.6824 74.7912Z" fill="#3C5623"/>
<path d="M18.3886 82.1467C18.3756 80.7898 18.6504 79.4819 19.1063 78.2122C19.2898 77.7003 19.5504 77.2389 20.2193 77.2841C20.7988 77.3218 21.0568 77.7015 21.1766 78.1993C22.3101 82.9664 25.4521 85.9305 29.7589 87.9706C34.1172 90.0348 36.4921 93.8073 38.0262 98.1849C38.6186 99.8704 37.8017 101.147 36.0152 101.396C34.1159 101.66 32.299 101.272 30.5321 100.557C23.7049 97.7943 18.2254 89.4972 18.3886 82.1467ZM22.6272 91.6977C24.9169 95.9725 28.3935 98.8052 33.0993 100.107C28.8701 98.2215 25.3368 95.4798 22.6272 91.6977Z" fill="#3C5623"/>
<path d="M285.002 50.1519C282.733 50.9121 280.465 50.7392 278.261 49.9746C274.038 48.509 270.784 45.8802 268.754 41.8336C268.138 40.6061 267.861 39.3056 267.782 37.956C267.75 37.4116 267.78 36.8453 268.401 36.5663C269.036 36.28 269.416 36.6552 269.802 37.0772C272.487 40.0132 275.748 41.7667 279.781 42.0491C282.884 42.2679 285.156 43.8698 286.725 46.5094C287.725 48.1941 287.42 49.1279 285.618 49.9323C285.419 50.0208 285.208 50.0791 285.002 50.1519ZM283.111 49.5495C279.76 49.3559 276.692 48.3304 273.854 46.5852C276.522 48.8742 279.619 49.8453 283.111 49.5495Z" fill="#324D18" fill-opacity="0.5"/>
<path d="M288.457 41.5855C288.828 42.5452 288.982 43.5468 288.996 44.5695C289.003 44.9817 288.941 45.3786 288.454 45.5248C288.032 45.6525 287.748 45.4517 287.53 45.1303C285.456 42.0487 282.436 40.782 278.835 40.4816C275.191 40.1778 272.501 38.133 270.245 35.4346C269.376 34.3961 269.615 33.2721 270.817 32.6193C272.095 31.9258 273.488 31.7172 274.932 31.7543C280.514 31.8957 286.615 36.3248 288.457 41.5855ZM282.904 35.9358C280.14 33.5117 276.917 32.4275 273.23 32.7572C276.734 32.9689 279.973 33.9733 282.904 35.9358Z" fill="#324D18" fill-opacity="0.5"/>
<path d="M378.652 191.878C380.474 193.428 381.497 195.459 381.98 197.743C382.904 202.115 382.333 206.259 379.915 210.087C379.182 211.248 378.211 212.157 377.096 212.921C376.646 213.23 376.146 213.496 375.586 213.108C375.013 212.713 375.138 212.193 375.301 211.645C376.429 207.83 376.247 204.132 374.407 200.532C372.993 197.761 373.192 194.988 374.643 192.282C375.569 190.556 376.526 190.335 378.146 191.463C378.324 191.588 378.483 191.739 378.652 191.878ZM379.112 193.807C380.676 196.778 381.381 199.934 381.352 203.266C381.935 199.799 381.168 196.646 379.112 193.807Z" fill="#324D18" fill-opacity="0.5"/>
<path d="M369.53 193.339C370.161 192.526 370.939 191.878 371.808 191.337C372.157 191.119 372.529 190.968 372.906 191.309C373.233 191.604 373.208 191.951 373.045 192.304C371.477 195.671 371.951 198.912 373.552 202.15C375.173 205.428 374.811 208.788 373.664 212.113C373.223 213.393 372.137 213.768 370.958 213.076C369.704 212.34 368.806 211.255 368.092 209.998C365.332 205.144 365.976 197.633 369.53 193.339ZM367.558 201.012C366.909 204.631 367.644 207.951 369.83 210.938C368.202 207.828 367.391 204.536 367.558 201.012Z" fill="#324D18" fill-opacity="0.5"/>
<path d="M40.2868 393.892C42.1089 395.443 43.1314 397.474 43.6147 399.757C44.5393 404.13 43.9677 408.274 41.5498 412.102C40.8165 413.263 39.8459 414.172 38.7308 414.936C38.2809 415.244 37.7804 415.511 37.2208 415.123C36.648 414.727 36.7729 414.208 36.9354 413.66C38.0639 409.845 37.8822 406.146 36.0422 402.547C34.6277 399.776 34.8266 397.003 36.2775 394.297C37.2042 392.571 38.161 392.349 39.7805 393.478C39.9588 393.602 40.1179 393.753 40.2868 393.892ZM40.7466 395.822C42.311 398.793 43.016 401.949 42.9865 405.281C43.5697 401.814 42.8028 398.661 40.7466 395.822Z" fill="#324D18" fill-opacity="0.5"/>
<path d="M31.165 395.354C31.7955 394.541 32.574 393.893 33.4423 393.352C33.7922 393.134 34.1642 392.982 34.5406 393.324C34.8676 393.619 34.8424 393.966 34.6795 394.318C33.1113 397.686 33.5854 400.926 35.1868 404.165C36.8075 407.442 36.4453 410.803 35.2985 414.127C34.858 415.408 33.7717 415.783 32.5923 415.091C31.3387 414.355 30.441 413.269 29.7269 412.013C26.9664 407.159 27.6107 399.648 31.165 395.354ZM29.1931 403.027C28.544 406.646 29.2789 409.965 31.4647 412.953C29.8369 409.842 29.0254 406.55 29.1931 403.027Z" fill="#324D18" fill-opacity="0.5"/>
<path d="M119.435 25.578C119.632 23.766 120.474 22.2519 121.706 20.9699C124.066 18.5152 126.922 17.1013 130.369 16.9866C131.415 16.9516 132.404 17.1741 133.363 17.5497C133.749 17.7012 134.132 17.9026 134.127 18.4212C134.123 18.9516 133.742 19.0954 133.327 19.2276C130.439 20.1496 128.187 21.8474 126.706 24.548C125.565 26.6255 123.732 27.6874 121.406 27.9315C119.921 28.0865 119.372 27.5782 119.39 26.0745C119.392 25.9089 119.419 25.744 119.435 25.578ZM120.454 24.4621C121.656 22.2045 123.344 20.4089 125.456 19.0012C123.021 20.1177 121.362 21.9511 120.454 24.4621Z" fill="#324D18" fill-opacity="0.5"/>
<path d="M124.261 30.7004C123.479 30.6511 122.737 30.4381 122.025 30.1223C121.737 29.9951 121.482 29.8257 121.537 29.4423C121.582 29.11 121.812 28.9772 122.104 28.929C124.898 28.4755 126.737 26.7896 128.092 24.3938C129.464 21.9694 131.736 20.7591 134.323 20.0586C135.318 19.7878 136.02 20.3119 136.088 21.3515C136.161 22.4567 135.861 23.4871 135.375 24.4751C133.498 28.2926 128.489 31.102 124.261 30.7004ZM129.941 28.6583C132.499 27.5182 134.277 25.6339 135.224 22.9774C133.96 25.3348 132.233 27.2556 129.941 28.6583Z" fill="#324D18" fill-opacity="0.5"/>
</svg>
