<svg width="407" height="1725" viewBox="0 0 407 1725" fill="none" xmlns="http://www.w3.org/2000/svg">
<path fill-rule="evenodd" clip-rule="evenodd" d="M407 76.1384C349.129 28.8279 272.301 0 188 0C117.986 0 53.125 19.8849 0 53.7279V389.801H407V76.1384Z" fill="#455F2D"/>
<path d="M52.6932 74.0544C56.9668 74.2072 60.6532 75.9213 63.8625 78.5861C70.008 83.6915 73.8022 90.1351 74.6567 98.1823C74.9164 100.623 74.5637 102.974 73.8479 105.282C73.5591 106.213 73.1529 107.142 71.9384 107.219C70.6964 107.299 70.2953 106.432 69.9153 105.484C67.2669 98.8837 62.911 93.9004 56.3396 90.8944C51.2842 88.5787 48.4875 84.4701 47.5208 79.0674C46.9058 75.6197 48.0017 74.2483 51.5237 74.0346C51.9115 74.0112 52.3021 74.0464 52.6932 74.0544ZM55.4777 76.2499C60.9652 78.6797 65.4538 82.3228 69.1071 87.0265C66.0804 81.5197 61.5082 77.949 55.4777 76.2499Z" fill="#3C5623"/>
<path d="M41.5266 86.2183C41.509 84.3793 41.8814 82.6068 42.4992 80.886C42.748 80.1923 43.1011 79.5671 44.0076 79.6284C44.7931 79.6794 45.1426 80.1939 45.3051 80.8686C46.8412 87.3291 51.0992 91.3462 56.936 94.111C62.8425 96.9084 66.061 102.021 68.14 107.954C68.9429 110.238 67.8357 111.968 65.4147 112.306C62.8407 112.664 60.3784 112.137 57.9838 111.168C48.7315 107.424 41.3055 96.1799 41.5266 86.2183ZM47.2709 99.162C50.3739 104.955 55.0855 108.794 61.4629 110.559C55.7315 108.003 50.943 104.288 47.2709 99.162Z" fill="#3C5623"/>
<path d="M349.287 73.4651C345.55 74.7178 341.813 74.4328 338.18 73.173C331.223 70.7581 325.861 66.4266 322.516 59.7589C321.501 57.7364 321.044 55.5936 320.914 53.3697C320.862 52.4727 320.911 51.5397 321.935 51.0799C322.98 50.6082 323.607 51.2264 324.243 51.9218C328.666 56.7594 334.04 59.6488 340.685 60.1139C345.798 60.4745 349.542 63.114 352.127 67.4632C353.775 70.2393 353.273 71.7778 350.303 73.1033C349.976 73.2491 349.627 73.3452 349.287 73.4651ZM346.173 72.4725C340.65 72.1535 335.596 70.4637 330.92 67.5882C335.316 71.3599 340.418 72.96 346.173 72.4725Z" fill="#324D18" fill-opacity="0.5"/>
<path d="M354.981 59.3504C355.592 60.9317 355.845 62.582 355.869 64.2671C355.879 64.9464 355.777 65.6003 354.975 65.8412C354.28 66.0516 353.812 65.7208 353.453 65.1912C350.035 60.1136 345.059 58.0264 339.126 57.5315C333.122 57.0309 328.689 53.6616 324.972 49.2154C323.54 47.5042 323.934 45.6523 325.914 44.5767C328.02 43.434 330.315 43.0903 332.696 43.1513C341.893 43.3843 351.944 50.6822 354.981 59.3504ZM345.83 50.0413C341.276 46.0471 335.966 44.2606 329.891 44.8039C335.665 45.1526 341.001 46.8077 345.83 50.0413Z" fill="#324D18" fill-opacity="0.5"/>
<path d="M195.963 30.6104C196.407 26.5221 198.308 23.1058 201.088 20.2133C206.413 14.6748 212.857 11.4847 220.635 11.2258C222.995 11.1468 225.225 11.649 227.389 12.4963C228.261 12.8382 229.124 13.2925 229.113 14.4627C229.103 15.6595 228.244 15.9839 227.308 16.2822C220.793 18.3625 215.71 22.1931 212.369 28.2864C209.796 32.9738 205.66 35.37 200.411 35.9207C197.061 36.2703 195.822 35.1236 195.863 31.7307C195.867 31.3571 195.928 30.985 195.963 30.6104ZM198.263 28.0927C200.976 22.9988 204.783 18.9475 209.549 15.7713C204.056 18.2905 200.313 22.4271 198.263 28.0927Z" fill="#324D18" fill-opacity="0.5"/>
<path d="M206.853 42.1678C205.088 42.0565 203.414 41.5759 201.807 40.8634C201.159 40.5764 200.583 40.1942 200.705 39.329C200.809 38.5793 201.327 38.2798 201.985 38.1711C208.289 37.1479 212.438 33.3438 215.497 27.9383C218.591 22.4681 223.719 19.7373 229.554 18.1567C231.801 17.5459 233.384 18.7283 233.539 21.0739C233.703 23.5676 233.026 25.8926 231.929 28.1217C227.694 36.7351 216.392 43.074 206.853 42.1678ZM219.668 37.5602C225.441 34.9877 229.451 30.7362 231.588 24.7424C228.737 30.0615 224.84 34.3953 219.668 37.5602Z" fill="#324D18" fill-opacity="0.5"/>
<rect y="386" width="407" height="1339" fill="#455F2D"/>
<path d="M190.747 96.129C190.094 96.4919 189.512 96.8754 188.559 97.1142C187.083 97.4845 188.992 98.0767 187.998 98.5467C186.829 98.887 188.197 97.5391 186.692 98.026C185.777 97.3341 184.879 97.8549 183.976 98.0335C183.897 98.0335 183.814 98.0335 183.735 98.0391C182.612 97.8869 182.637 97.2928 181.702 97.0202C181.015 97.0315 181.864 97.6406 180.97 97.5447C179.681 97.4056 179.66 97.8455 179.331 98.1726C178.924 98.5787 178.566 98.9641 177.323 98.5242C177.023 98.4189 176.166 98.5411 175.68 98.6577C174.615 98.9096 175.771 98.9904 175.954 99.1352C176.075 99.2311 176.079 99.2762 175.929 99.3589C175.422 99.6428 175.102 98.9735 174.491 99.3251C173.858 99.686 175.788 99.8289 174.827 100.028C173.85 100.229 172.748 99.9135 171.817 99.7199C170.436 99.4322 172.095 99.1747 172.062 98.8851C170.922 98.7799 169.363 99.4191 168.905 98.4527C168.723 98.4715 168.494 98.4791 168.49 98.4979C168.232 99.8045 166.219 99.1953 164.822 99.1596C163.179 99.1183 161.823 99.5469 161.732 100.288C161.694 100.573 161.89 100.906 161.121 100.985C160.164 101.085 160.63 100.658 160.384 100.489C159.89 100.147 159.407 100.487 158.995 100.556C158.168 100.697 157.507 100.814 157.44 100.243C157.44 100.211 157.44 100.175 157.407 100.15C156.345 99.3307 156.916 98.7059 159.12 98.276C157.819 98.2948 157.282 98.0109 156.592 97.8511C155.885 97.6857 155.976 97.4507 156.326 97.2382C156.825 96.9318 157.078 97.2853 157.461 97.3529C157.898 97.43 157.868 97.9075 158.663 97.65C159.187 97.4789 159.12 97.1349 158.946 96.9939C157.873 96.1196 159.262 95.8038 160.472 95.4203C160.622 95.4748 160.809 95.5143 160.804 95.5462C160.734 95.9222 161.054 96.2174 161.732 96.4148C162.177 96.5445 162.618 96.3189 162.676 96.2306C162.963 95.8094 164.452 95.5256 163.645 95.0067C162.821 94.4784 162.896 94.1889 164.023 93.7527C164.605 93.5271 164.522 92.9481 164.747 92.5176C165.312 92.4856 165.055 92.965 165.687 92.8616C166.269 92.7657 165.915 92.527 165.87 92.3766C165.683 91.8107 167.741 91.429 166.481 90.7898C166.477 90.7879 166.548 90.7391 166.589 90.7372C168.822 90.568 168.727 89.581 169.708 88.9662C170.652 88.374 170.835 88.2988 169.895 87.7799C169.675 87.6596 169.475 87.4942 169.088 87.5713C168.619 87.6653 168.07 87.622 168.095 87.4434C168.157 87.0185 169.205 87.387 169.658 87.1389C169.8 87.0618 170.673 87.0261 170.744 87.3532C170.789 87.5656 169.895 87.8946 171.214 87.9059C172.074 87.9134 172.79 87.654 172.648 87.3908C172.291 86.7065 174.362 86.4809 173.888 85.8266C173.871 85.804 173.954 85.7439 173.967 85.7458C175.971 85.9883 175.659 84.8584 176.994 84.7024C177.293 85.2946 178.2 84.9656 178.745 84.8828C180.812 84.5708 181.452 83.7624 181.922 82.8882C180.575 82.7077 179.834 82.7848 179.377 83.4954C179.057 83.9955 178.911 84.8076 176.927 84.7343C177.397 84.1854 176.05 84.4053 175.609 84.112C176.948 83.8225 178.633 83.659 178.308 82.7566C179.926 82.7077 180.242 82.0666 180.995 81.5985C181.706 81.1529 181.356 80.7055 181.136 80.2994C180.945 79.9459 179.98 80.2787 179.909 80.8314C179.884 81.0138 179.909 81.1961 179.909 81.3917C179.177 81.3465 179.814 80.9442 179.215 80.9273C178.341 80.8991 179.119 81.2714 178.878 81.2958C177.564 81.4236 178.554 82.4576 176.72 82.39C176.458 82.3806 176.507 82.6532 176.769 82.781C177.302 83.0386 176.287 83.1363 176.487 83.3563C174.981 82.9352 173.472 84.1271 171.983 83.3563C171.721 83.2209 171.363 83.2848 171.263 83.3168C169.384 83.8977 168.947 83.0668 168.315 82.6419C167.72 82.2414 167.313 82.1775 166.602 82.5084C166.152 82.719 165.82 82.9164 165.242 82.5178C164.992 82.343 164.335 82.4351 164.131 82.7039C163.702 83.2692 162.946 83.4033 161.865 83.1062C161.753 83.0762 161.607 83.0574 161.478 83.0574C161.349 83.0574 161.22 83.0893 160.963 83.125C161.133 83.4785 161.857 83.6044 162.397 83.8733C161.628 84.1271 161.145 84.8941 159.902 84.0556C159.312 84.3433 157.893 84.1666 157.898 84.7738C157.898 84.9562 157.885 85.0558 157.415 85.0878C155.012 85.2476 153.19 85.9544 151.123 86.4433C148.27 87.1163 145.297 87.6878 142.365 88.2951C142.207 88.327 141.974 88.2932 141.775 88.2819C141.367 88.2593 142.111 87.4002 140.847 88.0131C140.253 88.3007 138.718 88.3947 139.683 89.0489L139.72 89.0264C138.647 89.0057 136.946 89.4268 137.549 88.3251C135.557 88.3891 136.705 89.9344 134.202 89.5866C134.119 89.9626 135.067 89.8893 135.15 90.1431C135.179 90.2315 135.187 90.3405 135.092 90.4063C135.029 90.4477 134.659 90.4627 134.597 90.427C134.214 90.2089 133.482 90.2747 133.208 90.1751C130.846 89.3046 130.975 90.1111 130.95 90.8255C130.937 91.1395 130.318 91.0982 129.947 91.2034L129.964 91.2204C129.315 90.9891 129.27 90.3931 127.777 90.6639C127.036 90.7992 126.388 90.0566 126.508 89.9889C127.294 89.5603 126.65 89.0057 127.502 88.5131C128.346 88.0243 128.151 87.0787 127.186 86.5241C126.067 85.883 126.542 85.7119 128.417 85.507C126.791 85.4713 125.726 85.4337 126.425 84.661C126.762 84.2888 126.159 83.8432 125.81 83.454C125.656 83.2792 125.144 83.0931 124.97 83.377C124.662 83.8789 122.907 83.595 122.907 84.2643C122.907 84.4824 122.104 84.3922 121.688 84.2606C121.194 84.1064 121.144 83.8883 121.514 83.6984C121.772 83.565 122.179 83.4898 122.533 83.3958C124.495 82.8712 124.795 81.9707 123.672 81.0213C122.815 80.2975 123.51 79.3819 122.657 78.6187C122.533 78.5077 122.724 78.3385 123.052 78.3686C124.633 78.5096 123.31 77.9419 123.743 77.8084C122.928 77.3835 121.676 76.9248 124.188 76.78C124.346 76.7706 124.466 76.5507 124.134 76.4773C122.857 76.1916 122.994 75.6294 123.011 75.0673C122.124 75.3443 121.12 75.2798 120 74.8737C121.189 74.6086 121.206 74.5804 122.499 74.7477C123.235 74.8436 123.967 74.962 124.533 74.6951C125.202 74.3792 124.649 74.0766 124.246 73.787C124.08 73.6686 124.367 73.4693 123.772 73.3415C123.726 74.2608 121.971 73.7062 121.09 73.992C120.857 74.0672 120.528 73.8434 120.553 73.6742C120.57 73.5614 120.74 73.3509 120.798 73.3546C123.219 73.4806 121.164 72.9749 121.139 72.8C121.119 72.6572 120.811 72.4955 121.123 72.377C121.58 72.2022 121.909 72.4052 122.117 72.5387C122.67 72.894 123.011 73.1967 124.142 72.7512C124.612 72.5669 125.261 72.8978 125.049 73.3189C124.87 73.6705 124.99 73.6874 125.689 73.5295C126.159 73.4223 126.3 73.537 126.359 73.7137C126.471 74.0296 126.87 74.0803 127.352 73.8942C127.822 73.7118 127.473 73.5859 127.09 73.4674C126.754 73.3622 126.3 73.2437 126.196 73.0914C126.001 72.8057 124.504 72.6609 125.51 72.2924C126.171 72.0518 127.253 71.9634 128.113 72.2924C128.242 72.3413 128.267 72.4767 128.517 72.377C128.662 72.3188 128.908 72.2097 128.87 72.174C128.65 71.9597 128.43 71.7322 128.08 71.563C127.199 71.1344 126.887 70.7038 127.868 70.1492C128.213 70.5628 129.012 70.717 130.018 71.0065C129.752 70.4876 130.155 70.1511 130.812 69.9293C132.052 69.51 132.601 69.1265 130.763 68.696C131.507 68.4535 133.046 68.5851 132.326 67.8669C132.206 67.7485 132.588 67.5774 133.108 67.5417C134.43 67.4514 135.2 66.9401 135.092 66.3385C134.954 65.5714 136.722 65.547 137.695 64.9867C135.075 65.6391 136.011 64.4641 135.187 64.1802C135.075 64.1407 135.358 63.6858 135.703 63.8023C136.472 64.0618 138.107 63.5673 138.078 64.214C138.053 64.6972 138.73 65.077 138.547 65.5319C138.46 65.7519 138.527 65.9343 139.096 65.8929C139.471 65.8666 139.803 65.7538 139.749 65.5C139.708 65.3044 139.333 64.9548 140.132 64.9454C140.764 64.9378 141.425 65.0394 141.172 65.5357C140.943 65.9813 141.92 66.1561 142.689 66.3347C143.147 65.6184 143.263 64.9623 142.062 64.3682C141.612 64.1464 141.587 63.8042 141.779 63.5297C141.849 63.4301 142.544 63.3417 142.91 63.3718C145.501 63.5824 147.231 63.2928 148.37 62.3867C148.582 62.2194 149.135 62.0502 148.778 61.8133C148.013 61.3094 149.11 61.1609 149.639 61.0857C150.154 61.0124 151.148 60.8338 151.364 61.3978C151.489 61.7249 152.396 62.0802 150.886 62.2156C150.433 62.257 149.975 62.398 150.188 62.6856C150.508 63.1274 151.248 63.1932 152.134 63.1218C152.238 63.3868 151.851 63.4451 151.431 63.5748C150.849 63.7572 150.566 64.152 151.344 64.34C152.799 64.6897 151.872 65.1578 151.46 65.3909C151.169 65.5545 150.799 65.6917 151.003 65.8572C151.111 65.9455 151.759 65.8797 152.142 65.923C153.028 66.0226 153.078 65.5169 153.781 65.483V65.9474L153.818 65.923C153.502 66.3065 152.009 66.3497 152.466 66.9795C152.828 67.4721 152.188 67.8387 151.281 68.1057C150.753 68.3783 149.959 68.5475 149.705 68.9272C147.954 69.7563 149.164 70.5233 150.15 71.3054C148.782 71.0968 147.613 70.8975 147.214 70.2413C146.424 70.5497 147.01 70.9088 146.624 71.1682C145.792 71.2716 145.131 70.8147 144.261 71.0103C143.995 71.014 143.571 70.7865 143.509 71.0309C143.455 71.2434 144.024 71.0911 144.286 71.1438C144.295 71.5386 145.264 72.0236 143.767 72.2793C143.925 72.4372 143.372 72.6064 143.879 72.7756C144.419 72.9561 144.623 73.3528 144.453 73.5314C143.33 74.7026 145.031 74.7872 146.815 74.8812C147.676 74.9263 148.299 75.6501 147.992 76.0261C147.759 76.3119 147.426 76.7311 148.823 76.6823C149.385 76.6635 149.984 76.7537 150.541 76.8308C150.957 76.8891 150.957 77.0639 150.803 77.2181C150.682 77.3365 150.454 77.4249 150.183 77.2951C148.757 76.6033 149.227 77.7952 148.374 77.6655C148.399 78.1393 149.239 77.9325 149.747 78.002C150.645 78.1261 152.475 77.6674 151.947 78.7239C151.917 78.7785 153.232 78.8743 153.232 78.7503C153.232 77.6147 154.862 78.4438 155.76 78.2953C155.718 77.9625 153.656 78.0265 154.891 77.3666C155.348 77.1222 154.375 76.9549 153.751 77.1617C153.198 77.344 152.791 77.391 152.471 77.0601C152.055 76.6296 152.679 76.6917 153.265 76.6917C153.627 76.6917 153.893 76.5939 153.951 76.4059C154.142 75.7893 154.147 75.7911 155.373 76.1389C156.13 75.8193 154.113 75.3644 155.552 75.1369C156.251 75.026 157.112 75.4302 158.243 75.1294C158.031 75.652 156.746 75.5693 156.854 75.9679C157.124 76.1032 157.453 76.0901 157.785 76.0318C158.937 75.825 159.045 76.0412 158.451 76.4097C158.047 76.6616 158.451 76.9605 158.047 77.188C158.592 77.1974 159.079 77.0789 159.553 77.0301C160.472 76.9379 162.052 76.3946 162.169 77.4907C162.223 77.9719 163.266 77.8892 164.202 77.9268C162.397 76.592 165.304 76.1389 166.198 75.2027C166.556 75.6464 166.593 76.0863 167.749 75.8513C168.386 75.7216 169.018 75.5505 168.564 75.1594C168.057 74.7233 167.442 74.9056 166.689 75.3418C166.793 74.7609 166.868 74.2533 167.932 74.6199C169.23 75.0654 169.113 74.2288 169.974 74.3078C170.852 74.3868 170.881 74.3247 171.114 73.5445C172.112 74.1856 172.902 74.8304 174.665 74.9545C175.148 74.9884 174.948 75.2685 174.994 75.4396C175.094 75.8156 175.501 75.8964 176.279 75.7949C177.273 75.6652 176.961 75.4546 176.599 75.1839C176.258 74.9263 175.738 74.5296 176.661 74.4244C177.14 74.3698 178.054 73.6686 178.624 74.4544C178.786 74.6763 179.319 74.3886 179.456 74.4375C179.984 74.6274 181.315 74.2533 181.157 74.9658C181.094 75.2534 181.976 75.4095 182.309 75.1444C182.816 74.744 184.134 74.8474 184.426 74.3398C184.467 74.2664 185.207 73.7532 186.018 74.3623C186.659 74.8417 188.58 74.4845 189.736 74.8737C189.857 74.915 190.551 74.6161 189.828 74.4244C189.008 74.2063 189.171 73.8754 189.22 73.569C189.819 73.364 189.994 74.039 190.555 73.6667C190.801 73.5032 191.108 73.2531 190.722 73.0708C190.248 72.8489 189.882 73.0181 189.353 73.161C188.592 73.3659 187.594 73.4073 186.679 73.4618C186.442 73.475 185.852 73.74 185.769 73.3734C185.727 73.1742 185.532 72.9128 186.255 72.8489C188.792 72.629 189.266 71.8055 189.229 70.8091C189.22 70.591 188.684 70.2752 189.466 70.1643C190.085 70.0759 190.11 70.5139 190.668 70.5741C190.955 70.6042 191.108 70.7132 191.083 70.8561L191.138 70.8279C190.797 70.9633 189.927 71.1099 190.102 71.172C191.154 71.5423 190.418 72.3037 191.703 72.5857C192.057 72.1702 193.741 72.3564 193.612 71.7303C193.55 71.4333 194.294 71.2566 194.41 71.3111C195.205 71.6871 196.581 71.3318 197.118 71.7115C197.463 71.9559 196.797 72.1608 196.036 72.189C195.575 72.2078 194.897 72.3225 195.309 72.6684C195.887 73.1516 195.962 72.5237 196.099 72.5726C197.787 73.1836 197.954 71.5122 199.592 72.1044C199.634 71.9916 199.787 71.8488 199.692 71.7698C199.546 71.6476 199.625 71.3374 199.006 71.4652C198.473 71.5743 198.232 71.5442 198.253 71.2735C198.265 71.1287 198.735 71.0216 198.76 71.0479C199.309 71.6683 200.307 70.4876 200.731 71.1475C200.848 71.3299 200.948 71.3036 201.239 71.2885C201.563 71.2716 202.004 71.3111 201.917 71.0874C201.692 70.5215 202.836 70.3071 203.202 69.8954C203.202 71.1663 204.849 71.5705 207.281 71.5968C207.543 71.5987 208.101 71.5028 207.726 71.798C207.602 71.8976 207.473 72.048 207.281 72.0744C206.337 72.206 206.325 72.1984 206.5 72.6835C205.364 72.7248 205.705 73.4449 204.541 73.4731C205.647 73.5558 206.716 73.9901 207.718 73.396C207.298 73.1817 205.93 73.2475 206.529 72.6966C207.107 73.2249 207.805 72.958 208.059 72.6572C208.396 72.2586 208.749 71.8544 208.778 71.3919C208.828 70.5816 209.835 70.3184 211.598 70.5666C211.885 70.3429 211.149 70.309 211.294 70.0665C212.979 70.3767 214.721 70.5158 216.085 69.745C216.052 69.7337 215.89 69.6886 215.744 69.636C215.062 69.3841 213.948 69.1791 214.38 68.6922C214.867 68.1433 215.99 68.4347 216.705 68.5832C217.657 68.7806 217.952 68.4629 218.422 68.2767C218.842 68.1094 219.237 68.0041 219.603 68.2579C219.99 68.5287 219.458 68.7355 219.054 68.7261C218.094 68.7054 218.085 69.5157 216.834 69.2167C217.699 69.589 218.485 70.0082 219.445 70.3222C220.319 70.608 221.163 70.7019 221.504 69.9763C221.683 69.5984 221.333 68.7749 223.379 69.0513C223.716 69.0964 223.995 68.8783 223.891 68.7204C223.558 68.2279 222.889 68.9329 222.373 68.5869C223.043 68.3689 221.995 67.7071 223.296 67.6733C225.084 67.6263 224.377 68.3576 224.511 69.0043C225.126 68.4704 225.513 68.1245 225.92 67.7804C226.112 67.6187 226.478 67.583 226.814 67.6338C227.417 67.7259 226.918 67.8406 226.831 67.9628C226.569 68.3275 226.972 68.1395 227.33 68.0925C228.233 67.9684 229.31 67.7992 228.657 68.5738C228.557 68.6941 228.457 68.8501 228.798 68.8877C230.566 69.0776 231.905 69.9349 233.942 69.6416C234.974 69.4931 235.256 69.745 235.672 70.1831C235.826 69.3634 236.08 69.2337 237.639 69.6717C238.883 70.0195 240.817 69.9969 242.397 69.9274C243.827 69.8653 245.004 70.294 245.158 70.5779C245.424 71.0761 247.591 71.6232 245.474 72.2285C245.441 72.2379 244.118 72.7023 245.778 72.5914C246.023 72.5744 245.678 72.8978 245.433 72.9091C245.054 72.926 244.418 73.0557 244.318 72.738C244.252 72.5293 244.272 72.2906 244.43 72.095C244.859 71.5705 244.405 70.9764 243.611 70.8899C242.917 70.8129 241.96 71.3844 241.736 71.8187C241.444 72.3846 241.765 72.9993 242.468 73.4618C242.809 73.6874 243.881 73.8754 244.717 73.5013C245.824 73.005 246.551 73.5107 246.493 73.834C246.389 74.4356 246.464 74.8342 248.019 74.7834C249.625 74.7289 248.955 74.0972 249.134 73.7175C249.783 73.6216 249.936 73.7927 250.099 73.975C250.535 74.4808 251.005 74.304 251.521 73.9938C252.423 73.4524 253.359 72.9222 254.278 72.3864C255.018 73.1102 256.682 73.0407 258 73.27L257.954 73.2437C257.676 73.7494 256.041 73.9111 256.332 74.5597C256.324 74.7458 256.316 74.9338 256.303 75.12C256.453 76.0092 255.875 76.2254 253.966 75.9359C253.309 75.8363 252.71 75.5975 252.203 75.9942C251.841 76.2762 251.296 76.5225 252.261 76.8665C252.827 77.0677 252.432 77.5414 252.465 77.8704C253.218 77.9813 253.243 77.564 253.717 77.5884C254.881 77.6467 255.23 77.5151 254.665 76.9906C254.44 76.7838 254.444 76.4811 254.997 76.3175C255.172 76.2668 255.659 76.2856 255.742 76.3476C256.02 76.5507 256.332 76.7631 256.262 77.0301C256.183 77.3233 252.465 79.0059 252.145 78.8706C251.172 78.4626 249.18 78.8048 248.909 77.9682C248.768 77.5283 248.161 77.4286 247.462 77.5865C246.506 77.8027 246.036 77.6448 245.391 77.329C244.547 76.9173 243.507 77.2839 242.68 77.4211C242.176 77.5038 242.322 78.0265 241.511 78.1468C243.22 78.4043 242.043 78.8762 241.91 79.2673C241.848 79.4477 241.761 79.694 241.212 79.6132C240.97 79.5775 240.879 79.3387 240.592 79.0736C240.234 80.0456 238.051 80.0042 236.978 80.6321C236.471 80.9292 234.105 80.5099 232.553 80.6039C231.493 80.6679 230.499 80.7901 229.676 81.1097C229.301 81.2544 229.447 81.2958 229.884 81.3936C230.536 81.5421 229.809 81.7846 229.692 81.747C228.095 81.2187 226.856 81.9106 225.504 82.0252C223.903 82.1606 221.82 82.2076 220.818 82.6306C218.755 83.501 216.098 83.1871 213.844 83.7003C211.211 84.3 208.309 84.9054 205.081 84.911C203.896 84.9129 201.983 84.4147 201.497 85.4788C200.316 85.2363 199.305 85.648 198.232 85.6518C197.055 85.6555 196.074 85.8604 195.404 86.18C194.726 86.5053 194.352 86.244 193.828 86.1838C194.136 86.823 191.765 87.9529 189.79 87.9623C188.775 87.9679 188.181 88.0037 187.665 88.4116C187.278 88.7143 186.467 88.6974 185.781 88.6485C185.132 88.6015 184.571 88.6353 184.65 88.9775C184.717 89.2651 185.17 89.4907 185.935 89.4155C186.58 89.3516 187.353 89.3328 187.819 89.1561C190.971 87.9623 194.997 87.7367 198.623 87.0693C199.588 86.8907 199.022 87.4829 199.754 87.3795C199.925 87.3551 199.505 87.6089 199.309 87.6502C198.182 87.8909 196.581 87.8777 196.881 88.7839C196.935 88.9474 196.444 89.2257 195.754 89.2463C195.458 89.2539 194.876 89.2915 195.08 89.4889C195.932 90.3142 194.593 90.2935 193.475 90.442C192.344 90.5924 191.304 90.9158 190.164 91.0098C188.859 91.117 189.545 91.6527 188.996 91.946C188.563 92.1754 189.736 91.9987 190.16 92.0664C190.876 92.1792 191.1 92.5082 191.807 92.7074C191.965 92.4348 192.115 92.1904 192.244 91.9442C192.418 91.6039 193.313 91.4196 193.687 91.6809C194.352 92.1434 195.558 91.9987 196.386 92.2675C196.619 92.3427 197.259 92.2957 197.5 92.1998C197.816 92.0739 197.188 91.8614 197.197 91.8539C197.762 91.4911 196.735 91.0756 197.371 90.7334C197.82 90.4909 198.245 90.3668 198.527 90.8199C198.602 90.9402 199.081 91.0098 199.376 91.1019C199.426 90.9515 199.476 90.8011 199.559 90.5417C200.049 91.3707 200.865 91.085 201.517 90.7409C202.066 90.4495 202.607 90.2653 203.439 90.4138C203.929 90.5022 204.374 90.7992 203.726 90.8688C201.559 91.1 204.142 91.5794 202.894 91.8859C204.391 91.8464 204.624 91.1414 206.258 91.4422C207.888 91.743 206.89 90.7297 207.531 90.4138L207.502 90.4401C208.242 90.3123 209.544 90.5699 209.406 89.8404C209.361 89.5866 209.843 89.7389 210.113 89.7201C211.053 89.6599 210.583 90.0698 210.937 90.2014C211.215 90.3217 211.748 90.4608 210.928 90.5529C210.255 90.6281 209.739 90.6056 210.563 91.0004C211.082 91.2485 211.157 91.6546 212.176 91.3313C213.96 90.7635 214.322 90.8406 215.141 91.8784C215.266 92.0382 215.653 92.1566 215.915 92.292C215.149 91.9329 216.996 91.1903 215.054 91.0305C215.969 90.5868 215.615 90.2709 214.43 90.3668C213.157 90.4683 212.064 90.2709 210.887 90.2183C211.195 89.8291 214.181 89.7934 211.644 89.0132C211.286 88.9023 211.602 88.6523 212.018 88.5658C212.546 88.4549 212.816 88.6466 212.916 88.8215C213.157 89.2369 213.403 89.6393 214.621 90.0322C213.856 89.393 213.898 88.8591 213.715 88.3402C213.661 88.1898 213.411 88.0262 213.81 87.9379C214.284 87.8345 214.634 87.9886 214.759 88.1747C215.046 88.6071 215.382 89.0452 215.445 89.487C215.474 89.7088 215.524 89.9983 215.761 90.0735C216.268 90.2315 216.135 90.7503 216.771 90.6281C217.74 90.4401 217.004 90.0811 216.663 89.8573C215.865 89.3403 216.422 89.111 217.341 88.7839C218.476 88.3797 218.605 88.5601 219.075 89.0565C219.504 89.5133 220.339 89.2181 220.93 88.9756C221.45 89.2595 220.235 89.6844 221.304 89.9231C221.017 90.0303 221.259 90.3405 220.381 90.239C219.529 90.1393 219.986 90.4928 220.048 90.6751C219.192 90.474 219.088 89.8931 217.952 89.8254C217.324 90.1939 218.26 90.5605 217.898 90.9327C218.651 90.8425 219.35 90.7579 220.048 90.6733C221.117 90.5605 222.14 90.3725 223.305 90.5341C224.24 90.6639 224.797 90.4683 224.432 89.9476C225.455 90.0905 225.101 90.7203 226.037 90.6845C226.856 90.6526 226.34 90.1619 226.923 89.9551C226.781 90.2559 228.428 90.3574 227.143 90.818C226.469 91.0587 227.471 91.2617 227.975 91.3463C228.212 91.3858 228.54 91.9912 229.006 91.3407C229.231 91.0267 230.624 91.3369 230.578 91.4328C230.32 91.993 231.368 92.3089 231.555 92.762C231.618 92.918 231.393 93.0985 231.302 93.2696C230.566 92.6567 229.987 94.0366 229.089 93.2921C228.661 92.9368 228.029 92.6548 228.386 92.2186C228.549 92.025 228.432 91.9216 228.008 91.8896C227.808 91.8746 227.542 91.8595 227.401 91.9047C226.889 92.0701 227.509 92.151 227.621 92.2243C228.162 92.5834 226.794 93.1605 228.678 93.4237C226.44 93.5064 224.768 93.9388 222.847 93.9746C221.695 93.9952 221.479 93.999 220.772 93.4106C219.791 92.5928 220.427 92.354 221.55 91.8821C220.452 92.0852 219.998 91.0831 218.734 91.7148C218.052 92.057 217.245 92.292 217.233 92.839C217.22 93.4087 215.977 93.4012 215.22 93.3748C214.746 93.3579 213.22 93.4651 213.794 92.7883C213.993 92.5552 213.602 92.6097 213.436 92.6134C213.103 92.6247 212.646 92.51 212.55 92.8202C212.492 93.0045 212.392 93.2432 211.914 93.3448C211.319 93.262 211.382 93.0214 211.511 92.8785C212.409 91.8821 210.363 91.758 209.323 91.3425C209.219 91.3012 208.857 91.3031 208.812 91.3369C208.546 91.5456 208.234 91.7543 208.712 92.0043C209.07 92.1923 208.853 92.4348 208.841 92.6548C208.396 92.5946 207.955 92.5326 207.506 92.4724C207.31 92.6717 207.876 92.7244 207.897 92.7958C207.988 93.1455 209.714 93.0534 208.999 93.4068C208.437 93.685 207.107 93.7978 206.491 93.1812C205.298 93.8843 206.412 94.845 204.965 95.4579C206.196 95.5801 206.271 95.597 206.088 95.7718C205.797 96.0463 205.31 95.9692 204.711 95.9937C203.173 96.0595 201.917 96.616 200.311 96.7118C199.555 96.757 198.918 97.4545 198.049 96.7852C195.812 97.6725 195.151 95.8452 193.159 96.2042C192.56 96.3114 192.364 96.0256 192.377 95.7906C192.389 95.5914 192.46 95.4052 191.807 95.4372C191.291 95.4616 191.108 95.6026 191.138 95.8207L190.763 96.1347L190.747 96.129ZM194.506 74.2025C194.98 74.3811 195.234 74.0991 195.558 74.1029C195.837 74.1066 195.953 74.6142 196.465 74.2082C196.764 73.9694 196.19 73.8378 195.808 73.7081C195.28 73.5295 194.41 73.5878 194.111 73.2813C193.874 73.0369 194.215 72.7662 193.026 72.9862C191.973 73.1798 192.98 73.599 192.206 73.6761C192.489 74.0089 193.117 74.0653 193.654 73.9111C194.776 73.5896 194.244 74.1442 194.568 74.2288C192.547 74.0935 193.753 74.7872 193.608 75.0748C193.4 75.4866 194.523 75.6445 194.851 75.4903C195.309 75.2741 196.369 75.4358 196.278 75.0636C196.232 74.8774 195.546 74.8022 194.939 74.8304C194.236 74.8624 194.227 74.8154 194.51 74.2025H194.506ZM171.359 82.5667C173.359 83.0611 173.734 81.8222 175.356 81.7921C175.888 81.7827 175.443 81.3635 175.118 81.1811C174.823 81.0138 174.32 80.6077 174.079 80.7901C173.243 81.4086 171.272 81.6831 171.363 82.5686L171.359 82.5667ZM224.028 91.4309C222.98 91.8708 223.176 92.6172 221.699 92.8184C221.333 92.8691 221.354 93.1981 221.604 93.3203C222.14 93.5816 222.203 93.1323 222.385 93.1492C223.562 93.2583 223.933 92.7206 224.777 92.5758C225.213 92.5006 225.255 92.2844 224.827 92.2694C223.425 92.2205 224.511 91.7373 224.024 91.429L224.028 91.4309ZM185.569 90.2108C188.019 91.1395 189.15 89.8705 190.917 89.6242C188.829 89.2595 187.607 90.4401 185.569 90.2108ZM208.903 77.8497C208.978 77.5189 209.07 77.2181 209.107 76.9173C209.132 76.7105 209.236 76.4811 208.537 76.4153C207.801 76.3457 207.747 76.5901 207.656 76.7875C207.493 77.1485 206.62 77.2181 206.154 77.5696C207.202 77.4907 207.926 77.7539 208.899 77.8479L208.903 77.8497ZM200.178 73.7946C200.761 73.5727 200.295 72.7493 201.883 73.3039C201.925 73.317 202.249 73.2174 202.312 73.146C202.362 73.0933 202.166 72.9335 202.145 72.9354C200.89 73.082 200.357 72.3282 199.214 72.4128C198.631 73.0125 199.155 73.4242 200.178 73.7946ZM201.073 75.7122C201.289 76.3269 202.378 76.5939 203.002 76.9981C203.202 77.1297 203.784 77.1842 203.838 77.0282C203.938 76.7311 204.624 76.4905 204.262 76.1502C204.137 76.0355 203.888 75.8663 203.717 75.9735C202.412 76.7894 202.175 75.7046 201.077 75.7103L201.073 75.7122ZM193.92 79.8162C194.714 79.7824 194.248 79.5079 194.319 79.3857C194.552 78.9589 194.244 78.3799 195.978 78.6713C196.232 78.7145 196.473 78.6074 196.465 78.4476C196.456 78.3047 196.328 78.2239 196.011 78.1863C195.288 78.0979 194.481 78.1092 194.173 78.4137C193.782 78.801 193.691 79.2503 193.516 79.6771C193.5 79.7147 193.807 79.7786 193.92 79.8143V79.8162ZM140.976 66.9965C140.851 66.8761 140.814 66.7615 140.677 66.7257C140.365 66.6449 140.182 66.8592 140.132 66.8592C139.325 66.8461 139.45 67.5059 138.402 67.3292C137.994 67.2615 138.194 66.6562 137.396 67.0604C136.822 67.3518 137.72 67.4627 138.069 67.6056C138.373 67.7297 138.527 68.1075 139.109 67.9007C139.82 67.6488 140.365 67.301 140.98 66.9965H140.976ZM127.768 74.6011C127.024 74.915 126.142 75.197 126.662 75.7479C126.845 75.9415 127.228 75.8814 127.494 75.7648C128.267 75.4264 128.608 75.056 127.768 74.6011ZM136.343 69.2243C135.836 68.6697 135.216 68.5362 134.36 68.8125C133.353 69.1378 133.237 69.5589 133.882 70.0834C134.119 69.4705 134.218 68.8144 136.339 69.2243H136.343ZM197.692 94.6213C196.361 94.3543 195.184 93.8505 193.924 94.5461C195.067 95.095 196.332 94.6664 197.692 94.6213ZM127.606 89.0301C128.301 89.5208 127.985 90.0472 129.045 90.239C129.432 90.3085 129.44 90.0115 129.498 89.8968C129.769 89.393 129.049 89.1937 127.602 89.0301H127.606ZM193.134 78.331C192.373 78.2408 192.418 78.4965 192.098 78.5529C191.4 78.6788 190.281 78.8706 190.792 79.224C191.333 79.5981 192.086 79.0003 192.905 78.974C193.616 78.9514 192.556 78.5435 193.134 78.331Z" fill="#547436"/>
<path fill-rule="evenodd" clip-rule="evenodd" d="M0 808.852L1.00253 853L407 853L407 500.594C374.101 510.288 298.165 527.537 253.351 512.141C198.741 493.379 90.8964 478.276 0 498.924V808.852Z" fill="#B0B27D"/>
</svg>
