<svg width="409" height="1725" viewBox="0 0 409 1725" fill="none" xmlns="http://www.w3.org/2000/svg">
<rect x="1" y="386" width="407" height="1339" fill="#455F2D"/>
<path d="M385.418 502.292C383.541 503.085 381.743 503.904 378.853 504.371C376.5 504.752 374.599 505.327 372.588 505.855C366.65 507.415 359.851 508.021 352.402 508.307C346.613 508.528 341.124 508.634 335.566 508.135C323.224 507.029 314.535 504.695 308.98 501.038C304.279 497.942 303.787 494.76 306.361 491.405C306.865 490.743 307.631 490.128 309.981 489.721C312.178 489.342 311.363 487.38 308.948 486.936C310.14 486.594 311.288 486.444 312.491 486.343C312.821 486.439 312.589 486.494 312.372 486.551C311.813 486.699 310.689 486.841 311.345 487.093C311.951 487.324 312.756 487.049 313.243 486.877C314.676 486.371 315.957 485.822 317.458 485.338C319.132 484.794 320.321 483.999 323.37 484.085C323.819 484.097 324.483 483.858 324.891 483.698C325.963 483.283 327.191 483.033 328.923 482.992C330.846 482.946 332.103 482.545 332.721 481.943C332.961 481.705 333.759 481.687 334.346 481.594C339.521 480.779 345.046 480.604 350.588 480.458C351.683 480.43 352.923 480.439 352.952 480.871C352.977 481.29 352.139 481.659 350.673 481.669C346.464 481.697 342.53 482.153 338.706 482.671C331.042 483.711 323.947 485.036 319.001 487.29C316.454 488.45 316.477 488.712 319.246 489.713C319.616 489.847 319.93 490.076 320.187 490.399C319.187 490.493 318.523 490.305 318.056 490.109C316.462 489.44 315.237 489.758 314.122 490.3C313.592 490.556 313.016 490.832 312.821 491.114C311.347 493.275 311.404 495.406 312.248 497.573C313.615 501.084 321.221 503.082 328.786 505.12C331.146 505.757 334.318 505.957 337.213 506.293C338.279 506.416 339.562 506.422 340.474 506.124C342.662 505.404 345.693 505.3 348.249 505.243C351.561 505.17 354.725 504.83 357.988 504.709C358.9 504.676 361.665 504.587 361.964 503.813C362.009 503.696 362.565 503.523 362.953 503.493C366.156 503.265 366.491 502.525 367.164 501.67C368.012 500.603 369.369 499.524 373.743 499.231C375.798 499.093 377.981 498.344 379.603 498.457C381.119 498.564 382.085 499.376 383.971 499.713C386.651 500.191 387.957 501.211 385.403 502.289" fill="#344C1E"/>
<path d="M374.21 482.902C381.686 483.325 384.813 485.264 388.312 487.01C391.051 488.374 392.365 489.958 392.644 491.616C392.693 491.924 393.343 492.088 393.665 492.322C395.27 493.476 393.265 494.623 393.148 495.77C393.111 496.088 392.573 496.408 392.17 496.819C390.725 496.58 389.94 496.222 390.349 495.84C391.533 494.729 390.099 493.662 390.683 492.549C391.16 491.642 389.771 490.863 386.927 490.483C386.293 490.397 386.611 490.234 386.555 490.104C385.526 487.663 382.002 485.66 376.139 484.144C373.512 483.463 370.575 482.843 367.19 482.536C364.624 482.301 363.217 481.495 360.519 481.351C360.38 481.343 360.182 481.195 360.254 481.138C360.445 480.977 360.908 480.91 361.425 480.949" fill="#344C1E"/>
<path d="M328.787 950.5C173.617 965 107.426 931 0 992V898H408V926C383.947 933.167 350.017 948.516 328.787 950.5Z" fill="#B0B27D"/>
<path d="M122.997 1292.52C126.499 1304 125.32 1315.35 121.183 1326.3C113.254 1347.28 99.6227 1363.24 79.0485 1372.87C72.8077 1375.79 66.2469 1377 59.4669 1377.21C56.732 1377.3 53.8962 1377.07 52.5815 1373.91C51.2328 1370.69 53.1667 1368.83 55.3364 1366.96C70.4299 1353.9 79.6718 1337.78 81.6406 1317.59C83.1634 1302.06 91.5096 1290.88 104.963 1283.37C113.551 1278.59 118.192 1280.24 121.98 1289.39C122.396 1290.4 122.66 1291.47 122.997 1292.52ZM119.716 1301.91C118.285 1318.7 112.721 1333.94 103.579 1347.94C115.426 1334.87 120.721 1319.47 119.716 1301.91Z" fill="#3C5623"/>
<path d="M80.5059 1274.01C85.3701 1272.28 90.4145 1271.65 95.5459 1271.71C97.6144 1271.74 99.5966 1272.1 100.263 1274.57C100.846 1276.7 99.7997 1278.09 98.1577 1279.14C82.4176 1289.13 75.6503 1304.1 73.6501 1322.12C71.627 1340.35 61.0022 1353.57 47.1589 1364.51C41.831 1368.73 36.2267 1367.37 33.1174 1361.25C29.8142 1354.75 28.9589 1347.74 29.3428 1340.49C30.817 1312.52 53.8676 1282.53 80.5059 1274.01ZM51.4083 1301.09C38.8711 1314.62 32.9915 1330.63 34.1397 1349.17C35.6815 1331.62 41.1635 1315.52 51.4083 1301.09Z" fill="#3C5623"/>
<path fill-rule="evenodd" clip-rule="evenodd" d="M1 915L408 915L408 525.804C374.624 536.51 297.588 555.56 252.124 538.557C197.9 518.277 91.9385 501.867 1 522.56V915Z" fill="#B0B27D"/>
<path fill-rule="evenodd" clip-rule="evenodd" d="M408 76.1384V389.801H1V53.7279C54.125 19.8849 118.986 0 189 0C273.301 0 350.129 28.8279 408 76.1384Z" fill="#455F2D"/>
<path d="M55.7147 86.0544C59.9883 86.2072 63.6747 87.9213 66.884 90.5861C73.0295 95.6915 76.8237 102.135 77.6782 110.182C77.9379 112.623 77.5851 114.974 76.8694 117.282C76.5805 118.213 76.1744 119.142 74.9599 119.219C73.7179 119.299 73.3167 118.432 72.9368 117.484C70.2884 110.884 65.9325 105.9 59.3611 102.894C54.3057 100.579 51.509 96.4701 50.5422 91.0674C49.9273 87.6197 51.0232 86.2483 54.5451 86.0346C54.933 86.0112 55.3235 86.0464 55.7147 86.0544ZM58.4992 88.2499C63.9867 90.6797 68.4753 94.3228 72.1286 99.0265C69.1019 93.5197 64.5297 89.949 58.4992 88.2499Z" fill="#3C5623"/>
<path d="M44.5481 98.2183C44.5305 96.3793 44.9029 94.6068 45.5207 92.886C45.7695 92.1923 46.1226 91.5671 47.0291 91.6284C47.8145 91.6794 48.1641 92.1939 48.3265 92.8686C49.8627 99.3291 54.1207 103.346 59.9575 106.111C65.864 108.908 69.0825 114.021 71.1615 119.954C71.9643 122.238 70.8572 123.968 68.4362 124.306C65.8622 124.664 63.3999 124.137 61.0053 123.168C51.7529 119.424 44.327 108.18 44.5481 98.2183ZM50.2924 111.162C53.3954 116.955 58.107 120.794 64.4844 122.559C58.753 120.003 53.9645 116.288 50.2924 111.162Z" fill="#3C5623"/>
<path d="M352.309 85.465C348.571 86.7177 344.835 86.4327 341.202 85.1728C334.244 82.758 328.882 78.4265 325.538 71.7588C324.523 69.7363 324.066 67.5934 323.936 65.3696C323.883 64.4726 323.933 63.5396 324.956 63.0797C326.002 62.6081 326.629 63.2263 327.264 63.9217C331.688 68.7593 337.061 71.6486 343.706 72.1138C348.819 72.4743 352.564 75.1139 355.148 79.4631C356.796 82.2391 356.295 83.7777 353.324 85.1032C352.997 85.249 352.649 85.3451 352.309 85.465ZM349.194 84.4724C343.672 84.1534 338.618 82.4636 333.941 79.588C338.337 83.3598 343.44 84.9599 349.194 84.4724Z" fill="#324D18" fill-opacity="0.5"/>
<path d="M358.002 71.3503C358.613 72.9316 358.866 74.5819 358.891 76.267C358.901 76.9463 358.798 77.6002 357.996 77.841C357.302 78.0515 356.834 77.7207 356.475 77.191C353.056 72.1135 348.08 70.0263 342.147 69.5313C336.144 69.0308 331.71 65.6615 327.994 61.2153C326.561 59.5041 326.956 57.6522 328.936 56.5766C331.041 55.4339 333.337 55.0901 335.717 55.1512C344.915 55.3841 354.966 62.682 358.002 71.3503ZM348.852 62.0412C344.297 58.047 338.987 56.2605 332.912 56.8037C338.686 57.1525 344.022 58.8076 348.852 62.0412Z" fill="#324D18" fill-opacity="0.5"/>
<path d="M198.985 42.6104C199.429 38.5221 201.33 35.1058 204.109 32.2133C209.434 26.6748 215.879 23.4847 223.657 23.2258C226.016 23.1468 228.246 23.649 230.41 24.4963C231.283 24.8382 232.145 25.2925 232.134 26.4627C232.125 27.6595 231.265 27.9839 230.329 28.2822C223.814 30.3625 218.731 34.1931 215.39 40.2864C212.817 44.9738 208.681 47.37 203.432 47.9207C200.083 48.2703 198.844 47.1236 198.884 43.7307C198.889 43.3571 198.95 42.985 198.985 42.6104ZM201.284 40.0927C203.997 34.9988 207.804 30.9475 212.57 27.7713C207.077 30.2905 203.334 34.4271 201.284 40.0927Z" fill="#324D18" fill-opacity="0.5"/>
<path d="M209.875 54.1678C208.11 54.0565 206.435 53.5759 204.828 52.8634C204.18 52.5764 203.605 52.1942 203.727 51.329C203.831 50.5793 204.348 50.2798 205.007 50.1711C211.31 49.1479 215.46 45.3438 218.518 39.9383C221.613 34.4681 226.741 31.7373 232.576 30.1567C234.823 29.5459 236.405 30.7283 236.56 33.0739C236.724 35.5676 236.048 37.8926 234.951 40.1217C230.716 48.7351 219.414 55.074 209.875 54.1678ZM222.689 49.5602C228.462 46.9877 232.472 42.7362 234.609 36.7424C231.759 42.0615 227.861 46.3953 222.689 49.5602Z" fill="#324D18" fill-opacity="0.5"/>
</svg>
