<svg width="409" height="1725" viewBox="0 0 409 1725" fill="none" xmlns="http://www.w3.org/2000/svg">
<rect x="1" y="386" width="407" height="1339" fill="#455F2D"/>
<path d="M385.418 502.292C383.541 503.085 381.743 503.904 378.853 504.371C376.5 504.752 374.599 505.327 372.588 505.855C366.65 507.415 359.851 508.021 352.402 508.307C346.613 508.528 341.124 508.634 335.566 508.135C323.224 507.029 314.535 504.695 308.98 501.038C304.279 497.942 303.787 494.76 306.361 491.405C306.865 490.743 307.631 490.128 309.981 489.721C312.178 489.342 311.363 487.38 308.948 486.936C310.14 486.594 311.288 486.444 312.491 486.343C312.821 486.439 312.589 486.494 312.372 486.551C311.813 486.699 310.689 486.841 311.345 487.093C311.951 487.324 312.756 487.049 313.243 486.877C314.676 486.371 315.957 485.822 317.458 485.338C319.132 484.794 320.321 483.999 323.37 484.085C323.819 484.097 324.483 483.858 324.891 483.698C325.963 483.283 327.191 483.033 328.923 482.992C330.846 482.946 332.103 482.545 332.721 481.943C332.961 481.705 333.759 481.687 334.346 481.594C339.521 480.779 345.046 480.604 350.588 480.458C351.683 480.43 352.923 480.439 352.952 480.871C352.977 481.29 352.139 481.659 350.673 481.669C346.464 481.697 342.53 482.153 338.706 482.671C331.042 483.711 323.947 485.036 319.001 487.29C316.454 488.45 316.477 488.712 319.246 489.713C319.616 489.847 319.93 490.076 320.187 490.399C319.187 490.493 318.523 490.305 318.056 490.109C316.462 489.44 315.237 489.758 314.122 490.3C313.592 490.556 313.016 490.832 312.821 491.114C311.347 493.275 311.404 495.406 312.248 497.573C313.615 501.084 321.221 503.082 328.786 505.12C331.146 505.757 334.318 505.957 337.213 506.293C338.279 506.416 339.562 506.422 340.474 506.124C342.662 505.404 345.693 505.3 348.249 505.243C351.561 505.17 354.725 504.83 357.988 504.709C358.9 504.676 361.665 504.587 361.964 503.813C362.009 503.696 362.565 503.523 362.953 503.493C366.156 503.265 366.491 502.525 367.164 501.67C368.012 500.603 369.369 499.524 373.743 499.231C375.798 499.093 377.981 498.344 379.603 498.457C381.119 498.564 382.085 499.376 383.971 499.713C386.651 500.191 387.957 501.211 385.403 502.289" fill="#344C1E"/>
<path d="M374.21 482.902C381.686 483.325 384.813 485.264 388.312 487.01C391.051 488.374 392.365 489.958 392.644 491.616C392.693 491.924 393.343 492.088 393.665 492.322C395.27 493.476 393.265 494.623 393.148 495.77C393.111 496.088 392.573 496.408 392.17 496.819C390.725 496.58 389.94 496.222 390.349 495.84C391.533 494.729 390.099 493.662 390.683 492.549C391.16 491.642 389.771 490.863 386.927 490.483C386.293 490.397 386.611 490.234 386.555 490.104C385.526 487.663 382.002 485.66 376.139 484.144C373.512 483.463 370.575 482.843 367.19 482.536C364.624 482.301 363.217 481.495 360.519 481.351C360.38 481.343 360.182 481.195 360.254 481.138C360.445 480.977 360.908 480.91 361.425 480.949" fill="#344C1E"/>
<path d="M328.787 950.5C173.617 965 107.426 931 0 992V898H408V926C383.947 933.167 350.017 948.516 328.787 950.5Z" fill="#B0B27D"/>
<path d="M122.997 1292.52C126.499 1304 125.32 1315.35 121.183 1326.3C113.254 1347.28 99.6227 1363.24 79.0485 1372.87C72.8077 1375.79 66.2469 1377 59.4669 1377.21C56.732 1377.3 53.8962 1377.07 52.5815 1373.91C51.2328 1370.69 53.1667 1368.83 55.3364 1366.96C70.4299 1353.9 79.6718 1337.78 81.6406 1317.59C83.1634 1302.06 91.5096 1290.88 104.963 1283.37C113.551 1278.59 118.192 1280.24 121.98 1289.39C122.396 1290.4 122.66 1291.47 122.997 1292.52ZM119.716 1301.91C118.285 1318.7 112.721 1333.94 103.579 1347.94C115.426 1334.87 120.721 1319.47 119.716 1301.91Z" fill="#3C5623"/>
<path d="M80.5059 1274.01C85.3701 1272.28 90.4145 1271.65 95.5459 1271.71C97.6144 1271.74 99.5966 1272.1 100.263 1274.57C100.846 1276.7 99.7997 1278.09 98.1577 1279.14C82.4176 1289.13 75.6503 1304.1 73.6501 1322.12C71.627 1340.35 61.0022 1353.57 47.1589 1364.51C41.831 1368.73 36.2267 1367.37 33.1174 1361.25C29.8142 1354.75 28.9589 1347.74 29.3428 1340.49C30.817 1312.52 53.8676 1282.53 80.5059 1274.01ZM51.4083 1301.09C38.8711 1314.62 32.9915 1330.63 34.1397 1349.17C35.6815 1331.62 41.1635 1315.52 51.4083 1301.09Z" fill="#3C5623"/>
<path fill-rule="evenodd" clip-rule="evenodd" d="M1 915L408 915L408 525.804C374.624 536.51 297.588 555.56 252.124 538.557C197.9 518.277 91.9385 501.867 1 522.56V915Z" fill="#B0B27D"/>
<path fill-rule="evenodd" clip-rule="evenodd" d="M408 76.1384V389.801H1V53.7279C54.125 19.8849 118.986 0 189 0C273.301 0 350.129 28.8279 408 76.1384Z" fill="#455F2D"/>
<path d="M55.7147 86.0544C59.9883 86.2072 63.6747 87.9213 66.884 90.5861C73.0295 95.6915 76.8237 102.135 77.6782 110.182C77.9379 112.623 77.5851 114.974 76.8694 117.282C76.5805 118.213 76.1744 119.142 74.9599 119.219C73.7179 119.299 73.3167 118.432 72.9368 117.484C70.2884 110.884 65.9325 105.9 59.3611 102.894C54.3057 100.579 51.509 96.4701 50.5422 91.0674C49.9273 87.6197 51.0232 86.2483 54.5451 86.0346C54.933 86.0112 55.3235 86.0464 55.7147 86.0544ZM58.4992 88.2499C63.9867 90.6797 68.4753 94.3228 72.1286 99.0265C69.1019 93.5197 64.5297 89.949 58.4992 88.2499Z" fill="#3C5623"/>
<path d="M44.5481 98.2183C44.5305 96.3793 44.9029 94.6068 45.5207 92.886C45.7695 92.1923 46.1226 91.5671 47.0291 91.6284C47.8145 91.6794 48.1641 92.1939 48.3265 92.8686C49.8627 99.3291 54.1207 103.346 59.9575 106.111C65.864 108.908 69.0825 114.021 71.1615 119.954C71.9643 122.238 70.8572 123.968 68.4362 124.306C65.8622 124.664 63.3999 124.137 61.0053 123.168C51.7529 119.424 44.327 108.18 44.5481 98.2183ZM50.2924 111.162C53.3954 116.955 58.107 120.794 64.4844 122.559C58.753 120.003 53.9645 116.288 50.2924 111.162Z" fill="#3C5623"/>
<path d="M352.309 85.465C348.571 86.7177 344.835 86.4327 341.202 85.1728C334.244 82.758 328.882 78.4265 325.538 71.7588C324.523 69.7363 324.066 67.5934 323.936 65.3696C323.883 64.4726 323.933 63.5396 324.956 63.0797C326.002 62.6081 326.629 63.2263 327.264 63.9217C331.688 68.7593 337.061 71.6486 343.706 72.1138C348.819 72.4743 352.564 75.1139 355.148 79.4631C356.796 82.2391 356.295 83.7777 353.324 85.1032C352.997 85.249 352.649 85.3451 352.309 85.465ZM349.194 84.4724C343.672 84.1534 338.618 82.4636 333.941 79.588C338.337 83.3598 343.44 84.9599 349.194 84.4724Z" fill="#324D18" fill-opacity="0.5"/>
<path d="M358.002 71.3503C358.613 72.9316 358.866 74.5819 358.891 76.267C358.901 76.9463 358.798 77.6002 357.996 77.841C357.302 78.0515 356.834 77.7207 356.475 77.191C353.056 72.1135 348.08 70.0263 342.147 69.5313C336.144 69.0308 331.71 65.6615 327.994 61.2153C326.561 59.5041 326.956 57.6522 328.936 56.5766C331.041 55.4339 333.337 55.0901 335.717 55.1512C344.915 55.3841 354.966 62.682 358.002 71.3503ZM348.852 62.0412C344.297 58.047 338.987 56.2605 332.912 56.8037C338.686 57.1525 344.022 58.8076 348.852 62.0412Z" fill="#324D18" fill-opacity="0.5"/>
<path d="M198.985 42.6104C199.429 38.5221 201.33 35.1058 204.109 32.2133C209.434 26.6748 215.879 23.4847 223.657 23.2258C226.016 23.1468 228.246 23.649 230.41 24.4963C231.283 24.8382 232.145 25.2925 232.134 26.4627C232.125 27.6595 231.265 27.9839 230.329 28.2822C223.814 30.3625 218.731 34.1931 215.39 40.2864C212.817 44.9738 208.681 47.37 203.432 47.9207C200.083 48.2703 198.844 47.1236 198.884 43.7307C198.889 43.3571 198.95 42.985 198.985 42.6104ZM201.284 40.0927C203.997 34.9988 207.804 30.9475 212.57 27.7713C207.077 30.2905 203.334 34.4271 201.284 40.0927Z" fill="#324D18" fill-opacity="0.5"/>
<path d="M209.875 54.1678C208.11 54.0565 206.435 53.5759 204.828 52.8634C204.18 52.5764 203.605 52.1942 203.727 51.329C203.831 50.5793 204.348 50.2798 205.007 50.1711C211.31 49.1479 215.46 45.3438 218.518 39.9383C221.613 34.4681 226.741 31.7373 232.576 30.1567C234.823 29.5459 236.405 30.7283 236.56 33.0739C236.724 35.5676 236.048 37.8926 234.951 40.1217C230.716 48.7351 219.414 55.074 209.875 54.1678ZM222.689 49.5602C228.462 46.9877 232.472 42.7362 234.609 36.7424C231.759 42.0615 227.861 46.3953 222.689 49.5602Z" fill="#324D18" fill-opacity="0.5"/>
<path d="M159.589 649.196C163.149 648.547 167.207 648.639 167.646 652.766C167.932 655.368 169.098 660.582 162.519 660.243C156.933 659.961 156.719 666.115 154.534 669.498C153.233 671.504 155.935 673.565 158.243 674.337C159.224 674.672 160.767 674.914 161.415 674.393C165.699 671 168.194 675.595 171.484 676.451C169.607 679.647 166.148 679.103 163.153 679.963C166.592 683.6 163.839 686.984 162.269 689.981C161.593 691.269 159.895 692.184 161.46 693.416C162.628 694.336 164.67 695.055 165.884 692.882C166.309 692.122 166.487 690.911 167.095 690.643C168.867 689.883 171.055 689.551 172.141 691.506C173.168 693.332 171.439 694.156 169.947 694.705C167.405 695.648 163.53 695.785 168.286 699.621C169.757 700.805 168.339 704.216 166.739 704.968C165.203 705.691 162.826 704.605 165.016 707.536C166.386 709.372 169.433 711.205 170.221 709.766C171.396 707.594 178.151 705.322 171.77 701.75C169.544 700.498 170.216 699.131 171.212 698.157C173.378 696.004 172.518 698.952 173.126 699.491C177.842 703.593 178.455 708.57 174.692 714.515C177.984 714.869 181.109 714.518 178.442 719.92C177.313 722.208 173.691 723.745 174.769 727.167C177.145 728.782 179.579 723.458 179.701 725.684C179.911 729.452 182.128 734.021 177.088 738.402C183.389 736.839 186.025 742.418 190.978 741.925C192.739 741.746 193.108 743.881 192.882 745.478C192.646 747.141 191.528 747.764 189.882 748.399C187.666 749.26 186.892 745.837 184.217 747.579C187.482 749.533 186.825 753.648 189.746 755.87C190.308 756.292 190.428 758.479 189.935 758.926C185.53 762.827 187.075 764.984 191.41 767.771C194.109 769.502 197.873 771.141 197.985 775.601C198.01 776.644 199.2 777.484 200.979 777.146C206.002 776.187 211.942 778.843 215.711 773.017C216.287 772.117 217.484 769.866 219.2 772.001C220.493 773.603 220.242 776.033 218.549 776.512C210.618 778.775 216.148 782.244 217.622 785.646C216.783 787.127 214.086 784.617 213.28 788.131C212.007 793.689 207.332 790.694 203.774 790.036C200.35 789.397 199.451 788.305 202.33 785.601C203.036 784.933 201.678 783.612 201.362 783.891C199.302 785.789 195.144 781.487 194.814 785.282C194.462 789.408 189.618 788.905 189.222 792.425C189.147 793.049 186.448 794.569 186.735 792.335C187.137 789.211 178.394 786.19 186.701 782.996C188.477 782.315 186.726 780.26 185.661 779.282C182.843 776.725 183.285 778.486 183.568 780.758C183.658 781.507 182.203 781.459 181.621 780.642C179.481 777.642 175.999 777.72 172.888 777.013C173.32 775.037 174.587 774.486 176.146 773.974C178.59 773.18 176.089 771.995 176.145 770.975C176.204 769.756 175.941 768.963 174.34 769.98C171.343 771.87 168.607 769.665 165.79 769.024C164.962 768.84 163.468 768.252 163.51 768.039C165.156 757.68 158.352 765.424 155.632 764.341C154.622 762.581 158.037 762.493 156.91 760.514C155.363 759.651 154.427 763.198 152.831 761.598C151.525 760.288 151.79 758.954 153.631 757.979C154.596 757.469 154.213 756.378 153.574 755.736C152.672 754.842 152.184 755.672 151.556 756.323C148.952 758.974 146.18 760.602 142.739 757.468C142.366 757.129 141.071 757.1 140.987 757.289C138.965 761.827 134.062 758.764 130.939 761.07C129.601 762.06 125.5 764.586 124.128 759.751C119.5 763.677 116.306 754.783 111.427 758.417C109.72 759.689 107.803 759.387 106.785 756.12C106.017 753.635 105.031 750.221 100.852 749.541C98.7096 749.196 100.557 747.005 101.789 746.562C102.867 746.179 104.717 747.04 104.566 745.013C104.438 743.222 102.835 740.936 101.563 741.117C96.0812 741.887 91.2924 735.489 84.6099 741.404C86.1642 735.924 91.4458 739.167 91.8045 735.16C89.6776 735.409 87.6203 728.706 84.8992 735.167C84.2482 736.705 83.2191 735.91 82.4225 735.011C81.5838 734.061 80.5084 733.4 82.4408 732.143C84.6037 730.742 85.5904 728.237 86.382 725.794C80.037 722.405 79.0037 733.949 72.3862 730.93C72.9073 728.355 80.9288 729.575 75.5349 724.303C74.675 723.46 77.5068 721.696 79.2765 722.244C85.3907 724.151 88.3038 720.27 91.9263 715.773C88.3652 715.313 86.0513 717.408 84.3878 718.493C80.6517 720.935 78.3383 718.987 75.9278 717.215C73.3114 715.282 73.2879 712.641 74.428 709.494C76.7533 703.039 75.2805 700.733 68.8982 699.552L68.9509 699.549C67.2491 697.149 63.2983 698.98 61.7826 694.985C60.8265 692.443 55.8222 691.63 57.3589 687.143C55.6738 686.974 56.2837 680.814 52.7705 685.385C50.3526 683.191 45.2907 684.443 44.5578 681.334C43.4591 676.685 47.5796 679.945 49.5245 679.216C48.7033 676.732 44.6643 672.98 51.3038 672.668C54.4652 672.514 57.6491 672.821 61.0209 672.92C59.5895 667.137 55.2397 669.451 51.9732 669.346C51.6399 667.658 55.1391 666.853 52.5153 665.039C49.3585 662.855 47.3489 657.669 41.6265 661.885C44.4866 657.729 44.4115 653.492 46.0045 649.345C42.908 649.206 44.2788 653.208 41.6398 652.703C40.4533 652.47 38.0349 651.888 38.8271 651.347C43.7728 647.988 36.1403 643.922 39.7128 640.563C40.2553 640.048 37.3849 639.131 38.4178 636.492C35.6439 638.899 37.82 641.818 34.9226 643.321C32.8399 642.313 32.3435 639.18 32.6858 638.08C34.252 633.115 28.9798 632.765 27.6744 629.83C27.273 628.911 23.2627 630.336 25.4489 626.979C26.9358 624.713 30.6163 624.917 30.9458 625.984C33.1089 632.959 38.6771 629.371 42.7224 630.283C42.5994 632.628 43.9114 634.347 46.0122 634.376C52.7639 634.469 49.3735 627.778 53.4141 624.542C48.0325 625.466 46.4142 629.905 42.5615 630.502C41.4808 628.653 41.8466 625.332 37.6015 627.085C36.5532 627.52 32.427 624.141 32.9586 620.971C33.5319 617.574 38.7787 617.674 39.7072 617.761C44.6026 618.235 48.9867 615.814 53.784 615.633C60.374 615.39 60.7379 619.322 61.6658 622.368C62.8773 626.352 62.2019 630.903 58.0597 633.682C56.6401 634.623 56.1802 636.02 55.2163 638.181C61.2908 634.145 62.3808 640.235 64.9085 642.516C68.3897 645.662 70.0473 646.888 70.7617 640.974C71.0547 638.595 73.409 638.137 74.9713 640.386C76.3765 642.391 79.7759 644.405 79.7875 644.642C79.9955 650.788 91.4219 649.543 88.3609 657.963C87.6389 659.94 91.462 661.708 93.6652 662.75C96.4495 664.067 93.8502 660.323 96.0024 659.782C97.3983 659.437 98.6119 657.792 100.551 658.292C101.513 658.535 102.427 659.125 101.916 660.022C100.845 661.884 99.5037 664.962 98.1338 665.029C93.3266 665.277 90.6718 670.123 85.4291 669.296C88.4083 673.787 92.0561 676.291 95.3749 679.088C98.2121 681.486 107.664 680.099 108.88 676.605C110.327 672.452 106.263 670.603 102.939 669.061C104.72 667.402 107.768 665.747 107.613 664.473C107.119 660.296 106.466 655.849 103.942 652.3C102.779 650.665 100.402 650.108 99.1879 652.558C98.1899 654.562 96.1771 654.172 94.7308 654.837C92.9497 655.677 90.4917 656.445 91.607 651.978C92.0594 650.159 91.9174 645.093 87.6368 643.69C87.1134 643.518 86.6031 642.261 86.675 641.571C86.8382 639.779 88.436 639.78 89.6838 639.917C97.0649 640.732 98.7597 636.237 98.6398 630.271C98.5718 626.721 100.292 626.254 102.108 628.569C105.15 632.45 105.336 627.87 106.72 627.287C109.799 626 108.275 623.71 106.763 622.766C102.391 620.034 105.938 619.121 107.688 617.912C109.041 616.974 111.814 617.79 111.074 614.523C110.313 611.126 108.385 611.92 106.19 612.675C104.671 613.198 103.74 612.253 102.688 610.706C105.675 609.701 108.761 608.81 108.909 604.813C108.967 603.304 109.819 601.545 107.427 601.768C97.8972 602.656 103.178 598.052 104.762 594.79C108.561 592.015 107.9 590.105 103.628 588.887C103.261 585.972 108.547 584.974 106.442 581.087C107.83 582.473 109.5 583.686 110.542 585.286C113.729 590.243 117.097 590.805 121.227 586.415C122.243 585.335 125.162 585.074 124.552 586.372C123.571 588.454 128.83 589.082 125.123 590.756C124.696 590.949 124.274 591.762 124.311 592.249C124.528 595.343 131.357 598.643 134.514 596.771C134.924 599.75 131.301 603.164 135.439 605.432C137.589 604.574 134.928 601.19 137.591 600.835C140.687 600.419 141.371 603.609 142.627 605.265C145.887 609.558 153.405 611.82 158.113 609C159.716 608.037 161.057 608.989 162.505 608.905C164.217 608.808 166.213 611.55 167.553 608.724C168.164 607.439 167.603 605.432 166.13 604.724C164.223 603.813 162.44 601.364 159.815 604.108C158.483 605.494 154.573 607.35 154.462 605.902C154.166 601.993 147.574 600.307 151.05 595.526C151.558 594.828 151.913 594.005 152.448 593.331C153.594 591.928 150.133 587.83 154.771 588.726C158.384 589.421 156.698 593.031 157.309 595.789C161.976 592.945 166.184 588.551 172.384 592.211C173.689 592.98 175.722 592.709 174.344 594.771C170.912 599.906 174.878 601.364 178.053 602.834C178.834 605.86 173.867 604.174 175.348 606.652C175.967 607.705 175.821 609.31 177.159 609.945C175.066 606.282 180.838 607.15 180.604 603.713C180.422 601.053 178.701 597.464 182.074 594.882C183.359 593.894 184.455 592.533 185.946 593.319C188.845 594.828 185.427 595.405 185.332 596.427C185.214 597.793 185.524 599.284 186.023 600.581C187.082 603.33 187.602 605.326 183.634 606.26C182.237 606.592 180.747 609.07 180.487 610.76C180.283 611.999 182.65 612.346 184.027 612.952C186.739 614.141 187.884 612.724 188.982 610.86C187.494 609.057 185.544 611.583 184.132 609.974C189.117 608.048 191.903 609.313 192.491 613.767C192.533 614.082 192.994 614.337 193.258 614.615C189.826 615.707 186.449 617.127 182.936 617.643C182.189 617.758 181.087 617.363 180.68 618.228C178.608 622.557 177.755 622.943 172.469 621.51C171.867 621.341 171.286 621.079 170.467 620.789C171.142 620.293 171.598 619.888 172.111 619.585C173.936 618.558 176.486 618.315 176.528 615.406C176.551 613.978 175.619 613.284 174.468 613.499C172.27 613.923 169.937 611.58 167.756 615.029C164.753 619.773 163.671 615.48 162.634 613.165C160.206 612.663 164.669 620.213 159.09 616.021C157.792 617.841 157.924 619.988 157.708 622.06C162.392 620.919 161.663 630.586 167.739 627.105C168.162 626.86 170.926 628.283 169.927 630.274C169.025 632.089 167.785 633.999 166.161 635.069C165.291 635.653 163.112 634.822 163.19 632.638C163.379 626.776 158.881 630.114 157.101 630.161C153.421 630.249 153.439 633.577 153.741 636.522C154.21 640.991 156.867 637.532 158.481 637.862C159.094 637.991 159.697 638.16 160.339 638.326C160.392 642.657 156.189 641.502 154.293 643.233C154.701 639.144 149.416 640.697 148.811 637.78C147.2 629.932 144.27 635.096 141.452 636.872C133.69 641.769 146.635 643.237 143.183 647.435C143.134 647.504 143.926 648.588 144.391 648.644C144.843 648.702 145.649 648.187 145.877 647.713C148.487 642.222 150.55 645.252 152.747 648.064C154.606 650.431 156.465 653.352 159.528 649.292L159.589 649.196ZM109.902 678.616C115.226 679.479 113.395 684.707 115.312 687.441C115.993 688.412 115.781 690.02 117.58 689.814C118.131 689.747 119.101 689.052 119.086 689.027C117.875 686.404 119.466 683.842 119.239 681.343C118.482 672.885 112.964 679.655 109.902 678.616ZM61.2437 689.093C64.0903 687.091 65.5397 685.408 62.4518 682.745C61.1695 681.632 58.6293 680.448 60.5061 677.516C61.5973 675.798 59.4839 675.783 58.3569 675.415C57.0961 675.014 55.8941 674.465 55.1047 676.142C54.5673 677.305 53.5954 679.03 55.1491 679.482C60.0513 680.907 61.0186 684.757 61.2444 689.106L61.2437 689.093ZM100.988 649.128C102.605 646.023 103.093 642.234 100.772 640.406C98.6852 638.764 96.3011 641.853 94.0324 643.523C98.2046 643.517 97.5729 648.423 100.988 649.128ZM81.7085 684.75C81.7414 682.991 79.5623 681.631 81.304 679.987C82.6805 678.705 82.8012 677.391 81.0465 676.34C78.8299 675.022 77.7031 676.821 77.0205 678.255C74.8172 682.881 78.3022 683.675 81.6953 684.751L81.7085 684.75ZM127.871 598.905C124.402 597.886 120.835 600.016 118.088 597.31C117.201 596.441 116.093 596.192 115.678 597.692C115.342 598.923 116.189 599.503 117.384 599.92C120.743 601.104 124.029 602.145 127.871 598.892L127.871 598.905Z" fill="#455F2D"/>
<path d="M247.271 837.273C244.992 835.4 242.913 832.825 245.25 830.379C246.72 828.831 249.351 825.36 252.604 829.634C255.37 833.259 259.313 830.152 262.569 829.731C264.503 829.485 264.363 826.718 263.628 824.875C263.321 824.088 262.658 823 261.993 822.871C257.626 821.991 259.172 818.019 257.973 815.52C260.951 815.005 262.433 817.445 264.545 818.857C264.998 814.801 268.554 814.733 271.246 814.132C272.404 813.875 273.868 814.45 273.81 812.828C273.768 811.616 273.141 809.967 271.149 810.355C270.452 810.491 269.604 811.017 269.118 810.78C267.712 810.078 266.353 808.89 266.998 807.185C267.594 805.584 269.017 806.226 270.144 806.866C272.07 807.952 274.195 810.292 274.079 805.312C274.041 803.773 276.911 802.859 278.222 803.46C279.48 804.035 280.056 806.087 280.727 803.18C281.148 801.361 280.685 798.499 279.374 798.766C277.404 799.178 272.434 796.17 273.569 802.022C273.962 804.067 272.757 804.368 271.627 804.261C269.146 804.047 271.434 803.03 271.45 802.368C271.52 797.272 274.296 794.27 279.977 793.483C278.464 791.248 276.6 789.487 281.367 788.303C283.385 787.802 286.25 789.247 287.812 786.774C287.566 784.445 282.97 785.733 284.292 784.485C286.527 782.37 288.203 778.585 293.584 779.415C289.294 776.316 291.379 771.738 288.463 768.915C287.425 767.913 288.561 766.559 289.673 765.859C290.832 765.13 291.809 765.498 293.071 766.188C294.773 767.114 293.05 769.399 295.543 770.146C295.041 767.085 297.948 765.328 297.793 762.34C297.76 761.768 299.058 760.542 299.595 760.613C304.343 761.301 304.872 759.204 304.325 755.038C303.981 752.447 303.02 749.241 305.737 746.823C306.372 746.259 306.269 745.076 305.122 744.146C301.88 741.524 300.406 736.429 294.796 737.15C293.932 737.265 291.9 737.705 292.327 735.513C292.643 733.865 294.287 732.742 295.477 733.544C301.061 737.288 300.309 732.02 301.651 729.311C303.014 729.054 302.872 732.054 305.483 730.706C309.613 728.572 310.21 733.059 311.673 735.62C313.079 738.088 312.872 739.222 309.674 738.854C308.885 738.766 308.779 740.307 309.119 740.357C311.385 740.64 310.896 745.493 313.432 743.7C316.186 741.747 318.423 745.027 320.822 743.42C321.251 743.138 323.617 744.018 322.076 745.015C319.919 746.41 322.642 753.443 316.281 749.953C314.922 749.207 314.565 751.378 314.516 752.556C314.408 755.657 315.272 754.454 316.537 753.082C316.956 752.632 317.692 753.563 317.49 754.355C316.749 757.266 318.631 759.393 319.829 761.701C318.371 762.473 317.361 761.975 316.222 761.274C314.441 760.17 315.02 762.351 314.356 762.853C313.566 763.458 313.211 764.039 314.686 764.501C317.441 765.371 317.509 768.234 318.593 770.326C318.914 770.938 319.335 772.178 319.18 772.264C311.865 776.693 320.268 776.851 321.026 779.114C320.462 780.67 318.61 778.59 317.971 780.333C318.249 781.751 320.949 780.466 320.794 782.302C320.665 783.804 319.696 784.342 318.12 783.709C317.294 783.377 316.817 784.19 316.753 784.926C316.672 785.958 317.445 785.824 318.181 785.873C321.202 786.098 323.675 786.966 323.536 790.758C323.521 791.169 324.185 791.99 324.347 791.942C328.236 790.812 328.911 795.477 331.99 796.206C333.311 796.518 337.043 797.741 334.756 801.14C339.635 801.954 335.781 808.625 340.612 809.749C342.303 810.142 343.123 811.494 341.626 813.847C340.484 815.634 338.878 818.044 340.654 821.004C341.568 822.519 339.232 822.523 338.307 821.989C337.501 821.52 337.063 819.915 335.881 821.077C334.833 822.099 334.255 824.301 335.037 824.997C338.402 828.004 336.941 834.353 344.141 835.398C339.912 837.316 339.15 832.321 336.467 834.207C337.742 835.4 334.652 840.21 340.107 838.502C341.407 838.097 341.454 839.156 341.313 840.126C341.164 841.148 341.318 842.165 339.519 841.624C337.508 841.015 335.429 841.72 333.492 842.514C334.723 848.247 342.452 842.813 344.057 848.521C342.18 849.553 338.716 843.917 338.274 850.051C338.202 851.03 335.614 850.195 335.023 848.806C332.991 843.996 329.041 844.226 324.335 844.339C325.924 846.797 328.446 847.135 329.997 847.599C333.484 848.639 333.489 851.104 333.656 853.537C333.83 856.184 332.199 857.589 329.639 858.536C324.397 860.487 323.737 862.618 326.362 867.212L326.333 867.181C325.735 869.504 328.955 870.999 327.266 874.046C326.187 875.98 328.316 879.522 324.713 880.929C325.496 882.066 321.34 884.93 326.035 884.71C325.943 887.37 329.387 889.862 327.838 891.955C325.522 895.086 325.382 890.805 323.904 889.979C322.791 891.797 322.581 896.287 318.892 892.318C317.131 890.432 315.646 888.288 313.932 886.137C311.087 890.073 314.817 891.562 316.471 893.651C315.596 894.747 313.253 892.993 313.505 895.581C313.808 898.696 311.637 902.677 317.275 904.019C313.182 904.427 310.584 906.704 307.164 907.896C308.708 909.897 310.477 906.936 311.552 908.845C312.032 909.706 312.943 911.518 312.189 911.309C307.494 910 308.982 916.891 305.01 916.436C304.404 916.369 305.345 918.639 303.158 919.386C306.117 919.844 306.788 916.953 309.249 917.966C309.718 919.793 308.029 921.751 307.164 922.117C303.249 923.756 305.807 927.222 304.667 929.58C304.307 930.314 307.305 932.06 304.065 932.466C301.872 932.734 300.06 930.336 300.551 929.569C303.754 924.55 298.589 922.973 297.027 919.975C298.551 918.817 298.931 917.095 297.843 915.772C294.346 911.521 291.966 917.154 287.824 916.342C291.233 919.206 294.848 917.876 297.248 919.96C296.666 921.606 294.406 923.127 297.733 924.846C298.555 925.27 298.624 929.617 296.371 930.955C293.955 932.387 291.255 929.068 290.82 928.444C288.538 925.148 284.723 923.693 282.084 920.803C278.463 916.829 280.719 914.532 282.127 912.35C283.969 909.499 287.157 907.523 291.068 908.639C292.401 909.027 293.512 908.578 295.365 908.04C289.655 906.384 292.871 902.499 292.96 899.725C293.086 895.902 292.977 894.224 288.919 896.893C287.284 897.963 285.759 896.739 286.337 894.583C286.845 892.652 286.309 889.476 286.45 889.344C290.167 885.978 283.375 879.522 290.228 876.994C291.839 876.402 290.927 873.092 290.415 871.172C289.769 868.745 288.807 872.334 287.337 871.28C286.387 870.593 284.725 870.703 284.015 869.233C283.66 868.506 283.546 867.627 284.373 867.473C286.096 867.159 288.718 866.373 289.481 867.191C292.166 870.052 296.581 869.153 298.826 872.852C300.053 868.633 299.691 865.044 299.685 861.506C299.684 858.477 293.844 853.324 291.029 854.407C287.682 855.693 288.671 859.196 289.461 862.077C287.491 861.842 284.856 860.816 284.144 861.583C281.805 864.09 279.38 866.838 278.5 870.277C278.095 871.861 278.999 873.635 281.164 873.1C282.937 872.666 283.753 874.125 284.929 874.675C286.39 875.341 288.161 876.467 284.794 878.125C283.423 878.801 280.345 881.556 281.725 884.959C281.893 885.376 281.38 886.355 280.912 886.674C279.711 887.515 278.871 886.52 278.299 885.671C274.92 880.648 271.23 881.96 267.58 885.175C265.405 887.087 264.209 886.262 264.694 883.912C265.508 879.976 262.56 882.272 261.468 881.717C259.046 880.478 258.423 882.632 258.632 884.07C259.233 888.23 256.797 886.503 255.123 886.05C253.827 885.701 252.874 883.546 251.231 885.727C249.516 887.989 251.026 888.771 252.651 889.74C253.777 890.41 253.679 891.487 253.27 892.957C251.072 891.626 248.892 890.174 246.327 892.187C245.357 892.945 243.813 893.341 245.212 894.713C250.782 900.176 245.135 899.314 242.271 900.045C238.544 899.141 237.703 900.558 239.194 903.858C237.573 905.621 234.169 902.857 232.857 906.213C232.989 904.62 232.865 902.942 233.312 901.45C234.72 896.857 233.296 894.465 228.39 894.206C227.182 894.141 225.483 892.463 226.612 892.159C228.425 891.673 226.047 888.069 229.041 889.495C229.385 889.659 230.114 889.494 230.397 889.214C232.209 887.45 230.667 881.462 227.84 880.483C229.479 878.659 233.511 879.117 232.744 875.347C231.078 874.461 230.372 877.899 228.75 876.428C226.861 874.72 228.487 872.614 228.856 870.96C229.812 866.671 227.262 860.801 223.028 859.355C221.584 858.864 221.471 857.529 220.656 856.671C219.694 855.657 220.351 852.971 217.885 853.624C216.764 853.921 215.81 855.326 216.145 856.616C216.582 858.282 215.996 860.682 219.087 860.871C220.651 860.97 223.864 862.427 223.021 863.258C220.744 865.501 223.165 870.492 218.359 870.845C217.657 870.897 216.958 871.109 216.257 871.13C214.78 871.156 214.051 875.468 212.167 872.109C210.698 869.495 213.832 868.643 215.228 866.811C211 865.404 206.05 865.097 205.064 859.311C204.855 858.094 203.616 856.971 205.625 856.743C210.629 856.176 209.448 852.94 208.691 850.19C210.164 848.11 211.73 852.09 212.492 849.864C212.821 848.924 213.898 848.169 213.588 847.002C212.411 850.234 209.911 846.184 207.895 848.139C206.336 849.653 205.008 852.613 201.624 851.873C200.333 851.593 198.909 851.628 198.613 850.287C198.026 847.687 200.185 849.511 200.871 849.032C201.784 848.386 202.548 847.408 203.093 846.415C204.246 844.308 205.215 842.934 207.886 844.912C208.828 845.606 211.154 845.229 212.344 844.502C213.222 843.976 212.191 842.32 211.844 841.144C211.156 838.83 209.671 838.863 207.933 839.161C207.594 841.037 210.193 840.92 209.935 842.646C206.112 840.557 205.432 838.158 207.895 835.447C208.069 835.255 207.985 834.833 208.019 834.523C210.506 836.084 213.168 837.438 215.338 839.354C215.803 839.758 216.138 840.652 216.89 840.449C220.676 839.46 221.365 839.788 223.256 843.833C223.468 844.296 223.61 844.796 223.861 845.459C223.197 845.299 222.705 845.229 222.246 845.069C220.646 844.474 219.152 843.015 217.319 844.52C216.419 845.257 216.477 846.203 217.217 846.807C218.638 847.951 218.408 850.637 221.703 850.179C226.238 849.55 224.134 852.484 223.24 854.348C224.206 856.123 226.556 849.371 226.883 855.051C228.699 854.9 229.967 853.688 231.37 852.731C228.193 850.416 234.594 845.78 229.229 843.831C228.853 843.697 228.285 841.227 230.05 840.801C231.654 840.407 233.496 840.173 235.017 840.621C235.839 840.854 236.469 842.649 235.068 843.75C231.32 846.718 235.766 847.761 236.732 848.844C238.724 851.088 240.787 849.325 242.46 847.587C244.995 844.942 241.443 845.109 240.799 843.931C240.556 843.481 240.344 843.017 240.11 842.53C242.778 840.217 244.271 843.441 246.347 843.709C243.587 845.609 247.336 848.081 245.839 849.992C241.802 855.127 246.559 854.233 249.148 855.052C256.283 857.305 250.381 848.474 254.812 848.412C254.881 848.407 255.138 847.343 254.929 847.024C254.726 846.713 253.981 846.482 253.567 846.589C248.774 847.856 249.575 844.976 250.168 842.128C250.663 839.725 251.502 837.03 247.362 837.261L247.271 837.273ZM291.742 852.712C289.476 848.944 293.695 847.331 294.388 844.699C294.633 843.764 295.746 843.048 294.67 842.038C294.339 841.73 293.396 841.492 293.387 841.514C292.392 843.649 289.96 844.007 288.525 845.465C283.658 850.389 290.778 850.259 291.742 852.712ZM323.882 877.484C321.137 876.766 319.327 876.749 319.295 880.074C319.277 881.458 319.878 883.662 317.064 884.038C315.421 884.263 316.524 885.587 316.888 886.482C317.302 887.478 317.593 888.515 319.053 888.123C320.059 887.846 321.645 887.542 321.109 886.337C319.415 882.535 321.302 879.906 323.89 877.476L323.882 877.484ZM278.081 873.786C275.297 874.414 272.682 876.105 272.765 878.512C272.842 880.676 276.02 880.533 278.254 881.066C276.054 878.472 279.44 876.283 278.081 873.786ZM310.404 867.032C309.292 867.937 309.593 870.01 307.653 869.791C306.13 869.609 305.248 870.226 305.518 871.871C305.865 873.945 307.578 873.699 308.829 873.369C312.869 872.305 311.528 869.718 310.412 867.04L310.404 867.032ZM232.666 883.494C233.858 886.19 237.062 887.289 236.823 890.423C236.75 891.433 237.178 892.254 238.33 891.723C239.274 891.283 239.189 890.451 238.819 889.487C237.787 886.773 236.706 884.18 232.658 883.501L232.666 883.494Z" fill="#455F2D"/>
</svg>
