<svg width="389" height="2123" viewBox="0 0 389 2123" fill="none" xmlns="http://www.w3.org/2000/svg">
<rect y="461.658" width="389" height="1661.34" fill="#455F2D"/>
<path d="M19.6278 113.225C22.7812 113.365 25.5013 114.934 27.8695 117.374C32.4041 122.048 35.2037 127.947 35.8343 135.314C36.0259 137.549 35.7656 139.701 35.2375 141.814C35.0243 142.667 34.7247 143.517 33.8285 143.587C32.912 143.661 32.616 142.867 32.3357 141.999C30.3814 135.956 27.1673 131.394 22.3184 128.642C18.5881 126.522 16.5244 122.76 15.8111 117.814C15.3573 114.658 16.166 113.402 18.7648 113.207C19.051 113.185 19.3392 113.217 19.6278 113.225ZM21.6824 115.235C25.7315 117.459 29.0436 120.795 31.7393 125.101C29.506 120.059 26.1322 116.79 21.6824 115.235Z" fill="#3C5623"/>
<path d="M11.3886 124.361C11.3756 122.677 11.6504 121.055 12.1063 119.479C12.2898 118.844 12.5504 118.272 13.2193 118.328C13.7988 118.375 14.0568 118.846 14.1766 119.463C15.3101 125.378 18.4521 129.056 22.7589 131.587C27.1172 134.148 29.4921 138.829 31.0262 144.26C31.6186 146.351 30.8017 147.936 29.0152 148.245C27.1159 148.572 25.299 148.09 23.5321 147.203C16.7049 143.776 11.2254 133.481 11.3886 124.361ZM15.6272 136.211C17.9169 141.515 21.3935 145.03 26.0993 146.645C21.8701 144.305 18.3368 140.904 15.6272 136.211Z" fill="#3C5623"/>
<path d="M263.002 89.627C260.733 90.5702 258.465 90.3557 256.261 89.407C252.038 87.5886 248.784 84.3269 246.754 79.3062C246.138 77.7832 245.861 76.1697 245.782 74.4951C245.75 73.8196 245.78 73.1171 246.401 72.7708C247.036 72.4157 247.416 72.8812 247.802 73.4048C250.487 77.0476 253.748 79.2232 257.781 79.5735C260.884 79.845 263.156 81.8326 264.725 85.1076C265.725 87.1979 265.42 88.3565 263.618 89.3545C263.419 89.4643 263.208 89.5367 263.002 89.627ZM261.111 88.8796C257.76 88.6393 254.692 87.3669 251.854 85.2016C254.522 88.0417 257.619 89.2466 261.111 88.8796Z" fill="#324D18" fill-opacity="0.5"/>
<path d="M266.457 78.9983C266.828 80.1891 266.982 81.4318 266.996 82.7006C267.003 83.2121 266.941 83.7046 266.454 83.8859C266.032 84.0444 265.748 83.7953 265.53 83.3964C263.456 79.5731 260.436 78.0014 256.835 77.6287C253.191 77.2518 250.501 74.7147 248.245 71.3666C247.376 70.0781 247.615 68.6836 248.817 67.8737C250.095 67.0132 251.488 66.7544 252.932 66.8004C258.514 66.9758 264.615 72.4711 266.457 78.9983ZM260.904 71.9886C258.14 68.9809 254.917 67.6357 251.23 68.0448C254.734 68.3074 257.973 69.5537 260.904 71.9886Z" fill="#324D18" fill-opacity="0.5"/>
<path d="M352.628 166.354C355.781 166.494 358.501 168.063 360.869 170.503C365.404 175.177 368.204 181.076 368.834 188.443C369.026 190.678 368.766 192.83 368.237 194.944C368.024 195.796 367.725 196.646 366.828 196.717C365.912 196.79 365.616 195.996 365.336 195.128C363.381 189.086 360.167 184.523 355.318 181.771C351.588 179.651 349.524 175.89 348.811 170.943C348.357 167.787 349.166 166.531 351.765 166.336C352.051 166.314 352.339 166.347 352.628 166.354ZM354.682 168.364C358.732 170.588 362.044 173.924 364.739 178.23C362.506 173.188 359.132 169.919 354.682 168.364Z" fill="#3C5623"/>
<path d="M344.389 177.49C344.376 175.807 344.65 174.184 345.106 172.608C345.29 171.973 345.55 171.401 346.219 171.457C346.799 171.504 347.057 171.975 347.177 172.592C348.31 178.507 351.452 182.185 355.759 184.716C360.117 187.277 362.492 191.958 364.026 197.389C364.619 199.481 363.802 201.065 362.015 201.374C360.116 201.701 358.299 201.22 356.532 200.332C349.705 196.905 344.225 186.61 344.389 177.49ZM348.627 189.34C350.917 194.644 354.393 198.159 359.099 199.774C354.87 197.435 351.337 194.033 348.627 189.34Z" fill="#3C5623"/>
<path fill-rule="evenodd" clip-rule="evenodd" d="M0 469.865H389V71.9276C334.277 26.7896 266.019 0 192 0C120.218 0 53.8553 25.1943 0 67.8843V469.865Z" fill="#455F2D"/>
<path d="M23.6278 130.595C26.7812 130.735 29.5013 132.304 31.8695 134.744C36.4041 139.418 39.2037 145.317 39.8343 152.684C40.0259 154.919 39.7656 157.071 39.2375 159.185C39.0243 160.037 38.7247 160.887 37.8285 160.958C36.912 161.031 36.616 160.237 36.3357 159.369C34.3814 153.327 31.1673 148.764 26.3184 146.012C22.5881 143.892 20.5244 140.131 19.8111 135.184C19.3573 132.028 20.166 130.772 22.7648 130.577C23.051 130.555 23.3392 130.588 23.6278 130.595ZM25.6824 132.605C29.7315 134.829 33.0436 138.165 35.7393 142.471C33.506 137.43 30.1322 134.161 25.6824 132.605Z" fill="#3C5623"/>
<path d="M15.3886 141.731C15.3756 140.048 15.6504 138.425 16.1063 136.85C16.2898 136.214 16.5504 135.642 17.2193 135.698C17.7988 135.745 18.0568 136.216 18.1766 136.834C19.3101 142.748 22.4521 146.426 26.7589 148.957C31.1172 151.518 33.4921 156.199 35.0262 161.63C35.6186 163.722 34.8017 165.306 33.0152 165.615C31.1159 165.942 29.299 165.461 27.5321 164.573C20.7049 161.146 15.2254 150.851 15.3886 141.731ZM19.6272 153.581C21.9169 158.885 25.3935 162.4 30.0993 164.016C25.8701 161.676 22.3368 158.274 19.6272 153.581Z" fill="#3C5623"/>
<path d="M288.002 64.8124C285.733 65.7557 283.465 65.5411 281.261 64.5924C277.038 62.774 273.784 59.5124 271.754 54.4916C271.138 52.9687 270.861 51.3551 270.782 49.6805C270.75 49.0051 270.78 48.3025 271.401 47.9563C272.036 47.6011 272.416 48.0666 272.802 48.5902C275.487 52.233 278.748 54.4086 282.781 54.7589C285.884 55.0304 288.156 57.018 289.725 60.293C290.725 62.3833 290.42 63.5419 288.618 64.5399C288.419 64.6498 288.208 64.7221 288.002 64.8124ZM286.111 64.065C282.76 63.8247 279.692 62.5524 276.854 60.387C279.522 63.2272 282.619 64.432 286.111 64.065Z" fill="#324D18" fill-opacity="0.5"/>
<path d="M291.457 54.1837C291.828 55.3744 291.982 56.6171 291.996 57.8859C292.003 58.3974 291.941 58.8899 291.454 59.0712C291.032 59.2297 290.748 58.9806 290.53 58.5817C288.456 54.7584 285.436 53.1867 281.835 52.814C278.191 52.4371 275.501 49.9 273.245 46.5519C272.376 45.2634 272.615 43.8689 273.817 43.059C275.095 42.1985 276.488 41.9397 277.932 41.9857C283.514 42.1611 289.615 47.6564 291.457 54.1837ZM285.904 47.1739C283.14 44.1662 279.917 42.821 276.23 43.2301C279.734 43.4927 282.973 44.739 285.904 47.1739Z" fill="#324D18" fill-opacity="0.5"/>
<path d="M122.435 34.3227C122.632 32.0745 123.474 30.1959 124.706 28.6053C127.066 25.5597 129.922 23.8054 133.369 23.6631C134.415 23.6196 135.404 23.8958 136.363 24.3617C136.749 24.5497 137.132 24.7995 137.127 25.443C137.123 26.1012 136.742 26.2795 136.327 26.4435C133.439 27.5875 131.187 29.694 129.706 33.0447C128.565 35.6223 126.732 36.9399 124.406 37.2428C122.921 37.4351 122.372 36.8045 122.39 34.9387C122.392 34.7333 122.419 34.5286 122.435 34.3227ZM123.454 32.9382C124.656 30.137 126.344 27.9092 128.456 26.1626C126.021 27.5479 124.362 29.8226 123.454 32.9382Z" fill="#324D18" fill-opacity="0.5"/>
<path d="M127.261 40.6782C126.479 40.617 125.737 40.3527 125.025 39.9609C124.737 39.8031 124.482 39.5929 124.537 39.1171C124.582 38.7048 124.812 38.5402 125.104 38.4804C127.898 37.9177 129.737 35.8258 131.092 32.8533C132.464 29.8453 134.736 28.3437 137.323 27.4745C138.318 27.1386 139.02 27.7888 139.088 29.0786C139.161 30.4499 138.861 31.7284 138.375 32.9542C136.498 37.6907 131.489 41.1765 127.261 40.6782ZM132.941 38.1445C135.499 36.7298 137.277 34.3919 138.224 31.096C136.96 34.0209 135.233 36.4041 132.941 38.1445Z" fill="#324D18" fill-opacity="0.5"/>
<path d="M356.628 208.539C359.781 208.679 362.501 210.248 364.869 212.688C369.404 217.362 372.204 223.261 372.834 230.628C373.026 232.863 372.766 235.015 372.237 237.128C372.024 237.981 371.725 238.831 370.828 238.901C369.912 238.975 369.616 238.181 369.336 237.313C367.381 231.27 364.167 226.708 359.318 223.956C355.588 221.836 353.524 218.075 352.811 213.128C352.357 209.972 353.166 208.716 355.765 208.521C356.051 208.499 356.339 208.532 356.628 208.539ZM358.682 210.549C362.732 212.773 366.044 216.109 368.739 220.415C366.506 215.373 363.132 212.104 358.682 210.549Z" fill="#3C5623"/>
<path d="M348.389 219.675C348.376 217.992 348.65 216.369 349.106 214.793C349.29 214.158 349.55 213.586 350.219 213.642C350.799 213.689 351.057 214.16 351.177 214.777C352.31 220.692 355.452 224.37 359.759 226.901C364.117 229.462 366.492 234.143 368.026 239.574C368.619 241.665 367.802 243.25 366.015 243.559C364.116 243.886 362.299 243.405 360.532 242.517C353.705 239.09 348.225 228.795 348.389 219.675ZM352.627 231.525C354.917 236.829 358.393 240.344 363.099 241.959C358.87 239.62 355.337 236.218 352.627 231.525Z" fill="#3C5623"/>
</svg>
