<svg width="407" height="1725" viewBox="0 0 407 1725" fill="none" xmlns="http://www.w3.org/2000/svg">
<rect y="386" width="407" height="1339" fill="#455F2D"/>
<path d="M13.6278 103.171C16.7812 103.284 19.5013 104.549 21.8695 106.515C26.4041 110.282 29.2037 115.037 29.8343 120.975C30.0259 122.776 29.7656 124.511 29.2375 126.214C29.0243 126.901 28.7247 127.586 27.8285 127.643C26.912 127.702 26.616 127.062 26.3357 126.362C24.3814 121.492 21.1673 117.815 16.3184 115.597C12.5881 113.888 10.5244 110.857 9.81111 106.87C9.35732 104.326 10.166 103.314 12.7648 103.157C13.051 103.139 13.3392 103.165 13.6278 103.171ZM15.6824 104.791C19.7315 106.584 23.0436 109.272 25.7393 112.743C23.506 108.68 20.1322 106.045 15.6824 104.791Z" fill="#3C5623"/>
<path d="M5.38858 112.147C5.37561 110.79 5.65037 109.482 6.10625 108.212C6.28984 107.7 6.55036 107.239 7.21928 107.284C7.79884 107.322 8.05678 107.701 8.17663 108.199C9.31013 112.966 12.4521 115.931 16.7589 117.971C21.1172 120.035 23.4921 123.807 25.0262 128.185C25.6186 129.87 24.8017 131.147 23.0152 131.396C21.1159 131.66 19.299 131.272 17.5321 130.557C10.7049 127.794 5.22543 119.497 5.38858 112.147ZM9.62719 121.698C11.9169 125.972 15.3935 128.805 20.0993 130.107C15.8701 128.221 12.3368 125.48 9.62719 121.698Z" fill="#3C5623"/>
<path d="M278.002 50.1519C275.733 50.9121 273.465 50.7392 271.261 49.9746C267.038 48.509 263.784 45.8802 261.754 41.8336C261.138 40.6061 260.861 39.3056 260.782 37.956C260.75 37.4116 260.78 36.8453 261.401 36.5663C262.036 36.28 262.416 36.6552 262.802 37.0772C265.487 40.0132 268.748 41.7667 272.781 42.0491C275.884 42.2679 278.156 43.8698 279.725 46.5094C280.725 48.1941 280.42 49.1279 278.618 49.9323C278.419 50.0208 278.208 50.0791 278.002 50.1519ZM276.111 49.5495C272.76 49.3559 269.692 48.3304 266.854 46.5852C269.522 48.8742 272.619 49.8453 276.111 49.5495Z" fill="#324D18" fill-opacity="0.5"/>
<path d="M281.457 41.5855C281.828 42.5452 281.982 43.5468 281.996 44.5695C282.003 44.9817 281.941 45.3786 281.454 45.5248C281.032 45.6525 280.748 45.4517 280.53 45.1303C278.456 42.0487 275.436 40.782 271.835 40.4816C268.191 40.1778 265.501 38.133 263.245 35.4346C262.376 34.3961 262.615 33.2721 263.817 32.6193C265.095 31.9258 266.488 31.7172 267.932 31.7543C273.514 31.8957 279.615 36.3248 281.457 41.5855ZM275.904 35.9358C273.14 33.5117 269.917 32.4275 266.23 32.7572C269.734 32.9689 272.973 33.9733 275.904 35.9358Z" fill="#324D18" fill-opacity="0.5"/>
<path d="M112.435 25.578C112.632 23.766 113.474 22.2519 114.706 20.9699C117.066 18.5152 119.922 17.1013 123.369 16.9866C124.415 16.9516 125.404 17.1741 126.363 17.5497C126.749 17.7012 127.132 17.9026 127.127 18.4212C127.123 18.9516 126.742 19.0954 126.327 19.2276C123.439 20.1496 121.187 21.8474 119.706 24.548C118.565 26.6255 116.732 27.6874 114.406 27.9315C112.921 28.0865 112.372 27.5782 112.39 26.0745C112.392 25.9089 112.419 25.744 112.435 25.578ZM113.454 24.4621C114.656 22.2045 116.344 20.4089 118.456 19.0012C116.021 20.1177 114.362 21.9511 113.454 24.4621Z" fill="#324D18" fill-opacity="0.5"/>
<path d="M117.261 30.7004C116.479 30.6511 115.737 30.4381 115.025 30.1223C114.737 29.9951 114.482 29.8257 114.537 29.4423C114.582 29.11 114.812 28.9772 115.104 28.929C117.898 28.4755 119.737 26.7896 121.092 24.3938C122.464 21.9694 124.736 20.7591 127.323 20.0586C128.318 19.7878 129.02 20.3119 129.088 21.3515C129.161 22.4567 128.861 23.4871 128.375 24.4751C126.498 28.2926 121.489 31.102 117.261 30.7004ZM122.941 28.6583C125.499 27.5182 127.277 25.6339 128.224 22.9774C126.96 25.3348 125.233 27.2556 122.941 28.6583Z" fill="#324D18" fill-opacity="0.5"/>
<path fill-rule="evenodd" clip-rule="evenodd" d="M407 76.1387V389.801H0V53.728C53.125 19.8848 117.986 0 188 0C272.301 0 349.129 28.8281 407 76.1387Z" fill="#455F2D"/>
<path d="M58.6278 84.1712C61.7812 84.2839 64.5013 85.5488 66.8695 87.5151C71.4041 91.2823 74.2037 96.0369 74.8343 101.975C75.0259 103.776 74.7656 105.511 74.2375 107.214C74.0243 107.901 73.7247 108.586 72.8285 108.643C71.912 108.702 71.616 108.062 71.3357 107.362C69.3814 102.492 66.1673 98.8153 61.3184 96.5971C57.5881 94.8885 55.5244 91.8568 54.8111 87.8702C54.3573 85.3262 55.166 84.3143 57.7648 84.1566C58.051 84.1393 58.3392 84.1653 58.6278 84.1712ZM60.6824 85.7912C64.7315 87.5841 68.0436 90.2724 70.7393 93.7431C68.506 89.6797 65.1322 87.045 60.6824 85.7912Z" fill="#3C5623"/>
<path d="M50.3886 93.1467C50.3756 91.7898 50.6504 90.4819 51.1063 89.2122C51.2898 88.7003 51.5504 88.2389 52.2193 88.2841C52.7988 88.3218 53.0568 88.7015 53.1766 89.1993C54.3101 93.9664 57.4521 96.9305 61.7589 98.9706C66.1172 101.035 68.4921 104.807 70.0262 109.185C70.6186 110.87 69.8017 112.147 68.0152 112.396C66.1159 112.66 64.299 112.272 62.5321 111.557C55.7049 108.794 50.2254 100.497 50.3886 93.1467ZM54.6272 102.698C56.9169 106.972 60.3935 109.805 65.0993 111.107C60.8701 109.221 57.3368 106.48 54.6272 102.698Z" fill="#3C5623"/>
<path d="M337.002 73.1519C334.733 73.9121 332.465 73.7392 330.261 72.9746C326.038 71.509 322.784 68.8802 320.754 64.8336C320.138 63.6061 319.861 62.3056 319.782 60.956C319.75 60.4116 319.78 59.8453 320.401 59.5663C321.036 59.28 321.416 59.6552 321.802 60.0772C324.487 63.0132 327.748 64.7667 331.781 65.0491C334.884 65.2679 337.156 66.8698 338.725 69.5094C339.725 71.1941 339.42 72.1279 337.618 72.9323C337.419 73.0208 337.208 73.0791 337.002 73.1519ZM335.111 72.5495C331.76 72.3559 328.692 71.3304 325.854 69.5852C328.522 71.8742 331.619 72.8453 335.111 72.5495Z" fill="#324D18" fill-opacity="0.5"/>
<path d="M340.457 64.5855C340.828 65.5452 340.982 66.5468 340.996 67.5695C341.003 67.9817 340.941 68.3786 340.454 68.5248C340.032 68.6525 339.748 68.4517 339.53 68.1303C337.456 65.0487 334.436 63.782 330.835 63.4816C327.191 63.1778 324.501 61.133 322.245 58.4346C321.376 57.3961 321.615 56.2721 322.817 55.6193C324.095 54.9258 325.488 54.7172 326.932 54.7543C332.514 54.8957 338.615 59.3248 340.457 64.5855ZM334.904 58.9358C332.14 56.5117 328.917 55.4275 325.23 55.7572C328.734 55.9689 331.973 56.9733 334.904 58.9358Z" fill="#324D18" fill-opacity="0.5"/>
<path d="M171.435 48.578C171.632 46.766 172.474 45.2519 173.706 43.9699C176.066 41.5152 178.922 40.1013 182.369 39.9866C183.415 39.9516 184.404 40.1741 185.363 40.5497C185.749 40.7012 186.132 40.9026 186.127 41.4212C186.123 41.9516 185.742 42.0954 185.327 42.2276C182.439 43.1496 180.187 44.8474 178.706 47.548C177.565 49.6255 175.732 50.6874 173.406 50.9315C171.921 51.0865 171.372 50.5782 171.39 49.0745C171.392 48.9089 171.419 48.744 171.435 48.578ZM172.454 47.4621C173.656 45.2045 175.344 43.4089 177.456 42.0012C175.021 43.1177 173.362 44.9511 172.454 47.4621Z" fill="#324D18" fill-opacity="0.5"/>
<path d="M176.261 53.7004C175.479 53.6511 174.737 53.4381 174.025 53.1223C173.737 52.9951 173.482 52.8257 173.537 52.4423C173.582 52.11 173.812 51.9772 174.104 51.929C176.898 51.4755 178.737 49.7896 180.092 47.3938C181.464 44.9694 183.736 43.7591 186.323 43.0586C187.318 42.7878 188.02 43.3119 188.088 44.3515C188.161 45.4567 187.861 46.4871 187.375 47.4751C185.498 51.2926 180.489 54.102 176.261 53.7004ZM181.941 51.6583C184.499 50.5182 186.277 48.6339 187.224 45.9774C185.96 48.3348 184.233 50.2556 181.941 51.6583Z" fill="#324D18" fill-opacity="0.5"/>
</svg>
