<svg width="438" height="1725" viewBox="0 0 438 1725" fill="none" xmlns="http://www.w3.org/2000/svg">
<rect x="1" y="386" width="407" height="1339" fill="#455F2D"/>
<path d="M385.418 502.292C383.541 503.085 381.743 503.904 378.853 504.371C376.5 504.752 374.599 505.327 372.588 505.855C366.65 507.415 359.851 508.021 352.402 508.307C346.613 508.528 341.124 508.634 335.566 508.135C323.224 507.029 314.535 504.695 308.98 501.038C304.279 497.942 303.787 494.76 306.361 491.405C306.865 490.743 307.631 490.128 309.981 489.721C312.178 489.342 311.363 487.38 308.948 486.936C310.14 486.594 311.288 486.444 312.491 486.343C312.821 486.439 312.589 486.494 312.372 486.551C311.813 486.699 310.689 486.841 311.345 487.093C311.951 487.324 312.756 487.049 313.243 486.877C314.676 486.371 315.957 485.822 317.458 485.338C319.132 484.794 320.321 483.999 323.37 484.085C323.819 484.097 324.483 483.858 324.891 483.698C325.963 483.283 327.191 483.033 328.923 482.992C330.846 482.946 332.103 482.545 332.721 481.943C332.961 481.705 333.759 481.687 334.346 481.594C339.521 480.779 345.046 480.604 350.588 480.458C351.683 480.43 352.923 480.439 352.952 480.871C352.977 481.29 352.139 481.659 350.673 481.669C346.464 481.697 342.53 482.153 338.706 482.671C331.042 483.711 323.947 485.036 319.001 487.29C316.454 488.45 316.477 488.712 319.246 489.713C319.616 489.847 319.93 490.076 320.187 490.399C319.187 490.493 318.523 490.305 318.056 490.109C316.462 489.44 315.237 489.758 314.122 490.3C313.592 490.556 313.016 490.832 312.821 491.114C311.347 493.275 311.404 495.406 312.248 497.573C313.615 501.084 321.221 503.082 328.786 505.12C331.146 505.757 334.318 505.957 337.213 506.293C338.279 506.416 339.562 506.422 340.474 506.124C342.662 505.404 345.693 505.3 348.249 505.243C351.561 505.17 354.725 504.83 357.988 504.709C358.9 504.676 361.665 504.587 361.964 503.813C362.009 503.696 362.565 503.523 362.953 503.493C366.156 503.265 366.491 502.525 367.164 501.67C368.012 500.603 369.369 499.524 373.743 499.231C375.798 499.093 377.981 498.344 379.603 498.457C381.119 498.564 382.085 499.376 383.971 499.713C386.651 500.191 387.957 501.211 385.403 502.289" fill="#344C1E"/>
<path d="M374.21 482.902C381.686 483.325 384.813 485.264 388.312 487.01C391.051 488.374 392.365 489.958 392.644 491.616C392.693 491.924 393.343 492.088 393.665 492.322C395.27 493.476 393.265 494.623 393.148 495.77C393.111 496.088 392.573 496.408 392.17 496.819C390.725 496.58 389.94 496.222 390.349 495.84C391.533 494.729 390.099 493.662 390.683 492.549C391.16 491.642 389.771 490.863 386.927 490.483C386.293 490.397 386.611 490.234 386.555 490.104C385.526 487.663 382.002 485.66 376.139 484.144C373.512 483.463 370.575 482.843 367.19 482.536C364.624 482.301 363.217 481.495 360.519 481.351C360.38 481.343 360.182 481.195 360.254 481.138C360.445 480.977 360.908 480.91 361.425 480.949" fill="#344C1E"/>
<path d="M328.787 950.5C173.617 965 107.426 931 0 992V898H408V926C383.947 933.167 350.017 948.516 328.787 950.5Z" fill="#B0B27D"/>
<path d="M122.997 1292.52C126.499 1304 125.32 1315.35 121.183 1326.3C113.254 1347.28 99.6227 1363.24 79.0485 1372.87C72.8077 1375.79 66.2469 1377 59.4669 1377.21C56.732 1377.3 53.8962 1377.07 52.5815 1373.91C51.2328 1370.69 53.1667 1368.83 55.3364 1366.96C70.4299 1353.9 79.6718 1337.78 81.6406 1317.59C83.1634 1302.06 91.5096 1290.88 104.963 1283.37C113.551 1278.59 118.192 1280.24 121.98 1289.39C122.396 1290.4 122.66 1291.47 122.997 1292.52ZM119.716 1301.91C118.285 1318.7 112.721 1333.94 103.579 1347.94C115.426 1334.87 120.721 1319.47 119.716 1301.91Z" fill="#3C5623"/>
<path d="M80.5059 1274.01C85.3701 1272.28 90.4145 1271.65 95.5459 1271.71C97.6144 1271.74 99.5966 1272.1 100.263 1274.57C100.846 1276.7 99.7997 1278.09 98.1577 1279.14C82.4176 1289.13 75.6503 1304.1 73.6501 1322.12C71.627 1340.35 61.0022 1353.57 47.1589 1364.51C41.831 1368.73 36.2267 1367.37 33.1174 1361.25C29.8142 1354.75 28.9589 1347.74 29.3428 1340.49C30.817 1312.52 53.8676 1282.53 80.5059 1274.01ZM51.4083 1301.09C38.8711 1314.62 32.9915 1330.63 34.1397 1349.17C35.6815 1331.62 41.1635 1315.52 51.4083 1301.09Z" fill="#3C5623"/>
<path fill-rule="evenodd" clip-rule="evenodd" d="M1 915L408 915L408 555.817C374.624 565.697 297.588 583.278 252.124 567.586C197.9 548.87 91.9385 533.725 1 552.822V915Z" fill="#B0B27D"/>
<path fill-rule="evenodd" clip-rule="evenodd" d="M408 86.139V441H1V60.7849C54.126 22.4966 118.985 0 189 0C273.301 0 350.129 32.6144 408 86.139Z" fill="#455F2D"/>
<path d="M55.7147 86.0544C59.9883 86.2072 63.6747 87.9213 66.884 90.5861C73.0295 95.6915 76.8237 102.135 77.6782 110.182C77.9379 112.623 77.5851 114.974 76.8694 117.282C76.5805 118.213 76.1744 119.142 74.9599 119.219C73.7179 119.299 73.3167 118.432 72.9368 117.484C70.2884 110.884 65.9325 105.9 59.3611 102.894C54.3057 100.579 51.509 96.4701 50.5422 91.0674C49.9273 87.6197 51.0232 86.2483 54.5451 86.0346C54.933 86.0112 55.3235 86.0464 55.7147 86.0544ZM58.4992 88.2499C63.9867 90.6797 68.4753 94.3228 72.1286 99.0265C69.1019 93.5197 64.5297 89.949 58.4992 88.2499Z" fill="#3C5623"/>
<path d="M44.5481 98.2183C44.5305 96.3793 44.9029 94.6068 45.5207 92.886C45.7695 92.1923 46.1226 91.5671 47.0291 91.6284C47.8145 91.6794 48.1641 92.1939 48.3265 92.8686C49.8627 99.3291 54.1207 103.346 59.9575 106.111C65.864 108.908 69.0825 114.021 71.1615 119.954C71.9643 122.238 70.8572 123.968 68.4362 124.306C65.8622 124.664 63.3999 124.137 61.0053 123.168C51.7529 119.424 44.327 108.18 44.5481 98.2183ZM50.2924 111.162C53.3954 116.955 58.107 120.794 64.4844 122.559C58.753 120.003 53.9645 116.288 50.2924 111.162Z" fill="#3C5623"/>
<path d="M352.309 85.465C348.571 86.7177 344.835 86.4327 341.202 85.1728C334.244 82.758 328.882 78.4265 325.538 71.7588C324.523 69.7363 324.066 67.5934 323.936 65.3696C323.883 64.4726 323.933 63.5396 324.956 63.0797C326.002 62.6081 326.629 63.2263 327.264 63.9217C331.688 68.7593 337.061 71.6486 343.706 72.1138C348.819 72.4743 352.564 75.1139 355.148 79.4631C356.796 82.2391 356.295 83.7777 353.324 85.1032C352.997 85.249 352.649 85.3451 352.309 85.465ZM349.194 84.4724C343.672 84.1534 338.618 82.4636 333.941 79.588C338.337 83.3598 343.44 84.9599 349.194 84.4724Z" fill="#324D18" fill-opacity="0.5"/>
<path d="M358.002 71.3503C358.613 72.9316 358.866 74.5819 358.891 76.267C358.901 76.9463 358.798 77.6002 357.996 77.841C357.302 78.0515 356.834 77.7207 356.475 77.191C353.056 72.1135 348.08 70.0263 342.147 69.5313C336.144 69.0308 331.71 65.6615 327.994 61.2153C326.561 59.5041 326.956 57.6522 328.936 56.5766C331.041 55.4339 333.337 55.0901 335.717 55.1512C344.915 55.3841 354.966 62.682 358.002 71.3503ZM348.852 62.0412C344.297 58.047 338.987 56.2605 332.912 56.8037C338.686 57.1525 344.022 58.8076 348.852 62.0412Z" fill="#324D18" fill-opacity="0.5"/>
<path d="M198.985 42.6104C199.429 38.5221 201.33 35.1058 204.109 32.2133C209.434 26.6748 215.879 23.4847 223.657 23.2258C226.016 23.1468 228.246 23.649 230.41 24.4963C231.283 24.8382 232.145 25.2925 232.134 26.4627C232.125 27.6595 231.265 27.9839 230.329 28.2822C223.814 30.3625 218.731 34.1931 215.39 40.2864C212.817 44.9738 208.681 47.37 203.432 47.9207C200.083 48.2703 198.844 47.1236 198.884 43.7307C198.889 43.3571 198.95 42.985 198.985 42.6104ZM201.284 40.0927C203.997 34.9988 207.804 30.9475 212.57 27.7713C207.077 30.2905 203.334 34.4271 201.284 40.0927Z" fill="#324D18" fill-opacity="0.5"/>
<path d="M209.875 54.1678C208.11 54.0565 206.435 53.5759 204.828 52.8634C204.18 52.5764 203.605 52.1942 203.727 51.329C203.831 50.5793 204.348 50.2798 205.007 50.1711C211.31 49.1479 215.46 45.3438 218.518 39.9383C221.613 34.4681 226.741 31.7373 232.576 30.1567C234.823 29.5459 236.405 30.7283 236.56 33.0739C236.724 35.5676 236.048 37.8926 234.951 40.1217C230.716 48.7351 219.414 55.074 209.875 54.1678ZM222.689 49.5602C228.462 46.9877 232.472 42.7362 234.609 36.7424C231.759 42.0615 227.861 46.3953 222.689 49.5602Z" fill="#324D18" fill-opacity="0.5"/>
<path d="M153.909 697.187C157.469 696.538 161.527 696.63 161.967 700.757C162.252 703.359 163.418 708.573 156.839 708.234C151.254 707.952 151.039 714.106 148.855 717.489C147.553 719.495 150.255 721.556 152.564 722.328C153.544 722.664 155.087 722.905 155.735 722.385C160.019 718.991 162.515 723.586 165.805 724.442C163.928 727.639 160.468 727.094 157.473 727.954C160.912 731.591 158.16 734.975 156.59 737.972C155.913 739.26 154.215 740.175 155.781 741.407C156.948 742.327 158.99 743.047 160.204 740.873C160.629 740.113 160.808 738.902 161.415 738.634C163.187 737.874 165.376 737.542 166.462 739.497C167.488 741.323 165.759 742.148 164.268 742.696C161.726 743.639 157.851 743.776 162.607 747.613C164.077 748.796 162.66 752.208 161.059 752.96C159.523 753.682 157.146 752.596 159.336 755.528C160.707 757.363 163.754 759.196 164.542 757.757C165.716 755.586 172.471 753.313 166.091 749.741C163.864 748.489 164.537 747.122 165.532 746.149C167.698 743.995 166.839 746.943 167.446 747.482C172.162 751.585 172.775 756.562 169.012 762.506C172.304 762.86 175.429 762.509 172.762 767.911C171.633 770.199 168.011 771.737 169.089 775.158C171.466 776.773 173.899 771.449 174.021 773.676C174.232 777.444 176.449 782.012 171.408 786.394C177.709 784.831 180.345 790.409 185.299 789.916C187.059 789.737 187.428 791.873 187.202 793.469C186.967 795.132 185.848 795.755 184.202 796.39C181.987 797.251 181.212 793.828 178.538 795.57C181.802 797.525 181.145 801.639 184.066 803.861C184.628 804.283 184.748 806.47 184.255 806.917C179.851 810.818 181.395 812.975 185.73 815.762C188.429 817.493 192.193 819.132 192.306 823.592C192.33 824.635 193.52 825.475 195.299 825.137C200.323 824.178 206.262 826.834 210.031 821.008C210.607 820.108 211.805 817.857 213.52 819.992C214.813 821.594 214.562 824.024 212.869 824.503C204.938 826.767 210.469 830.235 211.942 833.638C211.104 835.119 208.406 832.608 207.601 836.122C206.328 841.68 201.652 838.685 198.095 838.027C194.67 837.388 193.772 836.296 196.65 833.592C197.357 832.924 195.998 831.603 195.682 831.883C193.622 833.78 189.464 829.478 189.135 833.273C188.782 837.399 183.938 836.896 183.542 840.416C183.467 841.041 180.769 842.56 181.055 840.326C181.457 837.202 172.714 834.181 181.021 830.988C182.797 830.306 181.046 828.252 179.982 827.273C177.163 824.716 177.606 826.478 177.888 828.749C177.978 829.498 176.523 829.45 175.942 828.633C173.801 825.633 170.319 825.711 167.208 825.004C167.64 823.028 168.907 822.477 170.466 821.965C172.91 821.172 170.409 819.986 170.465 818.966C170.524 817.748 170.261 816.955 168.66 817.971C165.663 819.861 162.928 817.657 160.11 817.015C159.283 816.831 157.788 816.243 157.831 816.03C159.477 805.671 152.672 813.415 149.952 812.333C148.942 810.572 152.357 810.484 151.231 808.505C149.683 807.642 148.748 811.189 147.151 809.589C145.846 808.279 146.111 806.945 147.951 805.97C148.916 805.46 148.533 804.369 147.894 803.727C146.992 802.833 146.505 803.663 145.876 804.314C143.273 806.965 140.5 808.593 137.059 805.459C136.686 805.12 135.391 805.091 135.308 805.28C133.285 809.818 128.382 806.755 125.26 809.061C123.922 810.051 119.82 812.577 118.448 807.743C113.821 811.668 110.626 802.774 105.747 806.408C104.04 807.681 102.124 807.378 101.106 804.112C100.337 801.626 99.3518 798.213 95.1725 797.532C93.0299 797.187 94.8769 794.996 96.1096 794.553C97.1868 794.17 99.0378 795.031 98.8859 793.004C98.7588 791.213 97.155 788.927 95.8831 789.108C90.4015 789.878 85.6127 783.48 78.9303 789.395C80.4845 783.916 85.7661 787.158 86.1248 783.151C83.9979 783.4 81.9406 776.697 79.2196 783.158C78.5685 784.696 77.5394 783.901 76.7428 783.002C75.9042 782.052 74.8288 781.391 76.7611 780.134C78.9241 778.734 79.9107 776.228 80.7023 773.785C74.3573 770.396 73.324 781.94 66.7065 778.921C67.2276 776.346 75.2491 777.566 69.8552 772.294C68.9953 771.451 71.8271 769.687 73.5968 770.235C79.711 772.142 82.6241 768.261 86.2466 763.764C82.6855 763.304 80.3716 765.399 78.7082 766.484C74.972 768.926 72.6586 766.978 70.2481 765.207C67.6317 763.274 67.6082 760.632 68.7484 757.485C71.0736 751.03 69.6009 748.724 63.2185 747.543L63.2712 747.541C61.5694 745.14 57.6186 746.971 56.1029 742.976C55.1468 740.434 50.1425 739.622 51.6792 735.134C49.9941 734.965 50.604 728.805 47.0908 733.376C44.6729 731.183 39.611 732.434 38.8781 729.326C37.7794 724.676 41.8999 727.936 43.8448 727.207C43.0236 724.724 38.9847 720.971 45.6241 720.66C48.7855 720.505 51.9694 720.812 55.3412 720.911C53.9098 715.129 49.56 717.442 46.2936 717.337C45.9602 715.649 49.4594 714.844 46.8356 713.03C43.6788 710.846 41.6692 705.66 35.9468 709.877C38.8069 705.721 38.7318 701.483 40.3248 697.336C37.2283 697.197 38.5991 701.199 35.9601 700.694C34.7736 700.461 32.3552 699.879 33.1474 699.339C38.0931 695.979 30.4606 691.913 34.0331 688.555C34.5757 688.039 31.7052 687.123 32.7381 684.483C29.9642 686.891 32.1403 689.81 29.2429 691.312C27.1602 690.304 26.6638 687.171 27.0061 686.071C28.5723 681.106 23.3001 680.756 21.9947 677.821C21.5933 676.903 17.583 678.327 19.7692 674.97C21.2561 672.705 24.9366 672.908 25.2661 673.975C27.4292 680.951 32.9974 677.362 37.0428 678.274C36.9197 680.619 38.2317 682.338 40.3325 682.368C47.0842 682.46 43.6938 675.769 47.7344 672.533C42.3528 673.457 40.7345 677.896 36.8818 678.494C35.8011 676.644 36.1669 673.323 31.9218 675.077C30.8735 675.511 26.7473 672.132 27.2789 668.962C27.8522 665.565 33.099 665.665 34.0275 665.752C38.9229 666.226 43.3071 663.806 48.1043 663.624C54.6943 663.381 55.0582 667.313 55.9862 670.36C57.1976 674.343 56.5222 678.894 52.38 681.673C50.9604 682.614 50.5005 684.011 49.5366 686.172C55.6111 682.136 56.7011 688.226 59.2289 690.507C62.71 693.653 64.3676 694.88 65.082 688.966C65.375 686.587 67.7293 686.128 69.2916 688.377C70.6968 690.382 74.0962 692.396 74.1078 692.633C74.3158 698.779 85.7422 697.534 82.6812 705.954C81.9592 707.931 85.7823 709.7 87.9855 710.741C90.7698 712.058 88.1706 708.315 90.3227 707.773C91.7186 707.428 92.9322 705.783 94.8712 706.283C95.8337 706.526 96.7472 707.116 96.2365 708.013C95.1656 709.875 93.824 712.953 92.4541 713.02C87.6469 713.268 84.9921 718.114 79.7494 717.287C82.7286 721.779 86.3764 724.282 89.6952 727.079C92.5324 729.477 101.985 728.09 103.2 724.596C104.648 720.443 100.583 718.594 97.2593 717.052C99.0399 715.393 102.088 713.738 101.934 712.464C101.439 708.287 100.786 703.84 98.2621 700.291C97.0995 698.657 94.722 698.099 93.5082 700.55C92.5102 702.554 90.4974 702.163 89.0511 702.828C87.27 703.669 84.8121 704.436 85.9273 699.969C86.3797 698.15 86.2377 693.084 81.9571 691.681C81.4337 691.509 80.9234 690.252 80.9953 689.562C81.1586 687.77 82.7563 687.771 84.0041 687.909C91.3853 688.724 93.0801 684.228 92.9601 678.262C92.8921 674.712 94.6122 674.245 96.4287 676.56C99.4704 680.441 99.6558 675.861 101.04 675.278C104.12 673.991 102.595 671.701 101.083 670.758C96.7113 668.025 100.258 667.112 102.008 665.904C103.362 664.965 106.135 665.781 105.394 662.515C104.634 659.117 102.705 659.911 100.511 660.666C98.9914 661.189 98.0606 660.244 97.0079 658.697C99.9956 657.692 103.081 656.801 103.229 652.804C103.288 651.295 104.139 649.536 101.747 649.759C92.2175 650.647 97.4984 646.043 99.0819 642.781C102.881 640.006 102.22 638.097 97.9483 636.879C97.5813 633.964 102.867 632.965 100.762 629.078C102.15 630.464 103.821 631.677 104.863 633.277C108.049 638.234 111.417 638.796 115.547 634.407C116.564 633.326 119.482 633.065 118.872 634.363C117.891 636.445 123.151 637.073 119.443 638.748C119.017 638.94 118.594 639.753 118.631 640.24C118.849 643.335 125.678 646.634 128.834 644.762C129.244 647.741 125.621 651.155 129.759 653.423C131.909 652.565 129.248 649.181 131.911 648.826C135.007 648.41 135.691 651.601 136.947 653.257C140.207 657.55 147.725 659.811 152.433 656.992C154.036 656.028 155.377 656.98 156.825 656.896C158.537 656.799 160.533 659.542 161.873 656.715C162.484 655.43 161.924 653.423 160.45 652.715C158.544 651.805 156.76 649.355 154.135 652.099C152.803 653.486 148.893 655.341 148.783 653.894C148.486 649.984 141.894 648.298 145.371 643.518C145.878 642.819 146.234 641.996 146.769 641.322C147.915 639.919 144.453 635.821 149.092 636.717C152.704 637.412 151.019 641.022 151.629 643.78C156.296 640.936 160.504 636.542 166.704 640.203C168.009 640.971 170.043 640.7 168.665 642.762C165.232 647.897 169.198 649.355 172.373 650.825C173.155 653.852 168.187 652.166 169.668 654.643C170.287 655.696 170.141 657.302 171.48 657.936C169.386 654.274 175.159 655.141 174.925 651.704C174.742 649.044 173.022 645.456 176.394 642.873C177.68 641.885 178.775 640.524 180.266 641.31C183.165 642.82 179.747 643.396 179.652 644.418C179.534 645.785 179.844 647.276 180.344 648.572C181.402 651.321 181.922 653.317 177.954 654.251C176.557 654.584 175.068 657.061 174.807 658.751C174.604 659.99 176.971 660.337 178.347 660.943C181.059 662.132 182.205 660.715 183.302 658.851C181.814 657.048 179.865 659.574 178.453 657.966C183.437 656.04 186.224 657.304 186.811 661.758C186.853 662.073 187.314 662.328 187.579 662.606C184.146 663.698 180.77 665.118 177.256 665.634C176.509 665.75 175.407 665.354 175 666.22C172.928 670.549 172.075 670.934 166.79 669.501C166.187 669.332 165.607 669.07 164.787 668.78C165.463 668.284 165.918 667.879 166.432 667.576C168.256 666.549 170.806 666.306 170.849 663.397C170.871 661.969 169.939 661.275 168.788 661.49C166.591 661.914 164.258 659.571 162.076 663.02C159.073 667.764 157.992 663.471 156.954 661.157C154.527 660.654 158.989 668.205 153.41 664.012C152.113 665.832 152.244 667.979 152.028 670.051C156.713 668.91 155.984 678.577 162.059 675.096C162.483 674.851 165.246 676.275 164.247 678.266C163.346 680.08 162.106 681.99 160.481 683.06C159.612 683.645 157.432 682.813 157.51 680.629C157.699 674.768 153.201 678.105 151.421 678.153C147.741 678.24 147.759 681.568 148.061 684.513C148.531 688.982 151.187 685.523 152.801 685.853C153.415 685.982 154.017 686.151 154.659 686.318C154.712 690.648 150.51 689.493 148.614 691.224C149.021 687.135 143.736 688.688 143.132 685.771C141.52 677.923 138.59 683.087 135.772 684.863C128.01 689.76 140.956 691.228 137.504 695.426C137.454 695.495 138.246 696.579 138.711 696.636C139.163 696.693 139.97 696.178 140.197 695.704C142.807 690.213 144.87 693.243 147.067 696.055C148.926 698.422 150.785 701.343 153.848 697.283L153.909 697.187ZM104.223 726.607C109.546 727.47 107.716 732.698 109.632 735.432C110.313 736.403 110.101 738.012 111.9 737.805C112.451 737.738 113.421 737.044 113.406 737.018C112.196 734.395 113.787 731.834 113.559 729.335C112.802 720.877 107.284 727.646 104.223 726.607ZM55.564 737.084C58.4106 735.082 59.86 733.4 56.7722 730.737C55.4898 729.623 52.9496 728.44 54.8265 725.507C55.9176 723.79 53.8043 723.774 52.6772 723.406C51.4164 723.005 50.2145 722.457 49.425 724.133C48.8876 725.296 47.9157 727.021 49.4694 727.474C54.3717 728.899 55.3389 732.749 55.5647 737.097L55.564 737.084ZM95.3079 697.119C96.9254 694.015 97.4136 690.226 95.0928 688.397C93.0055 686.755 90.6214 689.844 88.3528 691.514C92.5249 691.508 91.8932 696.414 95.3079 697.119ZM76.0288 732.741C76.0617 730.983 73.8826 729.623 75.6243 727.979C77.0008 726.696 77.1215 725.382 75.3668 724.332C73.1502 723.013 72.0234 724.812 71.3408 726.246C69.1375 730.872 72.6225 731.666 76.0156 732.742L76.0288 732.741ZM122.192 646.897C118.722 645.877 115.155 648.007 112.409 645.301C111.521 644.433 110.413 644.183 109.998 645.683C109.662 646.915 110.509 647.494 111.705 647.911C115.063 649.095 118.349 650.136 122.191 646.884L122.192 646.897Z" fill="#455F2D"/>
<path d="M276.271 827.273C273.992 825.4 271.913 822.825 274.25 820.379C275.72 818.831 278.351 815.36 281.604 819.634C284.37 823.259 288.313 820.152 291.569 819.731C293.503 819.485 293.363 816.718 292.628 814.875C292.321 814.088 291.658 813 290.993 812.871C286.626 811.991 288.172 808.019 286.973 805.52C289.951 805.005 291.433 807.445 293.545 808.857C293.998 804.801 297.554 804.733 300.246 804.132C301.404 803.875 302.868 804.45 302.81 802.828C302.768 801.616 302.141 799.967 300.149 800.355C299.452 800.491 298.604 801.017 298.118 800.78C296.712 800.078 295.353 798.89 295.998 797.185C296.594 795.584 298.017 796.226 299.144 796.866C301.07 797.952 303.195 800.292 303.079 795.312C303.041 793.773 305.911 792.859 307.222 793.46C308.48 794.035 309.056 796.087 309.727 793.18C310.148 791.361 309.685 788.499 308.374 788.766C306.404 789.178 301.434 786.17 302.569 792.022C302.962 794.067 301.757 794.368 300.627 794.261C298.146 794.047 300.434 793.03 300.45 792.368C300.52 787.272 303.296 784.27 308.977 783.483C307.464 781.248 305.6 779.487 310.367 778.303C312.385 777.802 315.25 779.247 316.812 776.774C316.566 774.445 311.97 775.733 313.292 774.485C315.527 772.37 317.203 768.585 322.584 769.415C318.294 766.316 320.379 761.738 317.463 758.915C316.425 757.913 317.561 756.559 318.673 755.859C319.832 755.13 320.809 755.498 322.071 756.188C323.773 757.114 322.05 759.399 324.543 760.146C324.041 757.085 326.948 755.328 326.793 752.34C326.76 751.768 328.058 750.542 328.595 750.614C333.343 751.301 333.872 749.204 333.325 745.038C332.981 742.447 332.02 739.241 334.737 736.823C335.372 736.259 335.269 735.076 334.122 734.146C330.88 731.524 329.406 726.429 323.796 727.15C322.932 727.265 320.9 727.705 321.327 725.513C321.643 723.865 323.287 722.742 324.477 723.544C330.061 727.288 329.309 722.02 330.651 719.311C332.014 719.054 331.872 722.054 334.483 720.706C338.613 718.572 339.21 723.059 340.673 725.62C342.079 728.088 341.872 729.222 338.674 728.854C337.885 728.766 337.779 730.307 338.119 730.357C340.385 730.64 339.896 735.493 342.432 733.7C345.186 731.747 347.423 735.027 349.822 733.42C350.251 733.138 352.617 734.018 351.076 735.015C348.919 736.41 351.642 743.443 345.281 739.953C343.922 739.207 343.565 741.378 343.516 742.556C343.408 745.657 344.272 744.454 345.537 743.082C345.956 742.632 346.692 743.563 346.49 744.355C345.749 747.266 347.631 749.393 348.829 751.701C347.371 752.473 346.361 751.975 345.222 751.274C343.441 750.17 344.02 752.351 343.356 752.853C342.566 753.458 342.211 754.039 343.686 754.501C346.441 755.371 346.509 758.234 347.593 760.326C347.914 760.938 348.335 762.178 348.18 762.264C340.865 766.693 349.268 766.851 350.026 769.114C349.462 770.67 347.61 768.59 346.971 770.333C347.249 771.751 349.949 770.466 349.794 772.302C349.665 773.804 348.696 774.342 347.12 773.709C346.294 773.377 345.817 774.19 345.753 774.926C345.672 775.958 346.445 775.824 347.181 775.873C350.202 776.098 352.675 776.966 352.536 780.758C352.521 781.169 353.185 781.99 353.347 781.942C357.236 780.812 357.911 785.477 360.99 786.206C362.311 786.518 366.043 787.741 363.756 791.14C368.635 791.954 364.781 798.625 369.612 799.749C371.303 800.142 372.123 801.494 370.626 803.847C369.484 805.634 367.878 808.044 369.654 811.004C370.568 812.519 368.232 812.523 367.307 811.989C366.501 811.52 366.063 809.915 364.881 811.077C363.833 812.099 363.255 814.301 364.037 814.997C367.402 818.004 365.941 824.353 373.141 825.398C368.912 827.316 368.15 822.321 365.467 824.207C366.742 825.4 363.652 830.21 369.107 828.502C370.407 828.097 370.454 829.156 370.313 830.126C370.164 831.148 370.318 832.165 368.519 831.624C366.508 831.015 364.429 831.72 362.492 832.514C363.723 838.247 371.452 832.813 373.057 838.521C371.18 839.553 367.716 833.917 367.274 840.051C367.202 841.03 364.614 840.195 364.023 838.806C361.991 833.996 358.041 834.226 353.335 834.339C354.924 836.797 357.446 837.135 358.997 837.599C362.484 838.639 362.489 841.104 362.656 843.537C362.83 846.184 361.199 847.589 358.639 848.536C353.397 850.487 352.737 852.618 355.362 857.212L355.333 857.181C354.735 859.504 357.955 860.999 356.266 864.046C355.187 865.98 357.316 869.522 353.713 870.929C354.496 872.066 350.34 874.93 355.035 874.71C354.943 877.37 358.387 879.862 356.838 881.955C354.522 885.086 354.382 880.805 352.904 879.979C351.791 881.797 351.581 886.287 347.892 882.318C346.131 880.432 344.646 878.288 342.932 876.137C340.087 880.073 343.817 881.562 345.471 883.651C344.596 884.747 342.253 882.993 342.505 885.581C342.808 888.696 340.637 892.677 346.275 894.019C342.182 894.427 339.584 896.704 336.164 897.896C337.708 899.897 339.477 896.936 340.552 898.845C341.032 899.706 341.943 901.518 341.189 901.309C336.494 900 337.982 906.891 334.01 906.436C333.404 906.369 334.345 908.639 332.158 909.386C335.117 909.844 335.788 906.953 338.249 907.966C338.718 909.793 337.029 911.751 336.164 912.117C332.249 913.756 334.807 917.222 333.667 919.58C333.307 920.314 336.305 922.06 333.065 922.466C330.872 922.734 329.06 920.336 329.551 919.569C332.754 914.55 327.589 912.973 326.027 909.975C327.551 908.817 327.931 907.095 326.843 905.772C323.346 901.521 320.966 907.154 316.824 906.342C320.233 909.206 323.848 907.876 326.248 909.96C325.666 911.606 323.406 913.127 326.733 914.846C327.555 915.27 327.624 919.617 325.371 920.955C322.955 922.387 320.255 919.068 319.82 918.444C317.538 915.148 313.723 913.693 311.084 910.803C307.463 906.829 309.719 904.532 311.127 902.35C312.969 899.499 316.157 897.523 320.068 898.639C321.401 899.027 322.512 898.578 324.365 898.04C318.655 896.384 321.871 892.499 321.96 889.725C322.086 885.902 321.977 884.224 317.919 886.893C316.284 887.963 314.759 886.739 315.337 884.583C315.845 882.652 315.309 879.476 315.45 879.344C319.167 875.978 312.375 869.522 319.228 866.994C320.839 866.402 319.927 863.092 319.415 861.172C318.769 858.745 317.807 862.334 316.337 861.28C315.387 860.593 313.725 860.703 313.015 859.233C312.66 858.506 312.546 857.627 313.373 857.473C315.096 857.159 317.718 856.373 318.481 857.191C321.166 860.052 325.581 859.153 327.826 862.852C329.053 858.633 328.691 855.044 328.685 851.506C328.684 848.477 322.844 843.324 320.029 844.407C316.682 845.693 317.671 849.196 318.461 852.077C316.491 851.842 313.856 850.816 313.144 851.583C310.805 854.09 308.38 856.838 307.5 860.277C307.095 861.861 307.999 863.635 310.164 863.1C311.937 862.666 312.753 864.125 313.929 864.675C315.39 865.341 317.161 866.467 313.794 868.125C312.423 868.801 309.345 871.556 310.725 874.959C310.893 875.376 310.38 876.355 309.912 876.674C308.711 877.515 307.871 876.52 307.299 875.671C303.92 870.648 300.23 871.96 296.58 875.175C294.405 877.087 293.209 876.262 293.694 873.912C294.508 869.976 291.56 872.272 290.468 871.717C288.046 870.478 287.423 872.632 287.632 874.07C288.233 878.23 285.797 876.503 284.123 876.05C282.827 875.701 281.874 873.546 280.231 875.727C278.516 877.989 280.026 878.771 281.651 879.74C282.777 880.41 282.679 881.487 282.27 882.957C280.072 881.626 277.892 880.174 275.327 882.187C274.357 882.945 272.813 883.341 274.212 884.713C279.782 890.176 274.135 889.314 271.271 890.045C267.544 889.141 266.703 890.558 268.194 893.858C266.573 895.621 263.169 892.857 261.857 896.213C261.989 894.62 261.865 892.942 262.312 891.45C263.72 886.857 262.296 884.465 257.39 884.206C256.182 884.141 254.483 882.463 255.612 882.159C257.425 881.673 255.047 878.069 258.041 879.495C258.385 879.659 259.114 879.494 259.397 879.214C261.209 877.45 259.667 871.462 256.84 870.483C258.479 868.659 262.511 869.117 261.744 865.347C260.078 864.461 259.372 867.899 257.75 866.428C255.861 864.72 257.487 862.614 257.856 860.96C258.812 856.671 256.262 850.801 252.028 849.355C250.584 848.864 250.471 847.529 249.656 846.671C248.694 845.657 249.351 842.971 246.885 843.624C245.764 843.921 244.81 845.326 245.145 846.616C245.582 848.282 244.996 850.682 248.087 850.871C249.651 850.97 252.864 852.427 252.021 853.258C249.744 855.501 252.165 860.492 247.359 860.845C246.657 860.897 245.958 861.109 245.257 861.13C243.78 861.156 243.051 865.468 241.167 862.109C239.698 859.495 242.832 858.643 244.228 856.811C240 855.404 235.05 855.097 234.064 849.311C233.855 848.094 232.616 846.971 234.625 846.743C239.629 846.176 238.448 842.94 237.691 840.19C239.164 838.11 240.73 842.09 241.492 839.864C241.821 838.924 242.898 838.169 242.588 837.002C241.411 840.234 238.911 836.184 236.895 838.139C235.336 839.653 234.008 842.613 230.624 841.873C229.333 841.593 227.909 841.628 227.613 840.287C227.026 837.687 229.185 839.511 229.871 839.032C230.784 838.386 231.548 837.408 232.093 836.415C233.246 834.308 234.215 832.934 236.886 834.912C237.828 835.606 240.154 835.229 241.344 834.502C242.222 833.976 241.191 832.32 240.844 831.144C240.156 828.83 238.671 828.863 236.933 829.161C236.594 831.037 239.193 830.92 238.935 832.646C235.112 830.557 234.432 828.158 236.895 825.447C237.069 825.255 236.985 824.833 237.019 824.523C239.506 826.084 242.168 827.438 244.338 829.354C244.803 829.758 245.138 830.652 245.89 830.449C249.676 829.46 250.365 829.788 252.256 833.833C252.468 834.296 252.61 834.796 252.861 835.459C252.197 835.299 251.705 835.229 251.246 835.069C249.646 834.474 248.152 833.015 246.319 834.52C245.419 835.257 245.477 836.203 246.217 836.807C247.638 837.951 247.408 840.637 250.703 840.179C255.238 839.55 253.134 842.484 252.24 844.348C253.206 846.123 255.556 839.371 255.883 845.051C257.699 844.9 258.967 843.688 260.37 842.731C257.193 840.416 263.594 835.78 258.229 833.831C257.853 833.697 257.285 831.227 259.05 830.801C260.654 830.407 262.496 830.173 264.017 830.621C264.839 830.854 265.469 832.649 264.068 833.75C260.32 836.718 264.766 837.761 265.732 838.844C267.724 841.088 269.787 839.325 271.46 837.587C273.995 834.942 270.443 835.109 269.799 833.931C269.556 833.481 269.344 833.017 269.11 832.53C271.778 830.217 273.271 833.441 275.347 833.709C272.587 835.609 276.336 838.081 274.839 839.992C270.802 845.127 275.559 844.233 278.148 845.052C285.283 847.305 279.381 838.474 283.812 838.412C283.881 838.407 284.138 837.343 283.929 837.024C283.726 836.713 282.981 836.482 282.567 836.589C277.774 837.856 278.575 834.976 279.168 832.128C279.663 829.725 280.502 827.03 276.362 827.261L276.271 827.273ZM320.742 842.712C318.476 838.944 322.695 837.331 323.388 834.699C323.633 833.764 324.746 833.048 323.67 832.038C323.339 831.73 322.396 831.492 322.387 831.514C321.392 833.649 318.96 834.007 317.525 835.465C312.658 840.389 319.778 840.259 320.742 842.712ZM352.882 867.484C350.137 866.766 348.327 866.749 348.295 870.074C348.277 871.458 348.878 873.662 346.064 874.038C344.421 874.263 345.524 875.587 345.888 876.482C346.302 877.478 346.593 878.515 348.053 878.123C349.059 877.846 350.645 877.542 350.109 876.337C348.415 872.535 350.302 869.906 352.89 867.476L352.882 867.484ZM307.081 863.786C304.297 864.414 301.682 866.105 301.765 868.512C301.842 870.676 305.02 870.533 307.254 871.066C305.054 868.472 308.44 866.283 307.081 863.786ZM339.404 857.032C338.292 857.937 338.593 860.01 336.653 859.791C335.13 859.609 334.248 860.226 334.518 861.871C334.865 863.945 336.578 863.699 337.829 863.369C341.869 862.305 340.528 859.718 339.412 857.04L339.404 857.032ZM261.666 873.494C262.858 876.19 266.062 877.289 265.823 880.423C265.75 881.433 266.178 882.254 267.33 881.723C268.274 881.283 268.189 880.451 267.819 879.487C266.787 876.773 265.706 874.18 261.658 873.501L261.666 873.494Z" fill="#455F2D"/>
</svg>
