<svg width="375" height="97" viewBox="0 0 375 97" fill="none" xmlns="http://www.w3.org/2000/svg">
<path d="M383.328 80.8279C383.28 83.8919 382.105 86.5579 380.243 88.8958C376.674 93.3726 372.113 96.1843 366.36 96.9132C364.615 97.1347 362.925 96.916 361.261 96.4366C360.59 96.2432 359.919 95.9657 359.846 95.0967C359.771 94.208 360.386 93.9081 361.06 93.6221C365.75 91.629 369.257 88.4361 371.316 83.6845C372.901 80.029 375.804 77.9658 379.661 77.1949C382.122 76.7043 383.121 77.4696 383.325 79.9898C383.347 80.2673 383.328 80.5476 383.328 80.8279ZM381.795 82.8547C380.134 86.8214 377.589 90.09 374.272 92.7755C378.173 90.5273 380.665 87.1998 381.795 82.8547Z" fill="#A4A66E"/>
<path d="M374.45 73.0042C375.767 72.9649 377.043 73.206 378.284 73.6237C378.785 73.7919 379.238 74.0358 379.207 74.6861C379.182 75.2496 378.818 75.5075 378.337 75.6336C373.731 76.8278 370.915 79.9367 369.019 84.1584C367.1 88.4306 363.484 90.8106 359.264 92.3861C357.639 92.9944 356.383 92.2263 356.106 90.4967C355.813 88.6577 356.154 86.886 356.814 85.1564C359.362 78.4734 367.31 72.9901 374.45 73.0042ZM365.26 77.3072C361.154 79.6143 358.472 83.0455 357.3 87.6401C359.048 83.4969 361.641 80.0124 365.26 77.3072Z" fill="#A4A66E"/>
<path d="M2.61696 54.5249C5.09737 54.6684 7.21673 55.7112 9.04683 57.3002C12.5512 60.3443 14.6726 64.1358 15.066 68.821C15.1856 70.2423 14.9506 71.6032 14.5053 72.9348C14.3256 73.4719 14.0778 74.0061 13.3714 74.0352C12.6489 74.066 12.427 73.5573 12.2185 73.0015C10.7645 69.1339 8.29813 66.1835 4.51953 64.3533C1.61265 62.9435 0.0407284 60.5212 -0.45166 57.3706C-0.764763 55.3601 -0.110621 54.5775 1.93787 54.4985C2.16345 54.4899 2.38987 54.5153 2.61696 54.5249ZM4.20629 55.8359C7.36265 57.3175 9.92331 59.4911 11.9852 62.27C10.2976 59.0325 7.68742 56.9 4.20629 55.8359Z" fill="#A4A66E"/>
<path d="M-4.02485 61.4484C-4.01153 60.38 -3.77255 59.3552 -3.39166 58.3636C-3.23826 57.9638 -3.02518 57.6051 -2.49939 57.6523C-2.04381 57.692 -1.84735 57.9954 -1.76164 58.3894C-0.952019 62.1616 1.4699 64.5495 4.82487 66.2302C8.21994 67.9307 10.024 70.9416 11.1557 74.4142C11.5928 75.7514 10.9276 76.7423 9.517 76.9073C8.01726 77.0822 6.59377 76.7451 5.21525 76.1512C-0.111206 73.8584 -4.28076 67.2319 -4.02485 61.4484ZM-0.853857 69.0404C0.874436 72.4453 3.5621 74.7355 7.2439 75.8421C3.94744 74.2842 1.21357 72.0647 -0.853857 69.0404Z" fill="#A4A66E"/>
<path d="M238.277 22.2744C240.758 22.4179 242.877 23.4607 244.707 25.0497C248.211 28.0939 250.333 31.8853 250.726 36.5705C250.846 37.9918 250.611 39.3527 250.165 40.6843C249.986 41.2214 249.738 41.7556 249.032 41.7847C248.309 41.8155 248.087 41.3068 247.879 40.751C246.425 36.8834 243.958 33.933 240.18 32.1028C237.273 30.693 235.701 28.2707 235.208 25.1201C234.895 23.1096 235.55 22.3271 237.598 22.248C237.824 22.2394 238.05 22.2648 238.277 22.2744ZM239.866 23.5854C243.023 25.067 245.583 27.2406 247.645 30.0195C245.958 26.7821 243.348 24.6495 239.866 23.5854Z" fill="#A4A66E"/>
<path d="M231.635 29.1979C231.649 28.1295 231.888 27.1047 232.268 26.1131C232.422 25.7133 232.635 25.3546 233.161 25.4018C233.616 25.4415 233.813 25.7449 233.899 26.1389C234.708 29.9111 237.13 32.299 240.485 33.9797C243.88 35.6802 245.684 38.6911 246.816 42.1637C247.253 43.5009 246.588 44.4918 245.177 44.6568C243.677 44.8317 242.254 44.4947 240.875 43.9007C235.549 41.6079 231.379 34.9814 231.635 29.1979ZM234.806 36.7899C236.535 40.1948 239.222 42.485 242.904 43.5916C239.608 42.0337 236.874 39.8142 234.806 36.7899Z" fill="#A4A66E"/>
<path d="M153.277 -5.72557C155.758 -5.58211 157.877 -4.53927 159.707 -2.95033C163.211 0.0938528 165.333 3.88528 165.726 8.57048C165.846 9.99177 165.611 11.3527 165.165 12.6843C164.986 13.2214 164.738 13.7556 164.032 13.7847C163.309 13.8155 163.087 13.3068 162.879 12.751C161.425 8.88338 158.958 5.93302 155.18 4.10282C152.273 2.69305 150.701 0.270734 150.208 -2.87987C149.895 -4.89036 150.55 -5.67295 152.598 -5.75201C152.824 -5.76063 153.05 -5.73517 153.277 -5.72557ZM154.866 -4.41463C158.023 -2.93303 160.583 -0.759418 162.645 2.01951C160.958 -1.21794 158.348 -3.35052 154.866 -4.41463Z" fill="#A4A66E"/>
<path d="M146.635 1.19793C146.649 0.129511 146.888 -0.895322 147.268 -1.88692C147.422 -2.28669 147.635 -2.64536 148.161 -2.59816C148.616 -2.55847 148.813 -2.25512 148.899 -1.86113C149.708 1.91114 152.13 4.29904 155.485 5.97969C158.88 7.68018 160.684 10.6911 161.816 14.1637C162.253 15.5009 161.588 16.4918 160.177 16.6568C158.677 16.8317 157.254 16.4947 155.875 15.9007C150.549 13.6079 146.379 6.98141 146.635 1.19793ZM149.806 8.78992C151.535 12.1948 154.222 14.485 157.904 15.5916C154.608 14.0337 151.874 11.8142 149.806 8.78992Z" fill="#A4A66E"/>
</svg>
