<svg width="375" height="97" viewBox="0 0 375 97" fill="none" xmlns="http://www.w3.org/2000/svg">
<path d="M383.327 80.8279C383.279 83.8919 382.104 86.5579 380.242 88.8958C376.673 93.3726 372.112 96.1843 366.359 96.9132C364.614 97.1347 362.924 96.916 361.26 96.4366C360.589 96.2432 359.918 95.9657 359.845 95.0967C359.77 94.208 360.385 93.9081 361.059 93.6221C365.749 91.629 369.256 88.4361 371.315 83.6845C372.9 80.029 375.803 77.9658 379.66 77.1949C382.121 76.7043 383.12 77.4696 383.324 79.9898C383.346 80.2673 383.327 80.5476 383.327 80.8279ZM381.794 82.8547C380.133 86.8214 377.588 90.09 374.271 92.7755C378.172 90.5273 380.664 87.1998 381.794 82.8547Z" fill="#A4A66E"/>
<path d="M374.45 73.0042C375.767 72.9649 377.043 73.206 378.284 73.6237C378.785 73.7919 379.238 74.0358 379.207 74.6861C379.182 75.2496 378.818 75.5075 378.337 75.6336C373.731 76.8278 370.915 79.9367 369.019 84.1584C367.1 88.4306 363.484 90.8106 359.264 92.3861C357.639 92.9944 356.383 92.2263 356.106 90.4967C355.813 88.6577 356.154 86.886 356.814 85.1564C359.362 78.4734 367.31 72.9901 374.45 73.0042ZM365.26 77.3072C361.154 79.6143 358.472 83.0455 357.3 87.6401C359.048 83.4969 361.641 80.0124 365.26 77.3072Z" fill="#A4A66E"/>
<path d="M4.16989 62.3561C7.39073 62.5424 10.1427 63.8966 12.5191 65.9598C17.0695 69.9127 19.8242 74.8359 20.335 80.9196C20.4903 82.7652 20.1852 84.5323 19.6069 86.2614C19.3736 86.9588 19.0518 87.6525 18.1345 87.6903C17.1964 87.7302 16.9083 87.0697 16.6375 86.348C14.7495 81.3259 11.5469 77.4949 6.64039 75.1183C2.8658 73.2877 0.824656 70.1424 0.185288 66.0513C-0.221277 63.4407 0.628128 62.4245 3.2881 62.3218C3.58102 62.3106 3.87502 62.3437 4.16989 62.3561ZM6.23365 64.0584C10.3322 65.9823 13.6572 68.8047 16.3346 72.4132C14.1432 68.2093 10.7539 65.4402 6.23365 64.0584Z" fill="#A4A66E"/>
<path d="M-4.45435 71.3465C-4.43705 69.9591 -4.12674 68.6284 -3.63215 67.3408C-3.43296 66.8217 -3.15627 66.356 -2.47354 66.4172C-1.88197 66.4688 -1.62686 66.8627 -1.51556 67.3743C-0.46427 72.2726 2.6806 75.3733 7.03703 77.5556C11.4455 79.7637 13.7882 83.6733 15.2577 88.1826C15.8253 89.9189 14.9615 91.2056 13.1298 91.4199C11.1824 91.647 9.33395 91.2093 7.54395 90.4381C0.627528 87.4609 -4.78665 78.8563 -4.45435 71.3465ZM-0.336807 81.2047C1.90739 85.6259 5.39733 88.5997 10.1782 90.0367C5.8977 88.0138 2.34775 85.1317 -0.336807 81.2047Z" fill="#A4A66E"/>
<path d="M226.332 43.1647C226.374 40.481 227.403 38.1459 229.034 36.0981C232.16 32.1768 236.155 29.714 241.194 29.0756C242.723 28.8816 244.203 29.0731 245.66 29.493C246.248 29.6624 246.836 29.9055 246.9 30.6667C246.966 31.4451 246.427 31.7078 245.837 31.9582C241.728 33.704 238.657 36.5007 236.854 40.6627C235.465 43.8645 232.922 45.6717 229.544 46.3469C227.388 46.7766 226.514 46.1063 226.335 43.8989C226.315 43.6558 226.332 43.4103 226.332 43.1647ZM227.675 41.3895C229.13 37.9151 231.359 35.052 234.264 32.6998C230.847 34.669 228.664 37.5836 227.675 41.3895Z" fill="#A4A66E"/>
<path d="M234.108 50.0178C232.954 50.0522 231.837 49.8411 230.75 49.4752C230.311 49.3279 229.914 49.1143 229.941 48.5446C229.963 48.0511 230.282 47.8252 230.703 47.7147C234.738 46.6687 237.205 43.9456 238.865 40.2478C240.546 36.5057 243.713 34.4211 247.41 33.0412C248.833 32.5083 249.933 33.1811 250.176 34.6961C250.433 36.3068 250.134 37.8587 249.556 39.3737C247.324 45.2273 240.362 50.0301 234.108 50.0178ZM242.158 46.2488C245.754 44.228 248.103 41.2226 249.13 37.1982C247.599 40.8273 245.328 43.8793 242.158 46.2488Z" fill="#A4A66E"/>
<path d="M152.367 -5.76268C155.516 -5.58056 158.207 -4.2567 160.53 -2.2396C164.979 1.6249 167.672 6.438 168.171 12.3857C168.323 14.19 168.025 15.9176 167.459 17.608C167.231 18.2899 166.917 18.9681 166.02 19.0051C165.103 19.0441 164.821 18.3983 164.556 17.6927C162.71 12.7829 159.579 9.03754 154.783 6.71416C151.092 4.9245 149.097 1.84945 148.472 -2.15015C148.074 -4.7024 148.905 -5.69587 151.505 -5.79625C151.792 -5.80719 152.079 -5.77487 152.367 -5.76268ZM154.385 -4.09848C158.392 -2.21763 161.643 0.541701 164.26 4.06947C162.118 -0.0403782 158.804 -2.74762 154.385 -4.09848Z" fill="#A4A66E"/>
<path d="M143.935 3.0265C143.952 1.67018 144.256 0.36918 144.739 -0.889624C144.934 -1.39712 145.204 -1.85244 145.872 -1.79253C146.45 -1.74214 146.7 -1.35704 146.808 -0.856875C147.836 3.9319 150.911 6.96326 155.17 9.09679C159.48 11.2555 161.77 15.0777 163.207 19.4862C163.762 21.1836 162.917 22.4416 161.126 22.6511C159.223 22.8731 157.415 22.4452 155.665 21.6913C148.904 18.7806 143.611 10.3684 143.935 3.0265ZM147.961 12.6643C150.155 16.9867 153.567 19.894 158.241 21.2988C154.056 19.3211 150.585 16.5035 147.961 12.6643Z" fill="#A4A66E"/>
</svg>
