<svg width="10" height="11" viewBox="0 0 10 11" fill="none" xmlns="http://www.w3.org/2000/svg">
<path d="M3.07583 0.061139C4.19999 0.10134 5.16968 0.552235 6.0139 1.2532C7.63044 2.59616 8.62849 4.29114 8.85327 6.40792C8.92159 7.05005 8.8288 7.66839 8.64051 8.27555C8.56454 8.52046 8.4577 8.76474 8.13822 8.78498C7.81152 8.80609 7.70601 8.57805 7.60607 8.32856C6.9094 6.59244 5.7636 5.28159 4.03501 4.49086C2.70519 3.88173 1.96953 2.80098 1.71524 1.37981C1.55347 0.47291 1.84175 0.112158 2.76819 0.0559418C2.87021 0.0497911 2.97295 0.0590574 3.07583 0.061139ZM3.80829 0.638671C5.25175 1.27782 6.43247 2.23614 7.39346 3.47343C6.59731 2.02487 5.39459 1.08561 3.80829 0.638671Z" fill="#E8D5B0"/>
<path d="M0.138524 3.26095C0.133901 2.77721 0.23185 2.31095 0.394367 1.85832C0.459814 1.67584 0.552686 1.51137 0.791147 1.52749C0.997755 1.54091 1.08971 1.67626 1.13243 1.85374C1.53651 3.55314 2.65657 4.60983 4.19191 5.3371C5.74561 6.07295 6.59223 7.4178 7.1391 8.97837C7.35029 9.57925 7.05907 10.0344 6.42222 10.1232C5.74513 10.2173 5.09744 10.0789 4.46755 9.82384C2.03374 8.83914 0.0803618 5.88132 0.138524 3.26095ZM1.64954 6.66575C2.46578 8.18967 3.70516 9.1995 5.38271 9.66369C3.87508 8.9914 2.61549 8.01403 1.64954 6.66575Z" fill="#E8D5B0"/>
</svg>
