<svg width="389" height="1712" viewBox="0 0 389 1712" fill="none" xmlns="http://www.w3.org/2000/svg">
<rect y="373" width="389" height="1339" fill="#455F2D"/>
<path d="M19.6278 92.1712C22.7812 92.2839 25.5013 93.5488 27.8695 95.5151C32.4041 99.2823 35.2037 104.037 35.8343 109.975C36.0259 111.776 35.7656 113.511 35.2375 115.214C35.0243 115.901 34.7247 116.586 33.8285 116.643C32.912 116.702 32.616 116.062 32.3357 115.362C30.3814 110.492 27.1673 106.815 22.3184 104.597C18.5881 102.888 16.5244 99.8568 15.8111 95.8702C15.3573 93.3262 16.166 92.3143 18.7648 92.1566C19.051 92.1393 19.3392 92.1653 19.6278 92.1712ZM21.6824 93.7912C25.7315 95.5841 29.0436 98.2724 31.7393 101.743C29.506 97.6797 26.1322 95.045 21.6824 93.7912Z" fill="#3C5623"/>
<path d="M11.3886 101.147C11.3756 99.7898 11.6504 98.4819 12.1063 97.2122C12.2898 96.7003 12.5504 96.2389 13.2193 96.2841C13.7988 96.3218 14.0568 96.7015 14.1766 97.1993C15.3101 101.966 18.4521 104.931 22.7589 106.971C27.1172 109.035 29.4921 112.807 31.0262 117.185C31.6186 118.87 30.8017 120.147 29.0152 120.396C27.1159 120.66 25.299 120.272 23.5321 119.557C16.7049 116.794 11.2254 108.497 11.3886 101.147ZM15.6272 110.698C17.9169 114.972 21.3935 117.805 26.0993 119.107C21.8701 117.221 18.3368 114.48 15.6272 110.698Z" fill="#3C5623"/>
<path d="M263.002 73.1519C260.733 73.9121 258.465 73.7392 256.261 72.9746C252.038 71.509 248.784 68.8802 246.754 64.8336C246.138 63.6061 245.861 62.3056 245.782 60.956C245.75 60.4116 245.78 59.8453 246.401 59.5663C247.036 59.28 247.416 59.6552 247.802 60.0772C250.487 63.0132 253.748 64.7667 257.781 65.0491C260.884 65.2679 263.156 66.8698 264.725 69.5094C265.725 71.1941 265.42 72.1279 263.618 72.9323C263.419 73.0208 263.208 73.0791 263.002 73.1519ZM261.111 72.5495C257.76 72.3559 254.692 71.3304 251.854 69.5852C254.522 71.8742 257.619 72.8453 261.111 72.5495Z" fill="#324D18" fill-opacity="0.5"/>
<path d="M266.457 64.5855C266.828 65.5452 266.982 66.5468 266.996 67.5695C267.003 67.9817 266.941 68.3786 266.454 68.5248C266.032 68.6525 265.748 68.4517 265.53 68.1303C263.456 65.0487 260.436 63.782 256.835 63.4816C253.191 63.1778 250.501 61.133 248.245 58.4346C247.376 57.3961 247.615 56.2721 248.817 55.6193C250.095 54.9258 251.488 54.7172 252.932 54.7543C258.514 54.8957 264.615 59.3248 266.457 64.5855ZM260.904 58.9358C258.14 56.5117 254.917 55.4275 251.23 55.7572C254.734 55.9689 257.973 56.9733 260.904 58.9358Z" fill="#324D18" fill-opacity="0.5"/>
<path d="M352.628 134.992C355.781 135.105 358.501 136.37 360.869 138.336C365.404 142.103 368.204 146.858 368.834 152.796C369.026 154.597 368.766 156.331 368.237 158.035C368.024 158.722 367.725 159.407 366.828 159.464C365.912 159.523 365.616 158.883 365.336 158.183C363.381 153.313 360.167 149.636 355.318 147.418C351.588 145.709 349.524 142.678 348.811 138.691C348.357 136.147 349.166 135.135 351.765 134.977C352.051 134.96 352.339 134.986 352.628 134.992ZM354.682 136.612C358.732 138.405 362.044 141.093 364.739 144.564C362.506 140.501 359.132 137.866 354.682 136.612Z" fill="#3C5623"/>
<path d="M344.389 143.968C344.376 142.611 344.65 141.303 345.106 140.033C345.29 139.521 345.55 139.06 346.219 139.105C346.799 139.143 347.057 139.522 347.177 140.02C348.31 144.787 351.452 147.751 355.759 149.791C360.117 151.856 362.492 155.628 364.026 160.006C364.619 161.691 363.802 162.968 362.015 163.217C360.116 163.481 358.299 163.093 356.532 162.377C349.705 159.615 344.225 151.318 344.389 143.968ZM348.627 153.518C350.917 157.793 354.393 160.626 359.099 161.928C354.87 160.042 351.337 157.301 348.627 153.518Z" fill="#3C5623"/>
<path fill-rule="evenodd" clip-rule="evenodd" d="M0 379.614H389V58.8867C334.277 22.5066 266.019 0.914795 192 0.914795C120.218 0.914795 53.8553 21.2208 0 55.6279V379.614Z" fill="#455F2D"/>
<path d="M23.6278 106.171C26.7812 106.284 29.5013 107.549 31.8695 109.515C36.4041 113.282 39.2037 118.037 39.8343 123.975C40.0259 125.776 39.7656 127.511 39.2375 129.214C39.0243 129.901 38.7247 130.586 37.8285 130.643C36.912 130.702 36.616 130.062 36.3357 129.362C34.3814 124.492 31.1673 120.815 26.3184 118.597C22.5881 116.888 20.5244 113.857 19.8111 109.87C19.3573 107.326 20.166 106.314 22.7648 106.157C23.051 106.139 23.3392 106.165 23.6278 106.171ZM25.6824 107.791C29.7315 109.584 33.0436 112.272 35.7393 115.743C33.506 111.68 30.1322 109.045 25.6824 107.791Z" fill="#3C5623"/>
<path d="M15.3886 115.147C15.3756 113.79 15.6504 112.482 16.1063 111.212C16.2898 110.7 16.5504 110.239 17.2193 110.284C17.7988 110.322 18.0568 110.701 18.1766 111.199C19.3101 115.966 22.4521 118.931 26.7589 120.971C31.1172 123.035 33.4921 126.807 35.0262 131.185C35.6186 132.87 34.8017 134.147 33.0152 134.396C31.1159 134.66 29.299 134.272 27.5321 133.557C20.7049 130.794 15.2254 122.497 15.3886 115.147ZM19.6272 124.698C21.9169 128.972 25.3935 131.805 30.0993 133.107C25.8701 131.221 22.3368 128.48 19.6272 124.698Z" fill="#3C5623"/>
<path d="M288.002 53.1519C285.733 53.9121 283.465 53.7392 281.261 52.9746C277.038 51.509 273.784 48.8802 271.754 44.8336C271.138 43.6061 270.861 42.3056 270.782 40.956C270.75 40.4116 270.78 39.8453 271.401 39.5663C272.036 39.28 272.416 39.6552 272.802 40.0772C275.487 43.0132 278.748 44.7667 282.781 45.0491C285.884 45.2679 288.156 46.8698 289.725 49.5094C290.725 51.1941 290.42 52.1279 288.618 52.9323C288.419 53.0208 288.208 53.0791 288.002 53.1519ZM286.111 52.5495C282.76 52.3559 279.692 51.3304 276.854 49.5852C279.522 51.8742 282.619 52.8453 286.111 52.5495Z" fill="#324D18" fill-opacity="0.5"/>
<path d="M291.457 44.5855C291.828 45.5452 291.982 46.5468 291.996 47.5695C292.003 47.9817 291.941 48.3786 291.454 48.5248C291.032 48.6525 290.748 48.4517 290.53 48.1303C288.456 45.0487 285.436 43.782 281.835 43.4816C278.191 43.1778 275.501 41.133 273.245 38.4346C272.376 37.3961 272.615 36.2721 273.817 35.6193C275.095 34.9258 276.488 34.7172 277.932 34.7543C283.514 34.8957 289.615 39.3248 291.457 44.5855ZM285.904 38.9358C283.14 36.5117 279.917 35.4275 276.23 35.7572C279.734 35.9689 282.973 36.9733 285.904 38.9358Z" fill="#324D18" fill-opacity="0.5"/>
<path d="M122.435 28.578C122.632 26.766 123.474 25.2519 124.706 23.9699C127.066 21.5152 129.922 20.1013 133.369 19.9866C134.415 19.9516 135.404 20.1741 136.363 20.5497C136.749 20.7012 137.132 20.9026 137.127 21.4212C137.123 21.9516 136.742 22.0954 136.327 22.2276C133.439 23.1496 131.187 24.8474 129.706 27.548C128.565 29.6255 126.732 30.6874 124.406 30.9315C122.921 31.0865 122.372 30.5782 122.39 29.0745C122.392 28.9089 122.419 28.744 122.435 28.578ZM123.454 27.4621C124.656 25.2045 126.344 23.4089 128.456 22.0012C126.021 23.1177 124.362 24.9511 123.454 27.4621Z" fill="#324D18" fill-opacity="0.5"/>
<path d="M127.261 33.7004C126.479 33.6511 125.737 33.4381 125.025 33.1223C124.737 32.9951 124.482 32.8257 124.537 32.4423C124.582 32.11 124.812 31.9772 125.104 31.929C127.898 31.4755 129.737 29.7896 131.092 27.3938C132.464 24.9694 134.736 23.7591 137.323 23.0586C138.318 22.7878 139.02 23.3119 139.088 24.3515C139.161 25.4567 138.861 26.4871 138.375 27.4751C136.498 31.2926 131.489 34.102 127.261 33.7004ZM132.941 31.6583C135.499 30.5182 137.277 28.6339 138.224 25.9774C136.96 28.3348 135.233 30.2556 132.941 31.6583Z" fill="#324D18" fill-opacity="0.5"/>
<path d="M356.628 168.992C359.781 169.105 362.501 170.37 364.869 172.336C369.404 176.103 372.204 180.858 372.834 186.796C373.026 188.597 372.766 190.331 372.237 192.035C372.024 192.722 371.725 193.407 370.828 193.464C369.912 193.523 369.616 192.883 369.336 192.183C367.381 187.313 364.167 183.636 359.318 181.418C355.588 179.709 353.524 176.678 352.811 172.691C352.357 170.147 353.166 169.135 355.765 168.977C356.051 168.96 356.339 168.986 356.628 168.992ZM358.682 170.612C362.732 172.405 366.044 175.093 368.739 178.564C366.506 174.501 363.132 171.866 358.682 170.612Z" fill="#3C5623"/>
<path d="M348.389 177.968C348.376 176.611 348.65 175.303 349.106 174.033C349.29 173.521 349.55 173.06 350.219 173.105C350.799 173.143 351.057 173.522 351.177 174.02C352.31 178.787 355.452 181.751 359.759 183.791C364.117 185.856 366.492 189.628 368.026 194.006C368.619 195.691 367.802 196.968 366.015 197.217C364.116 197.481 362.299 197.093 360.532 196.377C353.705 193.615 348.225 185.318 348.389 177.968ZM352.627 187.518C354.917 191.793 358.393 194.626 363.099 195.928C358.87 194.042 355.337 191.301 352.627 187.518Z" fill="#3C5623"/>
</svg>
