<svg width="65" height="45" viewBox="0 0 65 45" fill="none" xmlns="http://www.w3.org/2000/svg">
<path d="M6.78544 8.74066C12.4533 4.04296 18.8944 1.58469 25.6419 0.621813C38.5605 -1.21642 49.7358 0.950069 58.6717 8.06956C61.3852 10.2288 63.2162 12.9861 64.5292 16.1228C65.0617 17.3847 65.441 18.778 63.9456 20.2369C62.4138 21.725 61.057 21.3092 59.6418 20.784C49.7942 17.1513 39.3119 17.0929 27.8886 21.528C19.0987 24.9419 11.4831 23.9863 4.97638 19.646C0.825775 16.8741 0.906018 14.2626 5.25358 10.0464C5.73502 9.57954 6.26753 9.17104 6.78544 8.74066ZM12.519 7.79237C21.98 4.00649 31.3316 2.57675 40.6322 3.16032C31.3608 1.05949 21.9727 2.657 12.519 7.79237Z" fill="#58602C"/>
<path d="M4.18178 34.7093C2.37273 32.8783 1.12536 30.6827 0.250012 28.2463C-0.100127 27.2688 -0.253309 26.2403 0.972177 25.2701C2.03718 24.4239 2.99276 24.5479 3.86082 25.044C12.1401 29.7927 21.5501 28.9976 31.7917 25.1534C42.15 21.2654 51.2828 22.7535 59.7518 26.357C63.0124 27.7429 63.2677 30.741 60.4666 33.8266C57.4832 37.1019 53.7921 39.3705 49.7509 41.1139C34.1478 47.8468 13.6064 44.9727 4.18907 34.702L4.18178 34.7093ZM25.0369 42.3394C34.1478 44.5131 43.4192 43.1126 52.8219 37.948C43.4776 41.661 34.2208 43.2658 25.0369 42.3394Z" fill="#58602C"/>
<path d="M10.8271 27.7284L11.8265 26.2695L13.0009 26.3935L12.4757 28.2464L10.8271 27.7284Z" fill="#58602C"/>
<path d="M11.1837 15.2765C11.1326 15.1817 11.0524 15.116 10.9356 15.116C10.9211 15.116 10.8846 15.1233 10.87 15.1233C9.59345 15.4297 8.50655 15.2255 8.38255 15.4005C8.33148 15.4662 8.3169 15.6267 8.3169 15.7871C8.3169 16.0133 8.36796 16.2686 8.46279 16.3342C8.55032 16.378 8.75458 16.4145 9.40379 16.4655C9.29437 16.8886 8.91505 17.7421 8.33878 17.7421C7.76251 17.7421 7.35402 16.7573 7.35402 15.4516C7.35402 13.5112 8.52845 11.8262 9.01718 11.8262C9.11201 11.8262 9.14848 11.9137 9.14848 12.0523C9.14848 12.4025 8.89318 13.1173 8.71081 13.6352C8.71081 13.6352 8.69622 13.6644 8.69622 13.6717C8.69622 13.8906 9.27249 14.051 9.76852 14.051C10.5272 14.051 10.4542 13.5769 10.4542 13.0736C10.4542 12.5702 10.3594 12.0596 10.1624 11.6074C10.0603 11.3739 9.20683 10.8706 8.76916 10.8706H8.71081C7.29567 11.0821 5.91699 13.059 5.91699 15.3786C5.91699 17.5378 7.16436 18.8582 8.28042 18.8582C9.46214 18.8582 10.4396 17.8296 10.8043 16.5166C10.9721 16.5166 11.0815 16.5166 11.0961 16.4874C11.1618 16.4509 11.2493 16.0497 11.2493 15.6996C11.2493 15.5245 11.2347 15.3641 11.1691 15.2619L11.1837 15.2765Z" fill="#B0B27D"/>
<path d="M15.6699 18.0191C15.3344 17.5522 15.2541 17.2896 15.2322 17.1145C15.5386 16.9759 16.91 16.1006 16.91 14.4156C16.91 12.9712 15.5897 12.6211 14.3131 12.6211C12.9418 12.6211 11.709 12.9275 11.709 13.1609C11.709 13.4308 12.1904 13.9122 12.6135 13.9852C12.577 14.7876 12.5479 15.8088 12.5479 16.8082C12.5479 17.8075 12.577 18.8579 12.6792 19.5874C12.7156 19.8865 13.2117 20.171 13.5764 20.171C13.7952 20.171 13.963 20.0615 13.963 19.7771V19.7114C13.8901 19.157 13.8755 18.4057 13.8755 17.6252C14.087 18.0847 14.4226 18.5953 14.9405 19.033C15.4949 19.4999 16.1441 19.602 16.5672 19.602C17.1872 19.602 17.2893 19.3759 17.2893 19.0987V19.0476C17.231 18.7923 16.3629 18.9601 15.6772 18.0045L15.6699 18.0191ZM13.8755 16.9468C13.9119 15.8599 13.9776 14.7292 14.0651 13.8685H14.1527C14.8456 13.8685 15.3927 14.2113 15.4 14.7073C15.4 16.0277 14.3496 16.7279 13.8755 16.9468Z" fill="#B0B27D"/>
<path d="M22.6301 16.9323C22.5936 16.8958 22.5572 16.8666 22.528 16.8666H22.5134C21.9517 17.224 20.6752 17.7784 19.7779 17.8514C19.7488 17.2459 19.7123 16.3633 19.7123 15.8745C20.2375 15.7651 21.0107 15.5828 21.6381 15.2253C21.8715 15.094 21.9517 14.8606 21.9517 14.6564C21.9517 14.4448 21.8496 14.2479 21.7475 14.2479H21.7183C21.1785 14.4375 20.573 14.4886 20.0697 14.4886C19.953 14.4886 19.8436 14.4886 19.7488 14.4886C19.7633 13.9196 19.7852 13.4819 19.8144 13.0661C20.2667 12.8692 21.7256 12.716 22.28 12.6941C22.455 12.6868 22.528 12.6066 22.528 12.5045C22.528 12.2127 22.0976 11.7604 21.7402 11.7166C21.6089 11.6948 21.215 11.6802 20.7335 11.6802C19.8144 11.6802 18.6254 11.7458 18.4868 12.096C18.2898 12.6212 18.1221 13.7008 18.1221 15.1962C18.1221 16.2976 18.1585 17.4502 18.4357 18.486C18.4941 18.7121 19.2819 19.1498 19.7196 19.1498C20.398 19.1498 21.6964 18.5808 22.5863 17.6763C22.6812 17.5742 22.7176 17.4137 22.7176 17.2751C22.7176 17.1292 22.6812 16.9833 22.6374 16.9323H22.6301Z" fill="#B0B27D"/>
<path d="M27.947 15.5465C27.9179 15.51 27.8814 15.4809 27.8522 15.4809H27.8303C27.2759 15.8383 25.9921 16.3927 25.0949 16.4656C25.0657 15.8602 25.0292 14.9775 25.0292 14.4888C25.5544 14.3794 26.3276 14.197 26.955 13.8396C27.1884 13.7083 27.2686 13.4749 27.2686 13.2706C27.2686 13.0591 27.1738 12.8621 27.0644 12.8621H27.0352C26.5027 13.0518 25.8973 13.1028 25.3866 13.1028C25.2699 13.1028 25.1678 13.1028 25.0657 13.1028C25.0803 12.5339 25.1021 12.0962 25.1386 11.6804C25.5909 11.4834 27.0498 11.3303 27.6042 11.3084C27.7793 11.3011 27.8522 11.2208 27.8522 11.1187C27.8522 10.8269 27.4218 10.3747 27.0644 10.3309C26.9331 10.309 26.5392 10.2944 26.0577 10.2944C25.1386 10.2944 23.9496 10.3601 23.811 10.7102C23.6068 11.2354 23.4463 12.315 23.4463 13.8104C23.4463 14.9119 23.4755 16.0644 23.7599 17.1003C23.8183 17.3264 24.6134 17.7641 25.0511 17.7641C25.7222 17.7641 27.0279 17.1951 27.9106 16.2906C28.0127 16.1884 28.0492 16.028 28.0492 15.8894C28.0492 15.7435 28.0127 15.5976 27.9616 15.5465H27.947Z" fill="#B0B27D"/>
<path d="M33.0537 9.45562C32.9005 9.45562 32.8202 9.51398 32.7838 9.68905C32.7035 10.1997 32.6014 11.1771 32.6014 12.264C32.6014 12.7309 32.616 13.2123 32.6597 13.6865C32.6597 13.6865 30.785 9.60881 30.6683 9.36079C30.6319 9.28055 30.4714 9.22949 30.2817 9.22949C29.8805 9.22949 29.3845 9.43374 29.3261 9.95895C29.1875 11.1626 29.0781 13.2488 29.0781 14.8609C29.0781 15.3059 29.0927 15.7144 29.1073 16.0645C29.1292 16.5532 29.9972 17.042 30.2015 17.042C30.3328 17.042 30.4057 16.9544 30.4057 16.8669C30.4057 16.4657 30.3474 16.0572 30.3474 15.6268C30.3474 14.6639 30.4495 13.6719 30.5808 12.7965C30.5808 12.7965 32.3461 16.1301 32.4263 16.349C32.5066 16.5751 33.0026 16.6991 33.3381 16.6991C33.5205 16.6991 33.6591 16.6481 33.6591 16.5022C33.7393 14.6931 33.8196 11.9358 34.1406 10.1705V10.1413C34.1406 9.84224 33.4111 9.45562 33.0537 9.45562Z" fill="#B0B27D"/>
<path d="M38.6266 11.7535C39.5019 11.4252 40.1365 10.156 40.1365 9.17852C40.1365 8.95239 40.1001 8.72626 40.0198 8.5366C39.7791 7.9968 38.7287 7.69043 37.7075 7.69043C37.2771 7.69043 35.8255 7.88009 35.2054 8.42718C35.1762 8.45636 35.1689 8.47824 35.1689 8.51472C35.1689 8.69708 35.4388 9.02533 35.789 9.18581C35.6942 9.75479 35.6285 10.5353 35.6285 11.4763C35.6285 12.5413 35.7452 14.1972 36.037 15.2476C36.0881 15.4154 36.3069 15.4737 36.5549 15.4737C36.9124 15.4737 37.3573 15.357 37.3573 15.2476C37.3573 15.1892 37.3573 15.1236 37.3427 15.0579C37.5105 15.1236 37.7804 15.2038 38.1232 15.2038C38.9986 15.2038 39.8666 14.5181 39.8666 13.2416C39.8666 12.1912 39.0278 11.841 38.6412 11.7389L38.6266 11.7535ZM38.2108 13.5771C38.0211 14.0075 37.5543 14.044 37.2552 14.044C37.2333 13.4604 37.2187 12.8258 37.2187 12.3152C37.8388 12.3298 38.3202 12.607 38.3202 13.1176C38.3202 13.2635 38.2837 13.4094 38.2181 13.5771H38.2108ZM37.2333 10.8854C37.2552 10.2216 37.3063 9.49948 37.3354 9.14934L37.35 9.13475C37.6856 9.0764 38.1524 9.02533 38.488 9.02533C38.6849 9.02533 38.8381 9.03992 38.8965 9.09828C38.9329 9.13475 38.9548 9.2004 38.9548 9.27335C38.9548 9.95174 38.0503 10.8854 37.2333 10.8854Z" fill="#B0B27D"/>
<path d="M46.2786 13.402C46.2494 13.3655 46.2129 13.3363 46.1837 13.3363H46.1618C45.6075 13.6938 44.3236 14.2482 43.4337 14.3211C43.3972 13.7157 43.3607 12.833 43.3607 12.3443C43.8859 12.2349 44.6592 12.0525 45.2865 11.6951C45.5199 11.5638 45.6002 11.3303 45.6002 11.1261C45.6002 10.9145 45.5053 10.7176 45.4032 10.7176H45.3667C44.8342 10.9072 44.2288 10.9583 43.7182 10.9583C43.6014 10.9583 43.492 10.9583 43.3972 10.9583C43.3972 10.3893 43.4337 9.95166 43.4629 9.53587C43.9151 9.33891 45.374 9.18573 45.9284 9.16385C46.1035 9.15655 46.1764 9.07631 46.1764 8.97419C46.1764 8.6824 45.746 8.23014 45.3886 8.18637C45.2573 8.16449 44.8634 8.1499 44.382 8.1499C43.4628 8.1499 42.2738 8.21555 42.1352 8.56569C41.931 9.0909 41.7705 10.1705 41.7705 11.6659C41.7705 12.7674 41.7997 13.9199 42.0842 14.9557C42.1425 15.1819 42.9376 15.6195 43.3753 15.6195C44.0464 15.6195 45.3521 15.0506 46.2421 14.146C46.3369 14.0439 46.3734 13.8834 46.3734 13.7448C46.3734 13.5989 46.3369 13.453 46.2858 13.402H46.2786Z" fill="#B0B27D"/>
<path d="M51.6185 8.11322C51.582 8.07675 51.5018 8.05486 51.3924 8.05486C51.334 8.05486 51.2684 8.06216 51.21 8.06216C50.9255 8.06216 50.6702 7.85791 50.3784 7.85791C50.2982 7.85791 50.2106 7.8725 50.1231 7.90897C49.7584 8.07675 48.8174 10.7976 48.1463 12.789C47.5919 12.8474 47.0156 12.8766 47.0156 13.1611C47.0156 13.5914 47.5919 14.0656 47.7524 14.0656C47.5554 14.7294 47.4314 15.24 47.4314 15.4515C47.4314 15.6485 47.7232 15.7725 48.1244 15.7725C48.4454 15.7725 48.759 15.685 48.8101 15.4515C48.8612 15.1598 49.0362 14.6054 49.2478 13.9489C49.4228 13.9416 49.6125 13.927 49.8021 13.927C50.3419 13.927 50.9766 14.0145 51.4288 14.1021C51.6039 14.9118 51.7279 15.4151 51.7936 15.4734C51.8957 15.561 52.1583 15.612 52.4355 15.612C52.8804 15.612 53.3765 15.5245 53.3765 15.3421C53.3765 15.0722 51.9395 8.39771 51.6331 8.10593L51.6185 8.11322ZM49.6854 12.7161C50.0502 11.7313 50.4368 10.7757 50.6994 10.3308C50.6994 10.3308 50.9182 11.5708 51.1808 12.8474C50.7942 12.7599 50.269 12.7161 49.6854 12.7161Z" fill="#B0B27D"/>
<path d="M58.2998 9.273C58.1466 9.273 58.0663 9.33136 58.0299 9.50643C57.9496 10.017 57.8475 10.9945 57.8475 12.0814C57.8475 12.5483 57.8621 13.0297 57.9058 13.5039C57.9058 13.5039 56.0311 9.42619 55.9144 9.17818C55.878 9.09794 55.7175 9.04688 55.5278 9.04688C55.1266 9.04688 54.6306 9.25112 54.5722 9.77633C54.4336 10.9799 54.3242 13.0662 54.3242 14.6783C54.3242 15.1232 54.3388 15.5317 54.3534 15.8819C54.3753 16.3706 55.2433 16.8594 55.4476 16.8594C55.5789 16.8594 55.6518 16.7718 55.6518 16.6843C55.6518 16.2831 55.5935 15.8746 55.5935 15.4442C55.5935 14.4813 55.6956 13.4893 55.8342 12.6139C55.8342 12.6139 57.5922 15.9475 57.6724 16.1664C57.7527 16.3925 58.2487 16.5165 58.5842 16.5165C58.7666 16.5165 58.9052 16.4654 58.9052 16.3196C58.9854 14.5105 59.0657 11.7532 59.3866 9.98787V9.9587C59.3866 9.65962 58.6572 9.273 58.2998 9.273Z" fill="#B0B27D"/>
<path d="M16.743 32.4774C16.6408 32.3169 16.4877 32.2002 16.2542 32.2002C16.2178 32.2002 16.1521 32.2221 16.1156 32.2221C13.5625 32.7546 11.4034 32.3971 11.148 32.7035C11.0459 32.8202 11.0094 33.0901 11.0094 33.3673C11.0094 33.7758 11.1116 34.2062 11.3012 34.3229C11.4763 34.4031 11.8848 34.4688 13.1686 34.549C12.9498 35.2785 12.1912 36.7593 11.0459 36.7593C9.90067 36.7593 9.08368 35.0451 9.08368 32.791C9.08368 29.4282 11.4179 26.5104 12.3954 26.5104C12.5924 26.5104 12.6653 26.6563 12.6653 26.897C12.6653 27.5098 12.1547 28.7353 11.79 29.6398C11.79 29.6617 11.7681 29.6908 11.7681 29.7054C11.7681 30.092 12.9133 30.3692 13.9127 30.3692C15.4154 30.3692 15.2768 29.545 15.2768 28.6769C15.2768 27.8088 15.0798 26.9189 14.6932 26.1384C14.4962 25.7372 12.782 24.8691 11.9286 24.8691H11.8118C8.98885 25.2193 6.24609 28.6623 6.24609 32.6816C6.24609 36.431 8.73353 38.7215 10.9584 38.7215C13.3145 38.7215 15.2622 36.9271 15.9989 34.6657C16.3345 34.6657 16.546 34.6439 16.5825 34.6147C16.7211 34.549 16.8962 33.856 16.8962 33.2433C16.8962 32.9369 16.8597 32.6597 16.743 32.4847V32.4774Z" fill="#B0B27D"/>
<path d="M27.6191 25.5688C26.9772 25.5688 25.8976 25.919 25.5693 26.2545C25.117 26.6995 25.3723 31.0398 25.1608 33.7752C24.9857 36.0876 24.3803 38.8231 23.1913 38.8231C21.9366 38.8231 21.3166 36.2846 21.3166 33.571C21.3166 32.0245 21.3749 29.9966 21.3749 28.545C21.3749 27.5019 21.3385 26.736 21.2436 26.663C21.0467 26.5171 20.5798 26.4369 20.0692 26.4369C19.4492 26.4369 18.7781 26.5463 18.5665 26.7214C18.2893 26.9475 18.1143 29.0848 18.1143 31.565C18.1143 34.0451 18.0778 41.2157 23.0746 41.2886C27.3638 41.2886 27.9327 36.839 28.1662 33.4105C28.2829 31.492 28.3412 29.8508 28.3412 28.5815C28.3412 25.919 28.2829 25.5688 27.6191 25.5688Z" fill="#B0B27D"/>
<path d="M33.7692 31.7115C33.7692 30.0921 34.0537 27.3128 34.0537 26.3791C34.0537 25.3871 32.7334 24.5117 31.6757 24.5117C31.2234 24.5117 30.8514 24.6065 30.7128 24.9348C30.2459 25.9998 29.8447 28.2247 29.8447 31.2957C29.8447 33.4476 30.1073 36.8031 30.8076 38.9185C30.9316 39.2978 31.61 39.4291 32.3176 39.4291C33.2367 39.4291 34.1047 39.1811 34.1047 38.9695C33.7984 37.2553 33.7765 33.2579 33.7765 31.7115H33.7692Z" fill="#B0B27D"/>
<path d="M29.6836 27.2033C30.4131 24.3365 30.9018 24.5043 31.4343 24.5043C32.2877 24.5043 33.8123 24.6356 34.0968 25.2994" stroke="#58602C" stroke-miterlimit="10"/>
<path d="M45.6874 24.0519C46.4022 24.9637 46.7232 26.2695 46.7232 27.7211C46.7232 29.1727 46.3877 30.814 45.8114 32.2145C45.2351 33.6151 44.4108 34.8041 43.4625 35.4898C42.3611 36.2703 41.5076 36.4891 40.6979 36.6131L40.5593 36.635V36.7736C40.5593 36.7736 40.5447 36.8466 40.4864 36.8903C40.4207 36.9341 40.3259 36.9779 40.2165 37.0071C40.0049 37.0654 39.7642 37.0873 39.6548 37.0946C39.6548 37.0946 39.6402 37.0946 39.6329 37.0946C39.4578 37.1165 39.3119 37.1311 39.1587 37.1311C38.9326 37.1311 38.7211 37.1019 38.5533 37.0362C38.3928 36.9706 38.3053 36.883 38.2761 36.7809C37.7071 34.6801 37.4956 31.3392 37.4956 29.2456C37.4956 27.8597 37.5685 26.6561 37.6853 25.6567L37.7144 25.416L37.4883 25.4816C37.3935 25.5108 37.3059 25.5108 37.2184 25.5108C37.2038 25.5108 37.1892 25.4962 37.16 25.4816C37.1017 25.4525 37.0287 25.416 36.9339 25.3649C36.7442 25.2628 36.5035 25.1096 36.2628 24.9345C36.0221 24.7522 35.7814 24.5479 35.6063 24.3364C35.4312 24.1176 35.3291 23.906 35.3291 23.7018C35.3291 23.7018 35.3364 23.6653 35.4021 23.6069C35.4677 23.5486 35.5771 23.4756 35.7303 23.41C36.0294 23.2641 36.4598 23.1182 36.9704 22.9869C37.9989 22.7243 39.3411 22.5273 40.5885 22.5273C41.6535 22.5273 42.6966 22.6003 43.5938 22.8337C44.4911 23.0671 45.2278 23.4465 45.6947 24.0519H45.6874ZM40.4061 33.8266V34.0309L40.6104 33.9798C40.6833 33.9579 40.7563 33.9506 40.8365 33.9433C41.0626 33.9214 41.3544 33.885 41.9015 33.5275C42.7477 32.9805 43.3969 31.9592 43.8273 30.8286C44.2649 29.6979 44.4984 28.4213 44.4984 27.3563C44.4984 26.5685 44.3671 25.861 44.0753 25.4306C43.6595 24.8251 42.9592 24.6719 42.1787 24.6719C41.7045 24.6719 41.1793 24.723 40.6468 24.7814L40.5155 24.796L40.5009 24.9273C40.3842 26.1017 40.2894 28.3338 40.2894 29.7125C40.2894 30.5878 40.3478 32.1343 40.4061 33.7172V33.8339V33.8266Z" fill="#B0B27D"/>
<path d="M53.9082 34.3153C54.8638 33.9505 55.7464 33.5129 56.3227 33.1627C56.33 33.1773 56.3591 33.2284 56.3883 33.3232C56.4175 33.418 56.4321 33.542 56.4321 33.6661C56.4321 33.9068 56.3664 34.1402 56.2351 34.2861C55.3671 35.1614 54.3021 35.8836 53.2881 36.3796C52.2669 36.883 51.3186 37.1456 50.7059 37.1456C50.3338 37.1456 49.7649 36.9486 49.2542 36.686C49.0062 36.5547 48.7874 36.4088 48.6196 36.2775C48.5394 36.2119 48.4737 36.1535 48.4372 36.1024C48.4154 36.0806 48.4008 36.0587 48.3935 36.0441C48.3862 36.0295 48.3862 36.0222 48.3862 36.0222C47.8318 33.9943 47.7734 31.7184 47.7734 29.5227C47.7734 26.532 48.0871 24.4093 48.481 23.4172C48.5029 23.3515 48.605 23.2421 48.8895 23.14C49.1521 23.0379 49.5095 22.9576 49.9326 22.8993C50.7715 22.7826 51.8073 22.7461 52.7265 22.7461C53.6456 22.7461 54.4698 22.7826 54.7033 22.819C54.9805 22.8555 55.3233 23.0598 55.6078 23.3515C55.7464 23.4901 55.8631 23.6433 55.9361 23.7892C56.0163 23.9351 56.0455 24.0591 56.0455 24.1394C56.0455 24.1831 56.0382 24.1904 56.0309 24.1904C56.0163 24.205 55.9579 24.2342 55.812 24.2488C55.2504 24.278 54.2291 24.3655 53.2444 24.4968C52.7483 24.5624 52.2596 24.6427 51.8292 24.7229C51.4061 24.8105 51.0341 24.9053 50.7788 25.0147L50.6329 25.0804V25.2408C50.6183 25.2846 50.6183 25.3211 50.611 25.3648C50.56 26.1672 50.5016 27.0207 50.487 28.1003V28.341L50.7277 28.3702C50.9393 28.3921 51.1581 28.3921 51.3915 28.3921H51.3988C52.4128 28.3921 53.6383 28.2827 54.7325 27.9106C54.747 27.9252 54.7762 27.9544 54.7981 28.0128C54.8565 28.1222 54.8929 28.29 54.8929 28.465C54.8929 28.8079 54.7616 29.1726 54.4042 29.3696C53.1933 30.0552 51.6906 30.42 50.6402 30.6242L50.4214 30.668V30.8868C50.4214 31.8789 50.5016 33.6588 50.56 34.8697L50.5746 35.1469L50.8517 35.125C51.7854 35.0447 52.9015 34.7165 53.9155 34.3299L53.9082 34.3153Z" fill="#B0B27D"/>
<path d="M35.6064 25.0373C35.1833 23.7607 35.1031 23.6586 35.3657 23.5054C39.8081 21.6745 44.2213 22.331 46.0231 23.9577" stroke="#58602C" stroke-miterlimit="10"/>
<path d="M48.0361 23.7169C48.1383 23.6293 48.2112 23.1114 48.9698 22.9582C52.2597 22.5643 54.5794 22.681 54.9222 22.8488C55.5714 23.1771 56.4687 24.2348 55.8048 24.2348C54.7982 24.2348 53.9593 24.6214 53.9593 24.6214" stroke="#58602C" stroke-miterlimit="10"/>
<path d="M24.9125 29.2312C24.7958 28.1297 25.0584 27.32 25.2772 26.6489C25.3794 26.3352 25.7222 25.9924 26.0359 25.8903C26.6632 25.6787 27.1009 25.438 27.4802 25.438C27.4875 25.438 27.4948 25.438 27.5021 25.438C27.9689 25.438 28.3483 25.8027 28.4066 26.2623C28.516 27.1376 28.7713 28.2464 28.7713 28.2464" stroke="#58602C" stroke-miterlimit="10"/>
<path d="M17.8291 29.5734C17.8729 28.4719 18.1719 27.1589 18.3616 26.8161C18.5002 26.5681 18.6971 26.4659 18.9816 26.4149C19.6381 26.2981 20.2509 26.2471 20.6229 26.3419C20.7907 26.3857 20.922 26.4295 21.0314 26.4732C21.2575 26.568 21.418 26.7723 21.4545 27.013C21.5931 27.83 21.7025 29.1941 21.7025 29.1941" stroke="#58602C" stroke-miterlimit="10"/>
<path d="M7.24512 27.641C8.45601 26.1675 10.3453 25.1608 11.1477 24.8617C11.5343 24.7159 11.8772 24.7086 12.2784 24.818C13.5622 25.1754 14.2333 25.6714 14.5178 25.8392C14.5907 25.883 14.7075 25.9705 14.7512 26.0362C15.5536 27.1741 15.6339 29.574 15.6339 29.574" stroke="#58602C" stroke-miterlimit="10"/>
</svg>
