<svg width="388" height="392" viewBox="0 0 388 392" fill="none" xmlns="http://www.w3.org/2000/svg">
<path fill-rule="evenodd" clip-rule="evenodd" d="M382 81C281.952 20 116.722 18 91.963 20C72.1556 21.6 22.4012 7.66666 0 0.5V352.406C30.8333 342.712 102 325.463 144 340.859C196.5 360.105 301.5 375.501 388 352.406L380.5 0H380.277L382 81Z" fill="#B0B27D"/>
<path d="M114.66 335.791C102.887 332.527 21.8716 336.81 -1.03297e-07 369.686L0 328L388 328L388 369.686C365.559 370.188 325.551 393.891 285.625 391.879C272.828 391.234 227.092 385.964 195.024 369.491C154.938 348.899 139.842 341.316 114.66 335.791Z" fill="#B0B27D"/>
</svg>
